<svg xmlns="http://www.w3.org/2000/svg" xmlns:xlink="http://www.w3.org/1999/xlink" width="500" zoomAndPan="magnify" viewBox="0 0 375 374.999991" height="500" preserveAspectRatio="xMidYMid meet" version="1.0"><path fill="#b66043" d="M 177.226562 38.621094 C 175.359375 39.285156 173.519531 40.921875 170.828125 44.300781 C 168.472656 47.257812 167.390625 48.050781 167.398438 46.8125 C 167.402344 46.492188 167.773438 45.585938 168.226562 44.789062 C 169.144531 43.1875 168.925781 42.445312 167.542969 42.445312 C 166.566406 42.445312 165.777344 43.46875 164.394531 46.539062 C 163.5 48.53125 163.109375 49.054688 162.417969 49.207031 C 161.753906 49.355469 161.464844 49.710938 161.144531 50.78125 C 160.644531 52.457031 159.886719 53.984375 159.558594 53.96875 C 159.425781 53.964844 159.058594 53.601562 158.742188 53.164062 C 158.242188 52.480469 158.214844 52.140625 158.527344 50.679688 C 158.726562 49.75 158.8125 48.910156 158.714844 48.816406 C 158.445312 48.542969 157.042969 50.039062 156.1875 51.507812 C 155.128906 53.328125 154.492188 56.457031 154.308594 60.734375 C 154.09375 65.761719 153.234375 66.667969 150.945312 64.277344 C 148.980469 62.226562 147.121094 63.003906 147.351562 65.777344 C 147.445312 66.90625 147.609375 67.078125 149.53125 68.097656 L 151.609375 69.195312 L 151.507812 70.722656 C 151.421875 72.046875 151.257812 72.351562 150.277344 73.011719 C 149.652344 73.429688 148.761719 73.851562 148.296875 73.949219 C 146.980469 74.222656 146.492188 74.578125 146.160156 75.507812 C 145.652344 76.929688 146.542969 77.578125 149.332031 77.8125 C 150.628906 77.921875 151.878906 78.203125 152.117188 78.441406 C 152.453125 78.777344 152.488281 79.726562 152.269531 82.851562 C 152.117188 85.042969 152.113281 88.597656 152.257812 90.757812 C 152.402344 92.917969 152.53125 95.007812 152.542969 95.402344 C 152.554688 95.796875 152.761719 96.320312 153.007812 96.5625 C 153.25 96.804688 153.84375 97.628906 154.324219 98.394531 C 154.816406 99.167969 155.550781 99.867188 155.992188 99.980469 C 156.554688 100.121094 156.984375 100.660156 157.476562 101.839844 C 157.855469 102.757812 158.167969 103.703125 158.167969 103.945312 C 158.167969 104.449219 159.871094 107.914062 161.042969 109.785156 C 161.476562 110.480469 162.230469 111.222656 162.71875 111.4375 C 165.015625 112.453125 166.378906 113.628906 166.769531 114.9375 C 167.089844 116.011719 167.078125 116.351562 166.703125 116.808594 C 166.078125 117.566406 162.925781 119.566406 162.351562 119.566406 C 162.101562 119.566406 160.953125 120.175781 159.804688 120.917969 C 158.65625 121.660156 156.835938 122.695312 155.757812 123.214844 C 152.242188 124.921875 147.472656 129.183594 147.230469 130.84375 C 147.171875 131.230469 146.972656 131.597656 146.785156 131.65625 C 145.5625 132.058594 144.429688 125.441406 144.753906 119.738281 C 144.933594 116.546875 145.75 112.808594 147.421875 107.546875 C 147.984375 105.769531 148.078125 105.0625 147.808594 104.628906 C 147.363281 103.914062 148.613281 101.582031 149.410156 101.652344 C 149.960938 101.699219 151.90625 99.480469 151.90625 98.804688 C 151.90625 98.582031 151.683594 98.488281 151.410156 98.59375 C 151.136719 98.699219 150.914062 98.640625 150.914062 98.464844 C 150.914062 97.535156 149.460938 98.363281 147.855469 100.203125 C 145.722656 102.644531 144.816406 104.335938 144.140625 107.125 C 143.867188 108.257812 143.167969 110.816406 142.585938 112.8125 C 141.6875 115.90625 141.53125 116.964844 141.527344 120.0625 C 141.519531 125.945312 141.996094 130.753906 142.742188 132.347656 C 143.304688 133.546875 143.335938 133.835938 142.957031 134.296875 C 142.296875 135.09375 138.703125 136.703125 137.566406 136.714844 C 135.921875 136.726562 133.890625 137.855469 133.035156 139.234375 C 131.539062 141.640625 128.425781 149.316406 124.363281 160.601562 C 120.523438 171.273438 114.703125 186.011719 112.582031 190.429688 C 110.585938 194.597656 104.496094 203.535156 102.316406 205.5 C 99.832031 207.742188 94.703125 211.5625 90.867188 214.035156 C 89 215.238281 86.652344 216.914062 85.65625 217.761719 C 83.140625 219.894531 80.285156 221.769531 77.660156 223.023438 C 74.679688 224.445312 74.242188 225.136719 74.765625 227.597656 C 75.167969 229.503906 75.582031 230.125 77.960938 232.375 C 79.128906 233.484375 79.570312 233.667969 82.097656 234.074219 C 83.652344 234.328125 85.226562 234.691406 85.589844 234.890625 C 87.296875 235.804688 90.59375 238.160156 92.082031 239.535156 C 96.351562 243.476562 101.570312 247.128906 104.507812 248.226562 C 106.816406 249.09375 108.070312 250.527344 108.070312 252.304688 C 108.070312 255.394531 105.59375 264.300781 102.976562 270.625 C 102.183594 272.535156 101.550781 274.9375 101.015625 278.042969 C 100.582031 280.570312 100.070312 282.921875 99.886719 283.269531 C 99.179688 284.585938 97.773438 290.195312 97.753906 291.777344 C 97.738281 292.964844 97.988281 293.925781 98.648438 295.207031 C 100.417969 298.65625 103.085938 302.359375 106.144531 305.621094 C 107.84375 307.433594 109.597656 309.464844 110.046875 310.136719 C 110.964844 311.515625 111.964844 312.089844 112.980469 311.824219 C 113.535156 311.675781 113.671875 311.386719 113.671875 310.34375 C 113.671875 309.238281 113.429688 308.785156 112.054688 307.332031 C 110.457031 305.640625 107.609375 300.488281 106.742188 297.710938 C 106.210938 296.007812 104.792969 293.164062 104.316406 292.855469 C 103.609375 292.390625 103.453125 292.613281 103.453125 294.085938 C 103.453125 294.902344 103.375 295.570312 103.273438 295.570312 C 102.867188 295.570312 101.472656 293.683594 101.125 292.667969 C 100.636719 291.234375 101.230469 286.902344 102.464844 282.878906 C 102.96875 281.25 103.484375 279.039062 103.609375 277.972656 C 103.820312 276.214844 106.394531 268.460938 107.378906 266.625 C 107.886719 265.671875 109.882812 259.894531 110.773438 256.796875 L 111.449219 254.445312 L 113.136719 254.875 C 116.191406 255.652344 118.339844 256.023438 118.660156 255.824219 C 118.832031 255.71875 119.359375 255.882812 119.828125 256.191406 C 120.617188 256.707031 120.667969 256.882812 120.507812 258.609375 C 120.410156 259.628906 119.929688 261.578125 119.4375 262.9375 C 118.945312 264.300781 118.476562 265.78125 118.394531 266.234375 C 117.902344 268.960938 117.757812 269.082031 116.855469 267.554688 C 116.261719 266.550781 115.535156 266.277344 115.144531 266.914062 C 114.75 267.546875 115.285156 268.699219 116.277344 269.355469 C 117.816406 270.375 117.988281 271.105469 117.757812 275.734375 C 117.613281 278.703125 117.28125 280.964844 116.621094 283.539062 C 115.53125 287.769531 114.664062 293.40625 114.652344 296.320312 C 114.644531 298.789062 114.207031 300.839844 113.613281 301.214844 C 112.777344 301.738281 112.582031 299.703125 112.898438 293.84375 C 113.066406 290.667969 113.078125 287.855469 112.921875 287.480469 C 112.648438 286.828125 111.398438 286.460938 111.046875 286.933594 C 110.949219 287.058594 110.582031 287.324219 110.234375 287.515625 C 108.839844 288.285156 108.378906 291.722656 109.179688 295.402344 C 109.675781 297.671875 111.820312 302.117188 112.726562 302.757812 C 113.066406 302.992188 113.34375 303.46875 113.34375 303.816406 C 113.34375 305.125 115.839844 305.355469 118.039062 304.246094 C 119.117188 303.707031 119.171875 303.199219 118.285156 302.070312 C 117.515625 301.089844 117.457031 299.355469 117.957031 292.046875 C 118.207031 288.359375 118.480469 286.757812 119.238281 284.464844 C 120.746094 279.914062 121.050781 277.921875 120.585938 275.613281 C 119.820312 271.816406 119.820312 271.839844 120.390625 271.839844 C 120.816406 271.839844 120.910156 271.488281 120.878906 270.007812 C 120.839844 268.460938 121.0625 267.71875 122.324219 265.148438 C 123.144531 263.480469 124.300781 260.941406 124.894531 259.503906 C 125.589844 257.824219 126.535156 256.273438 127.550781 255.152344 C 128.449219 254.164062 129.265625 252.875 129.453125 252.160156 C 129.628906 251.472656 130.175781 249.203125 130.664062 247.117188 C 131.148438 245.035156 131.769531 242.773438 132.039062 242.097656 C 132.472656 241 132.472656 240.691406 132.011719 239.296875 L 130.582031 234.925781 C 130.078125 233.382812 129.28125 231.53125 128.808594 230.804688 C 128.179688 229.839844 127.804688 228.554688 127.410156 226.023438 C 126.492188 220.171875 126.410156 217.34375 127.019531 212.675781 C 127.328125 210.320312 127.601562 206.984375 127.628906 205.261719 C 127.671875 202.472656 127.554688 201.769531 126.542969 198.835938 C 124.953125 194.226562 124.976562 192.148438 126.660156 188.230469 C 127.34375 186.652344 128.019531 185.074219 128.691406 183.492188 C 129.300781 182.058594 129.542969 180.628906 129.8125 176.898438 C 130.472656 167.675781 131.25 162.890625 132.601562 159.695312 C 133.714844 157.070312 134.144531 158.605469 133.875 164.226562 C 133.769531 166.402344 133.796875 170.089844 133.929688 172.417969 C 134.132812 175.925781 134.285156 176.765625 134.800781 177.28125 C 135.59375 178.074219 137.03125 178.101562 137.273438 177.328125 C 137.691406 175.96875 138 175.757812 139.910156 175.542969 C 140.976562 175.425781 141.96875 175.4375 142.109375 175.570312 C 142.25 175.703125 141.921875 176.367188 141.386719 177.046875 C 140.179688 178.5625 139.578125 180.296875 139.824219 181.53125 C 140.007812 182.445312 146.578125 189.441406 147.253906 189.441406 C 147.421875 189.441406 148.394531 190.121094 149.417969 190.953125 C 150.4375 191.785156 151.453125 192.398438 151.671875 192.3125 C 152.410156 192.027344 155.8125 184.609375 156.890625 180.925781 C 157.902344 177.472656 157.941406 177.152344 157.578125 175.199219 C 155.316406 162.972656 153.648438 154.566406 152.164062 147.914062 C 151.734375 145.988281 151.484375 143.257812 151.371094 139.183594 L 151.203125 133.257812 L 150.203125 132.421875 C 149.476562 131.816406 149.234375 131.363281 149.316406 130.769531 C 149.421875 130.035156 149.589844 129.949219 150.914062 129.941406 C 151.730469 129.933594 152.726562 129.71875 153.125 129.457031 C 153.523438 129.199219 153.914062 129.054688 153.988281 129.136719 C 154.0625 129.222656 154.222656 131.515625 154.339844 134.234375 C 154.527344 138.492188 155.335938 145.683594 155.695312 146.261719 C 155.757812 146.367188 156.273438 149.117188 156.839844 152.371094 C 158.328125 160.941406 159.796875 168.65625 160.214844 170.070312 C 160.414062 170.75 160.832031 171.535156 161.144531 171.816406 C 161.667969 172.292969 161.773438 172.222656 162.535156 170.917969 C 162.992188 170.136719 164.253906 167.722656 165.339844 165.546875 C 166.429688 163.371094 168.234375 159.960938 169.351562 157.964844 C 170.890625 155.222656 171.351562 154.097656 171.253906 153.351562 C 171.179688 152.808594 170.5 150.359375 169.738281 147.914062 C 168.824219 144.960938 168.195312 142.125 167.878906 139.488281 C 167.617188 137.300781 166.957031 133.242188 166.410156 130.464844 C 165.144531 124.019531 165.117188 122.261719 166.304688 123.246094 C 166.652344 123.535156 166.855469 123.484375 167.195312 123.019531 C 167.621094 122.4375 167.648438 122.4375 167.96875 123.050781 C 168.8125 124.6875 169.648438 127.882812 169.855469 130.28125 C 169.980469 131.730469 170.292969 133.878906 170.546875 135.058594 C 170.800781 136.238281 171.300781 139.5 171.660156 142.308594 C 172.289062 147.257812 173.390625 151.539062 174.03125 151.539062 C 174.203125 151.539062 174.894531 150.625 175.566406 149.503906 C 176.238281 148.386719 177.882812 145.835938 179.21875 143.835938 C 180.558594 141.835938 182.433594 138.785156 183.390625 137.050781 C 189.6875 125.660156 193.726562 119.234375 196.582031 116.078125 C 198.082031 114.421875 198.433594 114.183594 198.9375 114.492188 C 200.53125 115.46875 199.34375 117.949219 192.046875 128.902344 C 186.789062 136.792969 184.816406 140.023438 181.730469 145.769531 C 180.855469 147.402344 179.398438 149.996094 178.492188 151.539062 C 175.734375 156.21875 170.691406 165.03125 168.867188 168.347656 C 167.921875 170.070312 166.234375 173.035156 165.121094 174.9375 C 161.902344 180.433594 160.261719 183.375 157.917969 187.863281 L 155.726562 192.050781 L 156.160156 193.796875 C 156.757812 196.203125 157.300781 196.941406 158.777344 197.339844 C 159.640625 197.570312 160.632812 198.289062 161.867188 199.574219 C 163.640625 201.425781 166.710938 203.777344 167.242188 203.691406 C 167.390625 203.667969 167.765625 202.820312 168.078125 201.808594 C 168.390625 200.796875 168.796875 199.789062 168.976562 199.566406 C 169.15625 199.34375 170.410156 197.160156 171.753906 194.714844 C 173.101562 192.265625 175.101562 188.78125 176.199219 186.96875 C 177.292969 185.15625 178.929688 182.414062 179.835938 180.871094 C 180.824219 179.195312 181.824219 177.527344 182.835938 175.867188 C 183.578125 174.652344 185.398438 171.390625 186.882812 168.613281 C 188.367188 165.839844 190.5 162.011719 191.628906 160.105469 C 194.214844 155.730469 200.285156 144.671875 205.378906 135.058594 C 206.484375 132.976562 207.859375 130.527344 208.4375 129.621094 C 209.015625 128.714844 209.675781 127.378906 209.90625 126.652344 C 210.832031 123.742188 210.582031 123.9375 213.597656 123.78125 C 217.191406 123.597656 217.699219 123.792969 217.984375 125.492188 C 218.28125 127.246094 217.8125 127.808594 216.050781 127.808594 C 214.191406 127.8125 212.730469 128.789062 211.765625 130.679688 C 211.320312 131.546875 209.972656 133.886719 208.769531 135.882812 C 207.566406 137.875 205.273438 142.105469 203.671875 145.277344 C 202.074219 148.449219 199.980469 152.378906 199.023438 154.011719 C 198.0625 155.640625 196.414062 158.574219 195.351562 160.527344 C 191.105469 168.355469 188.703125 172.464844 185.753906 176.972656 C 182.414062 182.074219 180.226562 185.824219 178.773438 188.945312 C 177.722656 191.203125 173.710938 197.949219 171.515625 201.160156 C 169.585938 203.976562 169.347656 204.890625 170.378906 205.570312 C 170.804688 205.855469 171.902344 206.691406 172.820312 207.433594 C 173.734375 208.175781 175.371094 209.113281 176.457031 209.519531 C 178.191406 210.167969 178.585938 210.207031 179.660156 209.851562 C 180.546875 209.558594 181.820312 209.523438 184.273438 209.726562 C 186.140625 209.878906 189.59375 210.015625 191.949219 210.03125 C 194.304688 210.046875 197.421875 210.179688 198.871094 210.324219 L 201.507812 210.59375 L 203.890625 208.777344 C 205.203125 207.777344 207.085938 206.65625 208.082031 206.285156 C 209.074219 205.914062 211.371094 204.863281 213.1875 203.953125 C 215.007812 203.039062 216.710938 202.292969 216.980469 202.292969 C 217.714844 202.292969 219.800781 200.335938 219.800781 199.648438 C 219.800781 199.316406 219.613281 198.851562 219.382812 198.609375 C 217.910156 197.070312 215.289062 193.792969 213.492188 191.246094 C 212.339844 189.609375 210.355469 187.316406 209.089844 186.148438 C 206.058594 183.363281 205.980469 183.246094 205.96875 181.625 C 205.960938 180.628906 206.121094 180.148438 206.535156 179.933594 C 207.371094 179.492188 208.230469 179.929688 210.355469 181.871094 C 211.390625 182.820312 212.328125 183.507812 212.4375 183.402344 C 212.542969 183.292969 212.09375 182.394531 211.4375 181.40625 C 210.105469 179.402344 210.046875 179.222656 210.691406 179.222656 C 211.359375 179.222656 213.851562 182.121094 215.351562 184.644531 C 216.074219 185.863281 217.085938 187.328125 217.597656 187.902344 L 218.523438 188.945312 L 218.378906 187.957031 C 218.300781 187.414062 217.976562 185.558594 217.660156 183.835938 C 217.054688 180.523438 217.09375 176.328125 217.808594 167.871094 C 218.195312 163.316406 218.59375 161.78125 220.550781 157.289062 C 222.179688 153.542969 223.90625 150.980469 225.378906 150.117188 C 226.296875 149.578125 226.417969 149.574219 226.597656 150.046875 C 226.710938 150.335938 226.351562 151.492188 225.800781 152.621094 C 223.777344 156.761719 221.371094 163.570312 220.882812 166.535156 C 220.367188 169.660156 220.128906 179.46875 220.53125 180.871094 C 220.664062 181.324219 221.21875 181.949219 221.769531 182.257812 C 222.714844 182.789062 222.765625 182.925781 222.765625 184.898438 C 222.765625 186.796875 223.925781 197.34375 224.234375 198.214844 C 224.472656 198.902344 226.082031 198.269531 226.933594 197.152344 C 227.398438 196.542969 228.46875 195.523438 229.308594 194.890625 C 234.097656 191.277344 237.199219 188.597656 239.863281 185.773438 C 242.644531 182.828125 243.957031 181.875 244.347656 182.511719 C 244.4375 182.652344 244 183.433594 243.378906 184.246094 C 242.695312 185.144531 242.3125 185.96875 242.40625 186.347656 C 242.519531 186.808594 241.792969 187.652344 239.597656 189.605469 C 237.972656 191.054688 236.632812 192.429688 236.625 192.65625 C 236.613281 192.960938 237.574219 193.066406 240.382812 193.066406 C 243.496094 193.066406 244.613281 193.210938 246.769531 193.894531 C 249.3125 194.695312 250.367188 195.371094 250 195.960938 C 249.902344 196.121094 247.074219 196.183594 243.714844 196.097656 C 237.164062 195.933594 236.082031 196.085938 232.652344 197.632812 C 229.78125 198.929688 228.433594 199.953125 228.046875 201.121094 C 227.519531 202.722656 226.121094 203.851562 223.351562 204.917969 C 221.976562 205.445312 219.839844 206.390625 218.597656 207.015625 C 211.726562 210.472656 202.394531 212.730469 197.386719 212.140625 C 193.023438 211.628906 186.765625 211.472656 183.546875 211.789062 C 181.070312 212.035156 180.214844 212.003906 179.457031 211.648438 C 178.046875 210.980469 177.808594 211.0625 176.992188 212.511719 C 176.191406 213.933594 175.972656 214.03125 174.871094 213.445312 C 173.28125 212.597656 167.289062 207.859375 163.0625 204.109375 C 162.042969 203.203125 160.140625 201.71875 158.84375 200.8125 C 157.546875 199.90625 154.15625 197.328125 151.308594 195.082031 C 143.207031 188.695312 141.15625 187.132812 140.835938 187.121094 C 140.667969 187.113281 140.058594 186.460938 139.476562 185.671875 C 138.867188 184.839844 138.179688 184.253906 137.84375 184.285156 C 137.515625 184.3125 137.078125 183.953125 136.832031 183.449219 C 136.59375 182.964844 135.773438 182.105469 135.011719 181.542969 L 133.621094 180.523438 L 133.417969 181.273438 C 133.304688 181.6875 132.894531 182.613281 132.507812 183.335938 C 132.121094 184.058594 131.707031 185.367188 131.589844 186.246094 C 131.425781 187.484375 131.214844 187.90625 130.644531 188.121094 C 129.546875 188.542969 129.011719 191.824219 129.988281 192.195312 C 130.269531 192.304688 130.480469 192.796875 130.480469 193.34375 C 130.480469 194.726562 131.121094 195.113281 133.003906 194.867188 C 135.09375 194.59375 136.71875 195.59375 137.246094 197.480469 C 137.460938 198.246094 137.988281 199.019531 138.574219 199.433594 C 139.109375 199.808594 140.359375 200.808594 141.359375 201.652344 C 145.503906 205.167969 151.847656 209.675781 154.554688 211.035156 C 157.527344 212.53125 162.507812 215.820312 164.265625 217.457031 C 164.808594 217.960938 166.308594 219.167969 167.59375 220.140625 C 168.882812 221.109375 170.996094 222.765625 172.292969 223.816406 L 174.648438 225.726562 L 174.441406 227.113281 C 174.324219 227.875 174.132812 228.609375 174.007812 228.746094 C 173.792969 228.984375 170.667969 226.644531 163.734375 221.058594 C 161.050781 218.890625 158.898438 217.371094 153.140625 213.570312 C 152.460938 213.121094 151.121094 212.066406 150.160156 211.226562 C 149.199219 210.382812 147.085938 209.054688 145.460938 208.269531 C 143.929688 207.53125 142.394531 206.789062 140.863281 206.042969 C 139.957031 205.601562 138.324219 204.898438 137.238281 204.480469 C 135.574219 203.839844 135.273438 203.601562 135.34375 202.984375 C 135.386719 202.582031 135.261719 201.949219 135.0625 201.578125 C 134.761719 201.011719 134.496094 200.933594 133.414062 201.109375 C 132.59375 201.238281 131.710938 201.140625 130.972656 200.832031 C 129.605469 200.261719 129.546875 200.480469 130.644531 202.097656 C 131.726562 203.691406 131.828125 206.878906 130.832031 207.808594 C 129.941406 208.636719 129.601562 215.0625 130.132812 220.894531 C 130.582031 225.824219 130.894531 226.734375 132.710938 228.398438 C 133.441406 229.066406 134.097656 229.789062 134.167969 230.003906 C 134.242188 230.21875 134.960938 230.511719 135.769531 230.65625 C 136.574219 230.800781 137.957031 231.175781 138.839844 231.488281 C 140.175781 231.964844 140.753906 232.003906 142.308594 231.714844 C 143.703125 231.453125 144.859375 231.476562 146.871094 231.796875 C 151.046875 232.464844 151.34375 233.019531 148.195312 234.269531 C 145.886719 235.1875 142.328125 235.367188 139.015625 234.734375 C 137.996094 234.539062 136.847656 234.5 136.449219 234.644531 C 135.757812 234.902344 135.753906 234.945312 136.28125 235.75 C 136.722656 236.425781 136.789062 237.03125 136.617188 238.808594 C 135.964844 245.507812 135.8125 248.296875 136.085938 248.570312 C 136.566406 249.054688 138.523438 249.039062 138.882812 248.554688 C 139.320312 247.96875 140.488281 247.90625 142.511719 248.363281 C 143.417969 248.570312 145.410156 248.878906 146.941406 249.050781 C 148.910156 249.273438 149.84375 249.527344 150.132812 249.921875 C 150.675781 250.664062 150.378906 251.324219 149.242188 251.910156 C 148.035156 252.535156 146.691406 252.519531 145.125 251.867188 C 143.632812 251.242188 141.101562 251.457031 138.554688 252.425781 C 137.648438 252.769531 136.671875 253.050781 136.382812 253.050781 C 135.402344 253.050781 134.765625 254.246094 132.585938 260.167969 C 130.503906 265.824219 130.371094 266.359375 129.449219 272.992188 C 127.285156 288.53125 126.417969 293.515625 122.683594 311.882812 C 120.710938 321.59375 119.4375 329.328125 118.597656 336.734375 C 118.214844 340.105469 117.6875 343.976562 117.425781 345.335938 C 115.382812 355.933594 114.675781 360.578125 113.835938 368.96875 C 113.558594 371.722656 113.246094 374.207031 113.136719 374.488281 C 112.960938 374.949219 120.238281 375 187.464844 375 C 228.453125 375 261.988281 374.917969 261.988281 374.820312 C 261.988281 374.71875 261.773438 374.222656 261.511719 373.714844 C 261.246094 373.207031 260.046875 369.542969 258.839844 365.574219 C 255.765625 355.472656 255.589844 354.898438 254.121094 350.28125 C 248.867188 333.75 246.585938 326.019531 245.222656 320.125 C 244.679688 317.765625 243.984375 315.246094 243.6875 314.519531 C 242.265625 311.085938 239.371094 304.808594 238.597656 303.480469 C 238.0625 302.558594 237.191406 299.75 236.304688 296.0625 C 234.164062 287.175781 231.871094 281.875 229.203125 279.644531 C 228.402344 278.976562 227.042969 277.503906 226.183594 276.371094 C 225.320312 275.238281 223.191406 272.753906 221.449219 270.847656 C 219.710938 268.945312 217.589844 266.425781 216.738281 265.246094 C 215.890625 264.066406 214.253906 261.917969 213.109375 260.46875 C 211.101562 257.929688 210.976562 257.835938 209.796875 257.941406 C 209.050781 258.007812 207.867188 257.757812 206.769531 257.300781 L 204.96875 256.554688 L 203.636719 257.304688 C 202.320312 258.042969 202.289062 258.046875 199.601562 257.515625 C 198.113281 257.21875 195.335938 256.480469 193.433594 255.867188 C 191.527344 255.257812 189.304688 254.679688 188.488281 254.582031 C 187.671875 254.484375 186.5625 254.1875 186.015625 253.921875 C 185.433594 253.640625 183.015625 253.292969 180.113281 253.074219 C 175.707031 252.746094 175.125 252.632812 174.449219 251.957031 C 173.792969 251.300781 173.746094 251.101562 174.101562 250.398438 C 174.472656 249.652344 174.683594 249.59375 176.800781 249.617188 C 178.0625 249.628906 180.207031 249.875 181.566406 250.160156 C 182.925781 250.449219 185.449219 250.863281 187.171875 251.082031 C 188.890625 251.300781 191.695312 251.910156 193.394531 252.433594 C 195.097656 252.957031 197.695312 253.523438 199.164062 253.691406 C 200.632812 253.859375 202.070312 254.085938 202.355469 254.195312 C 203.039062 254.460938 204.375 253.375 205.605469 251.550781 C 206.597656 250.082031 206.601562 250.058594 206.074219 248.746094 C 205.480469 247.261719 205.589844 246.957031 206.59375 247.277344 C 207.214844 247.472656 208.214844 248.628906 214.03125 255.855469 C 217.148438 259.726562 220.59375 263.457031 230.171875 273.320312 C 242.59375 286.113281 244.816406 288.5 247.875 292.308594 C 249.265625 294.042969 251.714844 296.875 253.3125 298.601562 C 257.871094 303.519531 268.640625 315.890625 270.945312 318.851562 C 272.089844 320.324219 274.519531 323.289062 276.34375 325.441406 C 280.503906 330.347656 282.109375 332.492188 283.332031 334.789062 C 285.414062 338.691406 285.894531 339.3125 288.410156 341.324219 C 291.445312 343.753906 292.664062 344.117188 294.070312 343.011719 C 294.84375 342.402344 294.976562 342.101562 294.8125 341.296875 C 294.621094 340.335938 294.636719 340.324219 295.753906 340.53125 C 297.25 340.8125 297.726562 340.003906 297.414062 337.71875 C 297.261719 336.625 297.320312 335.929688 297.589844 335.609375 C 298.300781 334.75 294.710938 325.9375 292.054688 322.015625 C 291.53125 321.242188 290.152344 319.609375 288.988281 318.390625 C 287.824219 317.167969 286.140625 315.351562 285.246094 314.355469 C 284.351562 313.359375 281.308594 310.109375 278.488281 307.136719 C 275.667969 304.164062 272.320312 300.578125 271.050781 299.167969 C 269.78125 297.757812 266.554688 294.230469 263.878906 291.328125 C 261.203125 288.421875 257.648438 284.519531 255.984375 282.652344 C 251.355469 277.457031 245.292969 271.191406 243.929688 270.191406 C 243.257812 269.699219 237.074219 263.695312 230.1875 256.84375 C 223.300781 249.996094 217.148438 244.054688 216.507812 243.644531 C 215.871094 243.234375 214.878906 242.457031 214.304688 241.917969 C 213.367188 241.042969 213.285156 240.820312 213.519531 239.785156 C 213.960938 237.820312 214.648438 237.339844 215.515625 238.386719 C 215.742188 238.65625 216.316406 238.882812 216.792969 238.890625 C 217.855469 238.902344 218.214844 239.1875 220.292969 241.671875 C 222.785156 244.652344 232.777344 254.988281 236.613281 258.554688 L 240.003906 261.710938 L 240.460938 260.84375 C 241.019531 259.773438 241.0625 259.773438 242.59375 260.835938 C 243.488281 261.453125 244.507812 261.773438 246.238281 261.976562 C 249.449219 262.355469 257.050781 261.984375 257.257812 261.441406 C 257.34375 261.21875 257.171875 259.253906 256.875 257.074219 C 256.414062 253.710938 256.386719 252.253906 256.683594 247.398438 C 257.121094 240.25 257.488281 238.832031 262.230469 225.859375 C 264.347656 220.058594 265.625 216 266.480469 212.347656 C 267.25 209.042969 267.351562 199.105469 266.644531 195.617188 C 266.136719 193.09375 264.421875 189.53125 259.386719 180.542969 C 257.507812 177.1875 254.742188 171.921875 253.242188 168.839844 C 248.429688 158.964844 245.925781 154.609375 243.960938 152.710938 C 242.675781 151.464844 241.453125 149.738281 238.585938 145.101562 C 236.488281 141.710938 232.082031 137.710938 227.863281 135.371094 C 224.15625 133.316406 218.480469 129.40625 218.480469 128.90625 C 218.480469 128.503906 218.75 128.453125 219.882812 128.640625 C 220.652344 128.769531 221.875 129.105469 222.601562 129.382812 C 224.472656 130.101562 229.34375 132.960938 231.921875 134.851562 C 233.125 135.734375 234.707031 136.664062 235.433594 136.921875 C 236.160156 137.179688 237.054688 137.652344 237.421875 137.976562 C 238.824219 139.207031 239.972656 139.765625 240.234375 139.339844 C 240.847656 138.351562 239.410156 136.675781 235.25 133.523438 C 233.546875 132.234375 233.417969 132.035156 233.066406 130.144531 C 232.738281 128.371094 232.449219 127.863281 230.628906 125.828125 C 229.492188 124.558594 228.476562 123.523438 228.371094 123.523438 C 228.265625 123.523438 227.144531 122.582031 225.882812 121.433594 C 223.523438 119.289062 217.332031 114.898438 214.941406 113.679688 C 213.339844 112.859375 207.835938 111 207.023438 111 C 206.707031 111 205 110.480469 203.222656 109.84375 C 201.449219 109.210938 199.703125 108.691406 199.339844 108.691406 C 198.273438 108.691406 198.242188 107.804688 199.246094 105.886719 C 199.765625 104.890625 200.261719 104.089844 200.355469 104.101562 C 200.445312 104.113281 201.382812 105.222656 202.441406 106.570312 C 203.777344 108.277344 204.578125 109.019531 205.078125 109.019531 C 205.878906 109.019531 207.140625 107.597656 208.226562 105.46875 C 208.617188 104.703125 209.109375 104.078125 209.320312 104.078125 C 209.53125 104.078125 210.417969 104.820312 211.292969 105.726562 C 213.003906 107.5 213.351562 107.632812 214.410156 106.890625 C 215.203125 106.335938 215.515625 106.519531 215.515625 107.550781 C 215.515625 108.519531 214.839844 109.035156 213.851562 108.816406 L 213.042969 108.640625 L 213.8125 109.320312 C 214.699219 110.097656 216.25 110.074219 217.050781 109.273438 C 217.367188 108.957031 217.578125 108.097656 217.609375 106.996094 C 217.65625 105.242188 217.652344 105.230469 216.609375 105.128906 C 215.578125 105.03125 215.558594 104.996094 215.332031 102.878906 C 215.117188 100.878906 215.3125 97.910156 215.679688 97.542969 C 215.765625 97.453125 216.203125 97.777344 216.648438 98.257812 C 217.460938 99.132812 218.289062 99.382812 218.617188 98.851562 C 218.8125 98.53125 218.464844 97.234375 217.710938 95.492188 C 216.902344 93.605469 217.40625 93.292969 219.628906 94.308594 C 221.066406 94.96875 221.65625 95.089844 222.136719 94.832031 C 222.484375 94.648438 222.765625 94.375 222.765625 94.226562 C 222.765625 93.480469 221.472656 91.554688 220.066406 90.203125 C 219.195312 89.367188 218.480469 88.582031 218.480469 88.457031 C 218.480469 88.332031 218.199219 87.828125 217.851562 87.335938 C 215.761719 84.382812 217.304688 84.164062 220.886719 86.90625 C 227.390625 91.894531 229.359375 93.726562 229.359375 94.789062 L 229.359375 95.585938 L 228.226562 94.722656 C 226.902344 93.710938 226.378906 93.59375 227.183594 94.484375 C 227.597656 94.941406 227.640625 95.148438 227.339844 95.246094 C 227.101562 95.328125 227.414062 95.75 228.09375 96.269531 C 229.210938 97.121094 229.296875 97.136719 230.292969 96.636719 C 230.921875 96.324219 231.621094 96.210938 232.074219 96.351562 C 233.039062 96.65625 234.917969 98.714844 236.863281 101.605469 C 238.625 104.222656 241.8125 111.386719 242.210938 113.625 C 242.355469 114.445312 242.882812 116.601562 243.382812 118.414062 C 244.253906 121.582031 244.300781 122.132812 244.539062 132.585938 C 244.675781 138.570312 244.886719 144.5 245.003906 145.769531 C 245.242188 148.316406 246.117188 152.542969 246.488281 152.957031 C 246.621094 153.101562 246.816406 152.28125 246.921875 151.132812 C 247.03125 149.984375 247.460938 148.308594 247.878906 147.40625 C 248.609375 145.828125 248.640625 145.457031 248.640625 137.199219 C 248.640625 129.777344 248.535156 127.992188 247.863281 123.851562 C 246.835938 117.523438 245.183594 111.625 243.363281 107.8125 C 242.550781 106.101562 241.882812 104.496094 241.882812 104.246094 C 241.882812 103.433594 237.972656 98.570312 234.691406 95.300781 C 232.9375 93.550781 229.828125 90.722656 227.785156 89.011719 C 225.742188 87.304688 223.851562 85.570312 223.578125 85.15625 C 223.085938 84.402344 221.5 83.480469 221.207031 83.773438 C 221.035156 83.945312 220.757812 83.738281 218.917969 82.078125 C 218.265625 81.488281 217.632812 81.003906 217.519531 81.003906 C 217.402344 81.003906 217.042969 80.566406 216.726562 80.027344 C 216.15625 79.058594 216.15625 79.046875 216.921875 78.851562 C 217.929688 78.601562 222.519531 80.167969 224.28125 81.367188 C 225.542969 82.226562 226.851562 83.59375 228.054688 85.3125 C 228.492188 85.9375 228.671875 85.988281 229.292969 85.65625 C 229.890625 85.335938 230.015625 84.980469 230.015625 83.632812 C 230.015625 82.183594 229.9375 81.996094 229.320312 81.996094 C 228.933594 81.996094 228.117188 81.550781 227.496094 81.007812 C 225.945312 79.644531 224.367188 78.894531 221.28125 78.058594 C 217.753906 77.101562 216.917969 76.753906 216.6875 76.15625 C 215.886719 74.066406 221.75 73.960938 223.882812 76.023438 C 225.039062 77.148438 225.972656 77.34375 226.285156 76.527344 C 226.605469 75.6875 225.558594 73.894531 224.527344 73.511719 C 223.691406 73.207031 222.851562 72.902344 222.011719 72.605469 C 221.140625 72.296875 220.207031 71.699219 219.929688 71.277344 C 219.65625 70.859375 218.859375 70.285156 218.160156 70.007812 C 217.460938 69.726562 216.792969 69.34375 216.675781 69.152344 C 216.425781 68.75 217.832031 68.152344 219.039062 68.152344 C 220.164062 68.152344 222.082031 66.9375 222.4375 66.003906 C 222.621094 65.527344 223.292969 65.042969 224.308594 64.664062 C 226.628906 63.796875 227.378906 63.234375 227.378906 62.363281 C 227.378906 60.621094 225.175781 60.167969 221.222656 61.101562 C 219.558594 61.492188 217.953125 61.589844 215.035156 61.472656 C 211.472656 61.332031 211.050781 61.253906 210.628906 60.617188 C 210.371094 60.230469 209.949219 59.910156 209.6875 59.910156 C 209.425781 59.910156 209.304688 59.765625 209.417969 59.582031 C 209.53125 59.402344 210.402344 59.253906 211.355469 59.253906 C 213.773438 59.253906 216.324219 58.429688 217.144531 57.386719 C 217.964844 56.34375 218.078125 54.058594 217.324219 53.769531 C 217.027344 53.652344 216.304688 54.050781 215.519531 54.757812 C 213.84375 56.273438 213.09375 56.441406 209.84375 56.027344 C 207.242188 55.695312 207.136719 55.644531 205.5 54.007812 L 203.824219 52.332031 L 205.816406 52.332031 C 207.390625 52.332031 208.027344 52.167969 208.863281 51.550781 C 210.433594 50.394531 209.664062 49.988281 205.726562 49.894531 C 203.070312 49.832031 202.242188 49.683594 201.078125 49.054688 C 200.007812 48.480469 198.9375 48.25 196.710938 48.125 C 195.089844 48.03125 193.761719 47.816406 193.761719 47.644531 C 193.761719 47.476562 194.503906 46.484375 195.410156 45.441406 C 196.316406 44.398438 197.058594 43.433594 197.058594 43.292969 C 197.058594 42.679688 195.636719 41.125 195.074219 41.125 C 194.347656 41.125 192.679688 42.570312 193.015625 42.90625 C 193.144531 43.035156 192.992188 43.039062 192.679688 42.921875 C 192.371094 42.800781 192.113281 42.582031 192.113281 42.433594 C 192.113281 42.289062 191.335938 41.910156 190.386719 41.59375 C 187.730469 40.710938 183.328125 40.875 180.996094 41.941406 C 179.363281 42.6875 178.273438 42.976562 178.273438 42.65625 C 178.273438 42.074219 179.160156 40.148438 179.710938 39.542969 C 180.296875 38.894531 180.324219 38.738281 179.910156 38.476562 C 179.265625 38.070312 178.679688 38.101562 177.226562 38.621094 M 191.125 44.636719 C 190.308594 45.066406 189.585938 45.605469 189.519531 45.828125 C 189.449219 46.050781 189.089844 46.566406 188.71875 46.976562 L 188.042969 47.71875 L 188.945312 47.71875 C 190.230469 47.71875 191.003906 47.21875 192.125 45.671875 C 193.660156 43.550781 193.496094 43.378906 191.125 44.636719 M 290.003906 45.113281 C 285.890625 46.035156 282.429688 47.261719 280.238281 48.574219 C 276.621094 50.738281 272.652344 55.242188 270.671875 59.417969 C 269.855469 61.144531 269.734375 61.773438 269.746094 64.363281 C 269.753906 66.597656 269.90625 67.613281 270.367188 68.480469 C 271.40625 70.449219 272.9375 72.171875 274.066406 72.644531 C 275.417969 73.207031 278.164062 73.230469 278.878906 72.683594 C 280.5625 71.398438 279.339844 68.601562 276.828125 67.988281 C 275.699219 67.714844 275.207031 67.375 274.71875 66.535156 C 272.4375 62.628906 276.933594 55.484375 283.90625 51.941406 C 287.871094 49.925781 294.421875 47.058594 295.0625 47.058594 C 295.578125 47.058594 296.921875 45.835938 296.921875 45.367188 C 296.921875 45.230469 296.21875 45.023438 295.359375 44.90625 C 294.496094 44.792969 293.570312 44.648438 293.296875 44.589844 C 293.027344 44.53125 291.542969 44.765625 290.003906 45.113281 M 169.589844 64.667969 C 168.019531 65.867188 166.253906 66.871094 165.832031 66.808594 C 165.449219 66.75 164.097656 69.476562 164.097656 70.308594 C 164.097656 70.765625 164.347656 71.105469 164.757812 71.214844 C 166.246094 71.601562 165.09375 74.742188 163.464844 74.742188 C 163.113281 74.742188 162.535156 75.113281 162.179688 75.566406 C 161.378906 76.585938 161.148438 76.609375 161.351562 75.648438 C 161.46875 75.089844 161.433594 75.03125 161.199219 75.402344 C 161.03125 75.675781 160.796875 76.621094 160.683594 77.503906 C 160.570312 78.390625 160.171875 79.601562 159.800781 80.199219 C 158.992188 81.515625 159.191406 82.707031 160.382812 83.640625 C 160.980469 84.113281 161.15625 84.496094 161.019531 85.039062 C 160.917969 85.449219 160.957031 87.417969 161.105469 89.417969 C 161.332031 92.472656 161.53125 93.359375 162.367188 95.019531 C 162.910156 96.105469 163.914062 98.621094 164.589844 100.617188 C 165.269531 102.609375 166.25 105.152344 166.773438 106.265625 C 168.691406 110.351562 172.816406 113.824219 176.84375 114.742188 C 178.875 115.207031 179.167969 115.195312 181.523438 114.566406 C 182.90625 114.195312 184.753906 113.769531 185.632812 113.617188 C 187.9375 113.210938 189.84375 111.953125 191.710938 109.601562 C 193.472656 107.386719 194.121094 105.757812 194.910156 101.605469 C 195.765625 97.101562 196.621094 94.4375 197.398438 93.851562 C 198.019531 93.382812 198.089844 93.113281 197.894531 91.949219 C 197.652344 90.523438 198.261719 85.675781 198.75 85.140625 C 199.3125 84.527344 198.789062 79.605469 197.972656 77.832031 C 197.792969 77.445312 196.328125 75.558594 194.714844 73.640625 C 193.105469 71.71875 191.785156 70.007812 191.785156 69.832031 C 191.785156 69.269531 189.519531 67.097656 189.164062 67.316406 C 188.972656 67.4375 188.816406 67.960938 188.816406 68.484375 C 188.816406 69.730469 188.195312 71.066406 187.53125 71.253906 C 185.175781 71.90625 184.882812 71.863281 184.285156 70.761719 C 183.433594 69.183594 180.652344 66.140625 179.117188 65.105469 L 177.777344 64.199219 L 177.542969 65.269531 C 177.335938 66.257812 177.132812 67.246094 176.933594 68.234375 C 176.726562 69.277344 176.429688 70.128906 176.269531 70.128906 C 175.925781 70.128906 174.976562 68.375 174.976562 67.742188 C 174.976562 67.496094 174.382812 66.664062 173.65625 65.886719 C 172.933594 65.109375 172.339844 64.261719 172.339844 64.003906 C 172.339844 63.199219 171.128906 63.492188 169.589844 64.667969 M 178.304688 68.347656 C 177.605469 69.238281 177.382812 71.378906 177.820312 73.011719 C 178.039062 73.835938 178.882812 73.976562 180.023438 73.375 C 181.375 72.664062 181.453125 71.667969 180.179688 71.335938 C 179.585938 71.179688 179.519531 70.96875 179.667969 69.660156 C 179.890625 67.6875 179.285156 67.101562 178.304688 68.347656 M 250.25 70.308594 C 249.570312 71.339844 249.773438 75.367188 250.628906 77.804688 C 251.910156 81.464844 255.6875 84.160156 261.003906 85.207031 C 263.496094 85.695312 263.585938 85.746094 263.777344 86.761719 C 264.226562 89.171875 266.722656 91.683594 270.535156 93.558594 C 276.417969 96.453125 285.785156 96.058594 288.527344 92.800781 C 289.984375 91.070312 289.554688 87.835938 287.636719 86.042969 C 286.941406 85.394531 282.433594 83.3125 281.726562 83.3125 C 281.574219 83.3125 281.21875 83.761719 280.9375 84.308594 C 280.367188 85.410156 280.289062 85.335938 282.65625 85.941406 C 284.933594 86.523438 285.785156 88.425781 284.230469 89.445312 C 283.117188 90.171875 275.332031 90.296875 273.359375 89.617188 C 270.808594 88.742188 268.910156 86.738281 268.910156 84.925781 C 268.910156 84.527344 269.296875 83.410156 269.769531 82.441406 C 270.589844 80.765625 270.605469 80.636719 270.09375 79.851562 C 269.675781 79.214844 269.273438 79.027344 268.304688 79.027344 C 266.902344 79.027344 266.460938 79.320312 265.164062 81.089844 C 264.140625 82.492188 263.53125 82.59375 260.738281 81.851562 C 257.125 80.890625 254.765625 79.1875 253.667969 76.753906 C 253.128906 75.554688 253.050781 74.914062 253.234375 73.058594 C 253.503906 70.335938 253.148438 69.46875 251.765625 69.46875 C 251.089844 69.46875 250.628906 69.726562 250.25 70.308594 M 296.191406 70.578125 C 295.878906 70.894531 294.925781 71.019531 293.027344 70.992188 C 290.945312 70.960938 290.238281 71.070312 289.996094 71.449219 C 289.371094 72.417969 290.730469 73 294.191406 73.246094 C 297.964844 73.515625 300.378906 74.433594 301.507812 76.019531 C 302.125 76.886719 302.253906 77.535156 302.300781 80.078125 L 302.363281 83.101562 L 300.714844 84.015625 C 297.570312 85.753906 296.84375 86.015625 295.792969 85.792969 C 293.121094 85.226562 292.078125 85.222656 291.863281 85.777344 C 291.375 87.046875 292.75 87.921875 295.234375 87.929688 C 295.710938 87.933594 296.859375 88.367188 297.785156 88.898438 C 301.84375 91.226562 303.582031 95.519531 302.839844 101.386719 C 302.234375 106.203125 298.660156 110.53125 292.308594 114.140625 C 290.226562 115.324219 287.59375 116.582031 286.457031 116.933594 C 283.777344 117.761719 276.699219 118.257812 267.980469 118.230469 C 264.230469 118.214844 260.914062 118.300781 260.609375 118.417969 C 260.046875 118.636719 259.460938 120.921875 259.816406 121.503906 C 261.042969 123.480469 275.246094 123.703125 284.242188 121.886719 C 293.941406 119.921875 298.085938 117.953125 302.277344 113.308594 C 306.09375 109.078125 307.851562 104.816406 307.921875 99.628906 C 307.964844 96.371094 307.949219 96.296875 306.503906 93.269531 C 305.285156 90.714844 304.78125 90.019531 303.453125 89.070312 C 302.582031 88.441406 301.867188 87.722656 301.867188 87.472656 C 301.867188 87.222656 302.320312 86.832031 302.875 86.601562 C 304.96875 85.734375 306.8125 82.058594 306.8125 78.753906 C 306.8125 76.296875 306.003906 73.875 304.738281 72.53125 C 302.96875 70.652344 297.390625 69.378906 296.191406 70.578125 M 66.046875 77.261719 C 64.777344 77.527344 62.234375 78.257812 60.390625 78.882812 C 58.550781 79.507812 56.523438 80.015625 55.886719 80.015625 C 54.207031 80.015625 53.578125 80.3125 54.046875 80.878906 C 54.257812 81.128906 54.59375 81.335938 54.800781 81.335938 C 55.007812 81.335938 55.949219 81.855469 56.890625 82.488281 C 57.832031 83.125 58.875 83.640625 59.207031 83.640625 C 59.535156 83.640625 61.0625 83.132812 62.597656 82.507812 C 66.179688 81.050781 70.394531 80.570312 75.761719 81.003906 C 77.832031 81.171875 79.597656 81.242188 79.679688 81.160156 C 79.964844 80.875 78.71875 79.78125 77.105469 78.90625 C 75.304688 77.925781 70.9375 76.707031 69.371094 76.75 C 68.8125 76.761719 67.316406 76.992188 66.046875 77.261719 M 202.210938 84.039062 C 202.101562 84.636719 202.023438 86.28125 202.03125 87.691406 C 202.046875 89.75 201.910156 90.5 201.34375 91.460938 C 200.953125 92.121094 200.597656 92.96875 200.550781 93.34375 C 200.453125 94.121094 199.636719 96.101562 198.699219 97.847656 C 198.347656 98.5 197.824219 100.046875 197.539062 101.285156 C 197.25 102.523438 196.667969 104.140625 196.242188 104.878906 C 195.816406 105.617188 195.292969 106.886719 195.082031 107.703125 C 194.09375 111.527344 194.109375 111.5 191.011719 114.15625 C 189.363281 115.566406 186.855469 117.375 185.433594 118.175781 L 182.851562 119.625 L 179.328125 119.515625 L 175.800781 119.402344 L 172.890625 117.480469 C 171.121094 116.3125 169.785156 115.636719 169.472656 115.757812 C 168.640625 116.074219 169.128906 118.34375 170.363281 119.902344 C 171.523438 121.363281 172.652344 125.046875 172.664062 127.390625 C 172.667969 129.003906 173.105469 132.128906 174.007812 137.054688 C 174.359375 138.96875 174.644531 141.074219 174.644531 141.734375 C 174.644531 142.390625 174.785156 143.015625 174.957031 143.121094 C 175.125 143.226562 175.960938 142.234375 176.808594 140.914062 C 177.660156 139.597656 179.261719 137.257812 180.375 135.71875 C 182.527344 132.726562 184.3125 129.867188 187.160156 124.839844 C 189.789062 120.210938 191.984375 117.023438 194.179688 114.65625 C 195.9375 112.765625 196.121094 112.433594 195.960938 111.457031 C 195.847656 110.742188 196.007812 109.90625 196.433594 109.023438 C 196.792969 108.285156 197.359375 106.578125 197.695312 105.230469 C 198.035156 103.882812 198.535156 102.554688 198.8125 102.277344 C 199.085938 102 199.488281 101.21875 199.703125 100.535156 C 200.351562 98.492188 201.433594 96.496094 201.890625 96.496094 C 202.296875 96.496094 202.429688 96.160156 202.816406 94.191406 C 202.902344 93.734375 203.269531 92.179688 203.632812 90.730469 C 203.992188 89.277344 204.285156 87.5 204.277344 86.773438 C 204.261719 83.816406 202.644531 81.675781 202.210938 84.039062 M 156.480469 90.304688 C 156.265625 90.703125 156.078125 92.164062 156.058594 93.546875 L 156.023438 96.0625 L 157.613281 97.925781 C 158.488281 98.953125 159.34375 99.792969 159.511719 99.792969 C 160.121094 99.792969 159.789062 98.386719 158.660156 96.210938 C 157.679688 94.316406 157.507812 93.652344 157.507812 91.777344 C 157.507812 89.515625 157.167969 89.023438 156.480469 90.304688 M 199.097656 91.742188 C 198.199219 92.375 198.132812 93.53125 198.996094 93.53125 C 199.425781 93.53125 199.675781 93.214844 199.820312 92.488281 C 200.078125 91.195312 200 91.113281 199.097656 91.742188 M 223.558594 109.921875 C 222.992188 110.488281 222.980469 110.75 223.492188 111.261719 C 224.097656 111.867188 224.480469 111.734375 224.25 110.996094 C 224.109375 110.558594 224.210938 110.269531 224.554688 110.136719 C 224.839844 110.027344 225.074219 109.832031 225.074219 109.699219 C 225.074219 109.285156 224.042969 109.4375 223.558594 109.921875 M 222.105469 113.058594 C 222.105469 113.285156 221.875 113.902344 221.601562 114.433594 C 221.101562 115.386719 221.109375 115.40625 222.675781 116.808594 C 223.539062 117.585938 224.34375 118.226562 224.464844 118.234375 C 224.582031 118.242188 224.730469 117.570312 224.796875 116.738281 C 224.960938 114.65625 224.039062 112.644531 222.921875 112.644531 C 222.472656 112.644531 222.105469 112.832031 222.105469 113.058594 M 316.605469 119.597656 C 316.285156 119.789062 315.632812 120.5625 315.15625 121.320312 C 313.640625 123.730469 310.5625 127.1875 308.027344 129.328125 C 306.597656 130.53125 306.414062 131.777344 307.542969 132.566406 C 308.609375 133.316406 310.71875 133.207031 312.125 132.335938 C 314.414062 130.917969 320.160156 123.253906 320.335938 121.378906 C 320.457031 120.125 320.320312 119.925781 319.089844 119.585938 C 317.578125 119.164062 317.351562 119.167969 316.605469 119.597656 M 118.945312 121.203125 C 117.949219 121.535156 115.574219 122.175781 113.671875 122.625 C 104.53125 124.78125 98.140625 128.988281 94.058594 135.539062 C 92.027344 138.800781 91.257812 141.320312 91.257812 144.738281 C 91.257812 147.707031 91.679688 148.699219 93.164062 149.265625 C 94.582031 149.804688 94.957031 149.070312 95.0625 145.550781 C 95.292969 137.625 100.191406 131.492188 109.058594 128.035156 C 110.234375 127.574219 113.128906 126.597656 115.484375 125.859375 C 117.839844 125.121094 120.558594 124.0625 121.519531 123.507812 C 123.03125 122.636719 123.257812 122.375 123.167969 121.609375 C 123.078125 120.847656 122.898438 120.710938 121.910156 120.65625 C 121.277344 120.621094 119.941406 120.867188 118.945312 121.203125 M 295.441406 147.765625 C 293.445312 149.117188 291.074219 150.5 290.167969 150.84375 C 287.210938 151.960938 273.109375 155.757812 269.734375 156.34375 C 267.921875 156.660156 265.476562 157.316406 264.296875 157.804688 C 262.328125 158.621094 262.15625 158.769531 262.222656 159.625 C 262.367188 161.542969 262.351562 161.535156 266.132812 161.28125 C 269.859375 161.03125 280.070312 159.054688 285.71875 157.488281 C 287.621094 156.960938 289.777344 156.4375 290.511719 156.324219 C 292.269531 156.050781 295.027344 154.636719 298.992188 151.972656 C 302.484375 149.625 303.1875 148.886719 303.1875 147.574219 C 303.1875 146.140625 302.476562 145.53125 300.6875 145.414062 C 299.148438 145.316406 298.886719 145.433594 295.441406 147.765625 M 96.753906 146.484375 C 95.972656 147.261719 96.878906 147.914062 100.875 149.449219 C 101.71875 149.773438 102.339844 150.15625 102.253906 150.292969 C 102.167969 150.433594 102.246094 150.550781 102.429688 150.550781 C 102.613281 150.550781 103.214844 151.03125 103.765625 151.621094 C 105.988281 153.992188 104.457031 156.550781 100.054688 157.816406 C 97.019531 158.691406 96.761719 158.835938 96.375 159.925781 C 96.109375 160.667969 96.167969 160.914062 96.6875 161.292969 C 97.035156 161.546875 97.804688 161.753906 98.398438 161.753906 C 99.453125 161.753906 99.5 161.816406 100.191406 164.09375 C 101.132812 167.199219 100.960938 170.382812 99.703125 173.136719 C 99.210938 174.207031 98.558594 175.371094 98.25 175.71875 C 97.152344 176.949219 90.621094 179.59375 85.953125 180.695312 C 80.382812 182.007812 76.144531 180.472656 73.089844 176.027344 C 72.25 174.8125 71.945312 174.609375 70.957031 174.609375 C 69.792969 174.609375 68.1875 175.851562 68.1875 176.75 C 68.1875 177.714844 64.214844 181.105469 61.066406 182.828125 C 56.9375 185.085938 56.707031 185.28125 56.90625 186.402344 C 57.125 187.621094 57.914062 188.453125 58.847656 188.453125 C 59.753906 188.453125 64.519531 186.164062 66.207031 184.921875 C 66.84375 184.453125 67.898438 183.5625 68.554688 182.941406 L 69.746094 181.816406 L 71.90625 183.453125 C 73.09375 184.351562 74.929688 185.433594 75.988281 185.855469 C 77.726562 186.550781 78.351562 186.613281 82.527344 186.539062 C 88.8125 186.425781 90.230469 186.34375 90.082031 186.105469 C 90.011719 185.992188 90.65625 185.707031 91.511719 185.472656 C 93.839844 184.835938 98.742188 182.628906 100.066406 181.617188 C 101.601562 180.449219 104.351562 176.496094 104.8125 174.800781 C 105.488281 172.316406 105.210938 168.78125 104.019531 164.679688 C 103.414062 162.597656 102.972656 160.726562 103.042969 160.519531 C 103.109375 160.316406 103.9375 159.890625 104.875 159.582031 C 108.546875 158.371094 109.191406 157.144531 108.074219 153.527344 C 107.226562 150.792969 106.722656 150.105469 104.402344 148.507812 C 102.097656 146.921875 97.527344 145.710938 96.753906 146.484375 M 67.035156 154.054688 C 58.742188 155.75 54.238281 158.527344 50.371094 164.328125 C 49.242188 166.023438 48.28125 167.070312 47.476562 167.488281 C 44.0625 169.257812 38.394531 174.816406 36.648438 178.101562 C 36.082031 179.171875 35.292969 181.132812 34.890625 182.460938 C 34.261719 184.550781 34.183594 185.40625 34.316406 188.886719 C 34.492188 193.414062 35.035156 195.273438 37.164062 198.558594 C 38.628906 200.828125 40.910156 202.445312 45.925781 204.769531 C 50.230469 206.765625 53.144531 207.183594 58.777344 206.609375 C 63.164062 206.164062 66.972656 205.058594 70.839844 203.113281 C 74.511719 201.261719 76.828125 198.554688 77.316406 195.535156 C 77.46875 194.597656 77.335938 194.253906 76.492188 193.410156 C 75.679688 192.59375 75.21875 192.40625 74.03125 192.40625 C 72.367188 192.40625 71.78125 192.898438 71.167969 194.804688 C 70.671875 196.34375 69.421875 197.867188 68.078125 198.5625 C 67.519531 198.851562 65.808594 199.511719 64.273438 200.03125 C 62.742188 200.546875 61.117188 201.214844 60.664062 201.511719 C 59.675781 202.15625 57.542969 202.023438 52.339844 200.984375 C 45.921875 199.707031 42.296875 197.175781 40.050781 192.40625 C 39.214844 190.625 39.023438 189.757812 38.910156 187.238281 C 38.640625 181.121094 40.9375 176.523438 46.460938 172.117188 C 48.511719 170.480469 48.785156 170.355469 49.617188 170.671875 C 51.21875 171.28125 51.878906 170.835938 53.347656 168.164062 C 55.792969 163.703125 58.566406 161.394531 63.566406 159.65625 C 66.121094 158.765625 66.78125 158.675781 70.832031 158.652344 L 75.285156 158.625 L 77.421875 160.160156 C 80.160156 162.125 81.59375 163.648438 83.496094 166.617188 C 84.808594 168.664062 85.164062 169.007812 85.96875 169.007812 C 86.488281 169.007812 86.988281 168.792969 87.089844 168.519531 C 87.285156 168.015625 86.832031 161.972656 86.539062 161.097656 C 86.445312 160.824219 86.285156 160.199219 86.175781 159.710938 C 86.046875 159.113281 85.601562 158.636719 84.839844 158.277344 C 84.214844 157.980469 83.734375 157.585938 83.773438 157.398438 C 83.8125 157.214844 82.433594 156.339844 80.714844 155.457031 L 77.582031 153.847656 L 72.636719 153.882812 C 69.917969 153.90625 67.398438 153.980469 67.035156 154.054688 M 133.492188 186.449219 C 133.269531 186.585938 133.234375 187.03125 133.394531 187.640625 C 133.582031 188.359375 134.09375 188.855469 135.320312 189.523438 C 136.289062 190.046875 137.800781 191.359375 138.925781 192.652344 C 141.539062 195.660156 141.476562 195.601562 144.128906 197.753906 C 150.097656 202.605469 154.796875 206.023438 164.265625 212.40625 C 166.621094 213.996094 170.105469 216.539062 172.007812 218.054688 C 176.207031 221.402344 177.355469 222.035156 178.109375 221.410156 C 179.339844 220.386719 179.320312 219.851562 178.023438 219.070312 C 177.34375 218.660156 175.898438 217.632812 174.8125 216.78125 C 172.722656 215.152344 171.386719 214.386719 170.03125 214.042969 C 168.515625 213.660156 152.691406 201.3125 153.257812 200.957031 C 153.746094 200.648438 149.003906 196.644531 145.714844 194.585938 C 144.941406 194.101562 143.105469 192.636719 141.640625 191.324219 C 140.175781 190.015625 138.320312 188.449219 137.523438 187.839844 C 136.046875 186.714844 134.128906 186.050781 133.492188 186.449219 M 220.632812 212.832031 C 220.523438 213.003906 221.367188 214.085938 222.507812 215.230469 C 225.996094 218.742188 227.605469 222.511719 229.5 231.644531 C 232.167969 244.476562 233.054688 246.636719 237.351562 250.746094 C 240.367188 253.625 242.03125 254.675781 243.613281 254.691406 C 244.589844 254.699219 244.6875 254.484375 244.210938 253.3125 C 244.042969 252.898438 243.824219 252.167969 243.722656 251.695312 C 243.621094 251.21875 243.015625 250.074219 242.378906 249.144531 C 240.773438 246.808594 239.507812 244.234375 238.070312 240.363281 C 236.296875 235.59375 232.957031 228.21875 230.105469 222.785156 C 227.898438 218.582031 227.316406 217.753906 224.832031 215.285156 C 222.234375 212.703125 221.113281 212.050781 220.632812 212.832031 M 181.664062 214.289062 C 179.261719 214.800781 178.867188 215.300781 180.464844 215.816406 C 181.164062 216.039062 181.902344 216.359375 182.113281 216.527344 C 182.351562 216.714844 182.578125 216.699219 182.710938 216.484375 C 183.035156 215.957031 183.546875 216.070312 183.546875 216.667969 C 183.546875 216.976562 183.359375 217.125 183.101562 217.027344 C 182.859375 216.933594 182.453125 216.992188 182.195312 217.152344 C 181.855469 217.367188 181.960938 217.445312 182.597656 217.449219 C 183.074219 217.453125 183.636719 217.664062 183.84375 217.914062 C 184.320312 218.488281 183.582031 219.3125 182.011719 219.972656 C 180.914062 220.429688 180.738281 220.628906 178.726562 223.71875 C 176.292969 227.449219 176.28125 227.5 176.375 232.773438 C 176.421875 235.40625 176.488281 237.558594 176.527344 237.558594 C 176.5625 237.558594 176.953125 237.398438 177.394531 237.195312 C 178.238281 236.808594 178.589844 235.636719 178.597656 233.171875 C 178.601562 231.515625 179.105469 230.640625 180.054688 230.640625 C 181.289062 230.640625 181.609375 231.941406 181.195312 235.253906 C 181.003906 236.792969 180.84375 238.722656 180.839844 239.539062 C 180.828125 242.164062 183.527344 246.953125 185.667969 248.097656 C 186.402344 248.492188 186.625 248.453125 187.738281 247.722656 C 189.371094 246.652344 189.9375 246.464844 190.480469 246.796875 C 190.855469 247.03125 190.859375 247.210938 190.496094 247.890625 C 189.933594 248.941406 190.199219 249.328125 191.789062 249.757812 C 192.890625 250.054688 193.285156 250.003906 194.390625 249.441406 C 195.109375 249.074219 195.789062 248.621094 195.90625 248.433594 C 196.023438 248.246094 196.972656 247.660156 198.019531 247.132812 C 199.066406 246.605469 200.164062 245.800781 200.460938 245.347656 C 200.867188 244.726562 201.386719 244.476562 202.574219 244.328125 C 205.308594 243.980469 206.441406 243.542969 207.550781 242.394531 C 208.148438 241.78125 210.515625 238.488281 212.816406 235.078125 L 217 228.878906 L 219.6875 227.371094 C 224.027344 224.9375 223.917969 225.046875 223.441406 223.597656 C 222.878906 221.898438 220.058594 217.75 218.582031 216.457031 C 217.050781 215.109375 214.34375 213.835938 213.003906 213.832031 C 212.4375 213.832031 211.265625 214.144531 210.398438 214.527344 C 209.269531 215.027344 208.445312 215.171875 207.472656 215.039062 C 206.265625 214.878906 203.558594 215.355469 199.363281 216.476562 C 198.621094 216.675781 198.171875 216.671875 198.101562 216.460938 C 198.042969 216.285156 197.109375 216.136719 196.03125 216.136719 C 194.757812 216.136719 192.6875 215.734375 190.136719 214.984375 C 186.0625 213.789062 184.574219 213.667969 181.664062 214.289062 M 184.113281 221.328125 C 183.105469 222.445312 182.191406 225.109375 182.292969 226.640625 C 182.453125 229.054688 183.089844 228.6875 184.71875 225.246094 C 186.019531 222.503906 186.152344 222.015625 185.785156 221.425781 C 185.269531 220.601562 184.796875 220.574219 184.113281 221.328125 M 98.332031 227.46875 C 98.183594 228.265625 98.355469 229.15625 98.941406 230.613281 C 99.820312 232.785156 99.582031 232.851562 97.851562 230.914062 C 97.304688 230.300781 96.644531 229.960938 95.886719 229.902344 C 94.296875 229.78125 94.242188 230.53125 95.6875 232.675781 C 96.335938 233.636719 96.863281 234.535156 96.863281 234.675781 C 96.863281 235.304688 98.765625 237.503906 99.058594 237.210938 C 99.253906 237.015625 100.71875 238.285156 103.035156 240.675781 C 108.167969 245.957031 112.316406 248.765625 114.984375 248.765625 C 116.78125 248.765625 118.707031 249.785156 120.980469 251.9375 C 122.949219 253.800781 123.296875 253.917969 125.289062 253.363281 C 127.429688 252.769531 126.945312 251.65625 123.203125 248.585938 C 121.886719 247.507812 119.777344 245.6875 118.511719 244.546875 C 117.246094 243.402344 115.234375 241.957031 114.035156 241.332031 C 110.929688 239.71875 106.816406 237.128906 105.722656 236.09375 C 104.394531 234.839844 101.191406 230.128906 100.28125 228.085938 C 99.386719 226.082031 98.636719 225.847656 98.332031 227.46875 M 190.925781 228.550781 C 188.929688 229.503906 187.828125 230.710938 187.828125 231.957031 C 187.828125 232.480469 187.683594 232.996094 187.507812 233.105469 C 186.707031 233.601562 184.863281 236.882812 184.863281 237.816406 C 184.863281 239.21875 185.167969 239.867188 185.820312 239.867188 C 186.871094 239.867188 187.171875 239.136719 187.171875 236.585938 C 187.171875 234.375 187.265625 233.992188 188.007812 233.191406 C 188.46875 232.695312 189.015625 232.289062 189.222656 232.289062 C 189.433594 232.289062 190.613281 231.675781 191.847656 230.929688 C 193.5625 229.894531 194.089844 229.398438 194.089844 228.828125 C 194.089844 227.738281 192.855469 227.632812 190.925781 228.550781 M 298.152344 232.113281 C 297.378906 233.082031 297.09375 233.226562 296.277344 233.066406 C 294.351562 232.679688 292.035156 235.386719 292.5 237.480469 C 292.910156 239.335938 293.027344 239.539062 293.683594 239.539062 C 294.199219 239.539062 294.300781 239.402344 294.113281 238.960938 C 293.609375 237.757812 293.5625 236.863281 293.957031 235.910156 C 294.183594 235.367188 294.476562 234.925781 294.609375 234.925781 C 294.824219 234.925781 296.265625 239.019531 296.265625 239.628906 C 296.265625 239.761719 295.960938 239.867188 295.585938 239.867188 C 295.214844 239.867188 294.996094 240.011719 295.105469 240.1875 C 295.390625 240.648438 294.253906 240.824219 290.332031 240.929688 C 287.089844 241.019531 286.789062 241.085938 285.535156 242 C 284.492188 242.765625 283.902344 243.628906 282.839844 245.953125 C 282.09375 247.59375 281.386719 249.636719 281.269531 250.496094 C 281.15625 251.359375 280.960938 252.066406 280.835938 252.074219 C 280.710938 252.078125 279.328125 252.117188 277.757812 252.15625 C 273.808594 252.253906 273.222656 252.914062 272.683594 257.851562 C 272.261719 261.695312 274.492188 264.855469 277.863281 265.175781 C 279.089844 265.296875 279.625 265.195312 280.109375 264.757812 C 280.679688 264.238281 280.957031 264.222656 282.820312 264.585938 C 284.789062 264.972656 284.988281 264.953125 286.800781 264.144531 C 287.871094 263.667969 289.539062 262.5 290.617188 261.46875 C 291.671875 260.464844 292.695312 259.644531 292.894531 259.644531 C 293.089844 259.644531 293.785156 260.292969 294.4375 261.085938 C 295.625 262.535156 301.078125 266.71875 303.84375 268.300781 C 304.660156 268.765625 305.933594 269.308594 306.675781 269.503906 C 308.378906 269.949219 310.402344 272.265625 311.808594 275.363281 C 312.71875 277.371094 312.785156 277.761719 312.578125 279.730469 C 312.449219 280.917969 312.214844 282.136719 312.054688 282.4375 C 311.652344 283.191406 309.441406 284.375 306.316406 285.496094 C 304.867188 286.019531 302.417969 287.042969 300.878906 287.769531 C 297.707031 289.269531 295.003906 289.898438 290.003906 290.292969 C 286.53125 290.566406 282.558594 291.351562 281.289062 292.011719 C 280.507812 292.417969 277.445312 295.164062 277.039062 295.820312 C 276.671875 296.414062 277.378906 297.21875 278.269531 297.21875 C 278.664062 297.21875 279.792969 296.933594 280.785156 296.589844 C 281.777344 296.246094 284.371094 295.714844 286.550781 295.40625 C 291.097656 294.765625 293.851562 295.042969 295.160156 296.273438 C 296.238281 297.285156 297.320312 297.007812 302.976562 294.273438 C 309.703125 291.015625 312.445312 290.46875 311.941406 292.476562 C 311.550781 294.027344 313.175781 294.628906 315.796875 293.902344 C 316.679688 293.65625 317.421875 293.078125 318.351562 291.898438 C 319.5 290.445312 319.664062 290.023438 319.664062 288.523438 C 319.664062 287.003906 319.769531 286.75 320.570312 286.277344 C 321.390625 285.792969 321.816406 285.785156 324.9375 286.199219 C 326.84375 286.449219 329.4375 286.65625 330.707031 286.65625 C 333.105469 286.65625 339.871094 285.863281 340.4375 285.511719 C 341.15625 285.070312 340.769531 283.078125 339.734375 281.902344 C 338.734375 280.761719 338.664062 280.738281 336.210938 280.738281 C 333.960938 280.738281 333.617188 280.824219 332.804688 281.601562 L 331.902344 282.46875 L 327.449219 282.230469 L 322.996094 281.988281 L 323.191406 278.132812 C 323.320312 275.550781 323.257812 273.886719 322.996094 273.09375 C 322.539062 271.714844 319.578125 269.226562 317.121094 268.160156 C 312.292969 266.0625 311.363281 263.449219 313.679688 258.5 C 314.253906 257.277344 314.722656 255.925781 314.722656 255.5 C 314.722656 254.550781 315.730469 253.949219 316.855469 254.230469 C 317.507812 254.394531 317.644531 254.59375 317.503906 255.160156 C 317.28125 256.042969 318.328125 257.46875 319.726562 258.191406 C 320.882812 258.789062 321.175781 258.644531 320.679688 257.714844 C 320.179688 256.78125 320.234375 256.605469 320.917969 256.972656 C 321.957031 257.527344 326.8125 258.65625 328.171875 258.65625 C 329.726562 258.65625 335.566406 257.492188 336.484375 257 C 338.113281 256.128906 338.65625 252.832031 337.433594 251.273438 C 337.054688 250.792969 335.859375 249.796875 334.777344 249.0625 C 333.214844 248.003906 332.421875 247.691406 330.933594 247.558594 C 328.609375 247.351562 325.132812 246.269531 324.558594 245.574219 C 324.269531 245.226562 324.160156 244.339844 324.234375 242.933594 C 324.328125 241.050781 324.238281 240.667969 323.40625 239.464844 C 321.910156 237.308594 318.546875 236.25 313.164062 236.246094 C 310.863281 236.242188 310.765625 236.210938 310.28125 235.269531 C 309.320312 233.414062 303.800781 230.96875 300.570312 230.96875 C 299.25 230.96875 298.957031 231.109375 298.152344 232.113281 M 164.265625 231.582031 C 163.539062 231.699219 162.945312 231.972656 162.945312 232.195312 C 162.945312 232.546875 165.796875 234.59375 166.285156 234.59375 C 166.386719 234.59375 166.863281 234.867188 167.34375 235.203125 C 168.550781 236.039062 172.808594 237.375 173.464844 237.121094 C 174.707031 236.644531 174.75 234.414062 173.527344 233.941406 C 166.914062 231.386719 166.363281 231.246094 164.265625 231.582031 M 68.519531 231.972656 C 66.734375 232.480469 62.617188 234.261719 60.925781 235.261719 C 56.171875 238.0625 54.042969 240.078125 49.648438 245.9375 C 45.792969 251.070312 45.710938 251.261719 46.878906 252.265625 C 48.355469 253.539062 49.917969 253.128906 51.171875 251.140625 C 53.277344 247.804688 59.613281 241.675781 64.761719 237.996094 C 66.554688 236.714844 68.511719 235.050781 69.113281 234.304688 C 70.058594 233.121094 70.144531 232.863281 69.769531 232.339844 C 69.457031 231.898438 69.125 231.800781 68.519531 231.972656 M 132.457031 231.816406 C 132.457031 232.570312 134.535156 235.253906 135.117188 235.253906 C 135.625 235.253906 135.46875 234.628906 134.683594 233.515625 C 133.664062 232.0625 132.457031 231.144531 132.457031 231.816406 M 194.257812 234.847656 C 193.148438 235.453125 192.574219 235.992188 192.503906 236.488281 C 192.421875 237.058594 192.5625 237.230469 193.09375 237.230469 C 194.5 237.230469 197.984375 234.960938 197.582031 234.308594 C 197.203125 233.699219 196.011719 233.890625 194.257812 234.847656 M 179.050781 236.324219 C 179.160156 236.734375 179.253906 237.289062 179.261719 237.5625 C 179.269531 237.953125 179.328125 237.964844 179.546875 237.621094 C 179.890625 237.078125 179.625 235.582031 179.183594 235.582031 C 179.003906 235.582031 178.941406 235.917969 179.050781 236.324219 M 198.707031 238.917969 C 198.253906 239.097656 197.382812 239.71875 196.769531 240.296875 C 196.027344 241 195.605469 241.210938 195.503906 240.933594 C 195.355469 240.523438 192.617188 243.152344 191.550781 244.726562 C 190.808594 245.828125 191.203125 246.539062 192.324219 246.113281 C 193.515625 245.660156 194.019531 244.925781 194.277344 243.257812 C 194.496094 241.84375 195.179688 240.878906 195.546875 241.46875 C 195.789062 241.863281 198.265625 241.566406 199.367188 241.011719 C 200.488281 240.445312 201.453125 239.328125 201.191406 238.898438 C 200.925781 238.472656 199.8125 238.480469 198.707031 238.917969 M 239.246094 248.636719 C 239.246094 248.988281 241.179688 251.734375 241.429688 251.734375 C 241.640625 251.734375 241.070312 250.75 240.09375 249.445312 C 239.628906 248.820312 239.246094 248.457031 239.246094 248.636719 M 301.234375 249.964844 C 300.074219 251.4375 300.328125 251.945312 303.105469 253.722656 C 304.507812 254.621094 305.820312 255.359375 306.019531 255.359375 C 306.621094 255.359375 307.523438 252.691406 307.09375 252.171875 C 306.894531 251.929688 306.605469 251.734375 306.457031 251.734375 C 306.019531 251.734375 303.707031 250.085938 303.417969 249.566406 C 303.003906 248.828125 301.980469 249.015625 301.234375 249.964844 M 311.097656 250.886719 C 311.097656 252.191406 313.667969 253.101562 315.367188 252.398438 C 315.894531 252.179688 316.488281 252.097656 316.679688 252.214844 C 316.871094 252.335938 317.027344 252.203125 317.027344 251.925781 C 317.027344 251.097656 315.246094 250.414062 313.089844 250.414062 C 311.582031 250.414062 311.097656 250.53125 311.097656 250.886719 M 298.90625 253.464844 C 298.914062 254.105469 301.910156 257.214844 303.085938 257.800781 C 304.429688 258.46875 305.367188 258.46875 305.621094 257.804688 C 305.910156 257.050781 305.949219 257.09375 304.421875 256.402344 C 303.652344 256.050781 302.214844 255.15625 301.230469 254.410156 C 299.339844 252.972656 298.898438 252.796875 298.90625 253.464844 M 297.0625 255.578125 C 296.570312 257.132812 296.238281 257.664062 295.777344 257.664062 C 295.171875 257.664062 295.117188 256.648438 295.6875 256.042969 C 295.914062 255.800781 295.691406 255.863281 295.195312 256.179688 C 294.695312 256.492188 294.285156 256.96875 294.285156 257.234375 C 294.285156 258.234375 296.367188 260.671875 298.496094 262.160156 C 299.714844 263.011719 301.160156 264.113281 301.703125 264.605469 C 302.246094 265.101562 303.011719 265.601562 303.40625 265.71875 C 304.078125 265.917969 304.132812 265.796875 304.324219 263.695312 C 304.4375 262.464844 304.59375 261.042969 304.675781 260.539062 C 304.78125 259.875 304.664062 259.5625 304.25 259.417969 C 301.527344 258.460938 298.925781 256.984375 298.527344 256.164062 C 297.976562 255.03125 297.316406 254.769531 297.0625 255.578125 M 142.964844 256.890625 C 142.652344 257.265625 142.394531 259.304688 142.136719 263.402344 C 141.425781 274.671875 140.503906 281.359375 140.335938 276.453125 C 140.261719 274.171875 140.261719 274.140625 140.578125 271.789062 C 140.820312 269.976562 140.421875 264.585938 140.046875 264.585938 C 139.554688 264.585938 139.386719 266.734375 138.972656 278.429688 C 138.53125 290.765625 138.453125 306.617188 138.828125 306.992188 C 139.253906 307.417969 139.371094 306.867188 139.71875 302.796875 C 139.914062 300.542969 140.351562 297.363281 140.699219 295.734375 C 141.042969 294.101562 141.417969 291.953125 141.53125 290.953125 C 141.644531 289.957031 142.015625 288.105469 142.355469 286.835938 C 143.277344 283.421875 143.609375 280.054688 144.015625 270.09375 C 144.363281 261.511719 144.234375 256.347656 143.675781 256.347656 C 143.53125 256.347656 143.210938 256.59375 142.964844 256.890625 M 190.464844 260.65625 C 190.464844 261.679688 191.707031 268.550781 192.601562 272.496094 C 193.035156 274.402344 193.917969 278.703125 194.5625 282.054688 C 195.207031 285.410156 196.3125 290.082031 197.015625 292.4375 C 198.332031 296.828125 199.695312 302.421875 199.695312 303.441406 C 199.695312 303.753906 199.902344 304.292969 200.152344 304.640625 C 200.53125 305.160156 200.699219 305.195312 201.117188 304.847656 C 202.007812 304.109375 202.085938 302.09375 201.367188 298.320312 C 200.804688 295.378906 200.242188 292.433594 199.675781 289.492188 C 199.117188 286.570312 197.9375 282.035156 197.023438 279.273438 C 196.117188 276.542969 194.859375 272.160156 194.226562 269.53125 C 193.238281 265.402344 191.203125 259.972656 190.648438 259.972656 C 190.546875 259.972656 190.464844 260.28125 190.464844 260.65625 M 79.980469 262.542969 C 79.488281 262.601562 77.929688 263.457031 76.519531 264.441406 C 72.710938 267.101562 71.277344 267.921875 69.050781 268.730469 C 66.371094 269.699219 66.402344 269.929688 69.398438 271.539062 C 69.808594 271.757812 70.59375 271.832031 71.234375 271.710938 C 72.476562 271.476562 75.945312 269.476562 79 267.226562 C 80.925781 265.808594 82.601562 263.597656 82.222656 262.980469 C 81.980469 262.585938 81.070312 262.410156 79.980469 262.542969 M 207.246094 279.777344 C 207.019531 283.285156 207.566406 290.4375 208.4375 295.402344 C 208.691406 296.855469 209.207031 300.191406 209.578125 302.820312 C 210.679688 310.566406 211.160156 312.183594 213.617188 316.386719 C 215.015625 318.785156 215.3125 319.019531 216.421875 318.609375 C 217.371094 318.253906 217.347656 317.488281 216.332031 315.839844 C 215.503906 314.496094 215.25 313.035156 215.84375 313.035156 C 216.027344 313.035156 216.175781 312.65625 216.175781 312.195312 C 216.175781 311.730469 216.316406 311.4375 216.488281 311.546875 C 216.863281 311.777344 217.957031 310.222656 217.703125 309.816406 C 217.605469 309.660156 216.988281 307.390625 216.328125 304.773438 C 215.667969 302.160156 214.113281 297.421875 212.875 294.25 C 211.636719 291.078125 210.394531 287.585938 210.109375 286.484375 C 209.636719 284.648438 207.804688 279.835938 207.433594 279.46875 C 207.347656 279.378906 207.261719 279.519531 207.246094 279.777344 M 247.359375 279.683594 C 247.027344 280.21875 248.480469 282.0625 250.421875 283.570312 C 251.503906 284.410156 253.398438 286.300781 254.632812 287.769531 C 255.867188 289.238281 258.070312 291.707031 259.523438 293.25 C 260.976562 294.796875 263.589844 297.769531 265.332031 299.851562 C 267.070312 301.9375 268.957031 304.078125 269.523438 304.613281 C 271.359375 306.332031 270.722656 304.734375 267.933594 300.605469 C 264.757812 295.902344 258.367188 288.863281 252.570312 283.6875 C 247.859375 279.480469 247.605469 279.289062 247.359375 279.683594 M 246.734375 303.328125 C 243.398438 303.988281 243.199219 304.082031 243.199219 305 C 243.199219 306.390625 244.574219 307.433594 246.398438 307.429688 C 249.027344 307.421875 254.597656 305.53125 254.332031 304.734375 C 254.265625 304.542969 253.585938 304.035156 252.820312 303.605469 C 251.246094 302.71875 250.054688 302.664062 246.734375 303.328125 M 97.101562 318.316406 C 94.886719 319.898438 94.347656 320.113281 89.941406 321.164062 C 80.554688 323.402344 80.136719 323.433594 73.957031 322.410156 C 70.128906 321.773438 70.054688 321.746094 69.667969 320.867188 C 69.210938 319.820312 66.460938 319.621094 65.429688 320.558594 C 65.042969 320.910156 64.144531 321.300781 63.433594 321.425781 C 62.71875 321.554688 60.414062 322.160156 58.3125 322.769531 C 55.929688 323.460938 52.75 324.078125 49.882812 324.40625 C 44.015625 325.074219 44.128906 325.035156 44.128906 326.355469 C 44.128906 328.089844 44.875 328.488281 48.609375 328.730469 C 51.855469 328.945312 51.964844 328.925781 57.160156 327.378906 C 60.054688 326.519531 63.335938 325.449219 64.453125 325.003906 L 66.488281 324.195312 L 68.851562 325.046875 C 73.882812 326.859375 81.449219 327.597656 86.152344 326.730469 C 90.53125 325.921875 93.820312 324.980469 94.820312 324.246094 C 96.382812 323.101562 99.527344 322.230469 103.035156 321.96875 C 106.546875 321.707031 107.738281 321.199219 107.738281 319.957031 C 107.738281 319.339844 106.746094 318.308594 106.148438 318.308594 C 105.933594 318.308594 105.761719 318.148438 105.761719 317.949219 C 105.761719 317.710938 105.160156 317.65625 103.949219 317.785156 C 98.652344 318.355469 98.308594 318.359375 98.941406 317.859375 C 99.269531 317.597656 99.402344 317.300781 99.234375 317.195312 C 99.066406 317.09375 98.105469 317.59375 97.101562 318.316406 " fill-opacity="1" fill-rule="evenodd"/></svg>