<svg xmlns="http://www.w3.org/2000/svg" xmlns:xlink="http://www.w3.org/1999/xlink" width="500" zoomAndPan="magnify" viewBox="0 0 375 374.999991" height="500" preserveAspectRatio="xMidYMid meet" version="1.0"><defs><clipPath id="cd18f74802"><path d="M 41.058594 44.617188 L 334 44.617188 L 334 337.867188 L 41.058594 337.867188 Z M 41.058594 44.617188 " clip-rule="nonzero"/></clipPath><clipPath id="b6dd2611a3"><path d="M 119.851562 44.617188 L 255.144531 44.617188 C 256.433594 44.617188 257.722656 44.648438 259.007812 44.714844 C 260.296875 44.777344 261.582031 44.871094 262.867188 44.996094 C 264.148438 45.125 265.429688 45.28125 266.703125 45.472656 C 267.980469 45.660156 269.25 45.882812 270.515625 46.132812 C 271.78125 46.382812 273.039062 46.667969 274.289062 46.980469 C 275.539062 47.292969 276.78125 47.636719 278.015625 48.011719 C 279.25 48.386719 280.472656 48.789062 281.6875 49.222656 C 282.902344 49.660156 284.105469 50.121094 285.296875 50.617188 C 286.488281 51.109375 287.664062 51.632812 288.832031 52.183594 C 289.996094 52.734375 291.148438 53.3125 292.285156 53.921875 C 293.421875 54.53125 294.542969 55.164062 295.648438 55.828125 C 296.757812 56.492188 297.84375 57.179688 298.917969 57.898438 C 299.988281 58.613281 301.042969 59.355469 302.078125 60.125 C 303.113281 60.890625 304.132812 61.683594 305.128906 62.503906 C 306.125 63.320312 307.101562 64.164062 308.054688 65.027344 C 309.011719 65.894531 309.945312 66.785156 310.855469 67.695312 C 311.769531 68.609375 312.65625 69.542969 313.523438 70.496094 C 314.390625 71.453125 315.230469 72.429688 316.050781 73.425781 C 316.867188 74.421875 317.660156 75.4375 318.429688 76.472656 C 319.195312 77.507812 319.9375 78.5625 320.65625 79.636719 C 321.371094 80.707031 322.0625 81.796875 322.722656 82.902344 C 323.386719 84.007812 324.023438 85.128906 324.628906 86.269531 C 325.238281 87.40625 325.816406 88.554688 326.371094 89.722656 C 326.921875 90.886719 327.441406 92.066406 327.9375 93.257812 C 328.429688 94.449219 328.894531 95.652344 329.328125 96.867188 C 329.761719 98.078125 330.167969 99.304688 330.542969 100.539062 C 330.914062 101.773438 331.257812 103.015625 331.574219 104.265625 C 331.886719 105.515625 332.167969 106.773438 332.421875 108.039062 C 332.671875 109.304688 332.890625 110.574219 333.082031 111.847656 C 333.269531 113.125 333.429688 114.402344 333.554688 115.6875 C 333.679688 116.96875 333.777344 118.253906 333.839844 119.542969 C 333.902344 120.832031 333.933594 122.121094 333.933594 123.410156 L 333.933594 258.703125 C 333.933594 259.992188 333.902344 261.28125 333.839844 262.570312 C 333.777344 263.855469 333.679688 265.140625 333.554688 266.425781 C 333.429688 267.707031 333.269531 268.988281 333.082031 270.265625 C 332.890625 271.539062 332.671875 272.808594 332.421875 274.074219 C 332.167969 275.339844 331.886719 276.597656 331.574219 277.847656 C 331.257812 279.097656 330.914062 280.339844 330.542969 281.574219 C 330.167969 282.808594 329.761719 284.03125 329.328125 285.246094 C 328.894531 286.460938 328.429688 287.664062 327.9375 288.855469 C 327.441406 290.046875 326.921875 291.222656 326.371094 292.390625 C 325.816406 293.554688 325.238281 294.707031 324.628906 295.84375 C 324.023438 296.980469 323.386719 298.101562 322.726562 299.210938 C 322.0625 300.316406 321.371094 301.40625 320.65625 302.476562 C 319.9375 303.546875 319.195312 304.601562 318.429688 305.636719 C 317.660156 306.675781 316.867188 307.691406 316.050781 308.6875 C 315.230469 309.683594 314.390625 310.660156 313.523438 311.617188 C 312.65625 312.570312 311.769531 313.503906 310.855469 314.417969 C 309.945312 315.328125 309.011719 316.21875 308.054688 317.082031 C 307.101562 317.949219 306.125 318.789062 305.128906 319.609375 C 304.132812 320.425781 303.113281 321.21875 302.078125 321.988281 C 301.042969 322.757812 299.988281 323.5 298.917969 324.214844 C 297.84375 324.929688 296.757812 325.621094 295.648438 326.285156 C 294.542969 326.945312 293.421875 327.582031 292.285156 328.191406 C 291.148438 328.796875 289.996094 329.378906 288.832031 329.929688 C 287.664062 330.480469 286.488281 331.003906 285.296875 331.496094 C 284.105469 331.988281 282.902344 332.453125 281.6875 332.886719 C 280.472656 333.320312 279.25 333.726562 278.015625 334.101562 C 276.78125 334.476562 275.539062 334.820312 274.289062 335.132812 C 273.039062 335.445312 271.78125 335.726562 270.515625 335.980469 C 269.25 336.230469 267.980469 336.453125 266.703125 336.640625 C 265.429688 336.828125 264.148438 336.988281 262.867188 337.113281 C 261.582031 337.242188 260.296875 337.335938 259.007812 337.398438 C 257.722656 337.460938 256.433594 337.492188 255.144531 337.492188 L 119.851562 337.492188 C 118.5625 337.492188 117.273438 337.460938 115.984375 337.398438 C 114.695312 337.335938 113.410156 337.242188 112.128906 337.113281 C 110.84375 336.988281 109.566406 336.828125 108.289062 336.640625 C 107.011719 336.453125 105.742188 336.230469 104.480469 335.980469 C 103.214844 335.726562 101.957031 335.445312 100.707031 335.132812 C 99.453125 334.820312 98.210938 334.476562 96.976562 334.101562 C 95.746094 333.726562 94.519531 333.320312 93.304688 332.886719 C 92.09375 332.453125 90.890625 331.988281 89.699219 331.496094 C 88.507812 331.003906 87.328125 330.480469 86.164062 329.929688 C 84.996094 329.378906 83.84375 328.796875 82.707031 328.191406 C 81.570312 327.582031 80.449219 326.945312 79.34375 326.285156 C 78.238281 325.621094 77.148438 324.929688 76.078125 324.214844 C 75.003906 323.5 73.949219 322.757812 72.914062 321.988281 C 71.878906 321.21875 70.863281 320.425781 69.867188 319.609375 C 68.867188 318.789062 67.894531 317.949219 66.9375 317.082031 C 65.980469 316.21875 65.046875 315.328125 64.136719 314.417969 C 63.226562 313.503906 62.335938 312.570312 61.46875 311.617188 C 60.605469 310.660156 59.761719 309.683594 58.945312 308.6875 C 58.125 307.691406 57.332031 306.675781 56.566406 305.636719 C 55.796875 304.601562 55.054688 303.546875 54.339844 302.476562 C 53.621094 301.40625 52.933594 300.316406 52.269531 299.210938 C 51.605469 298.101562 50.96875 296.980469 50.363281 295.84375 C 49.753906 294.707031 49.175781 293.554688 48.625 292.390625 C 48.074219 291.222656 47.550781 290.046875 47.058594 288.855469 C 46.5625 287.664062 46.097656 286.460938 45.664062 285.246094 C 45.230469 284.03125 44.828125 282.808594 44.453125 281.574219 C 44.078125 280.339844 43.734375 279.097656 43.421875 277.847656 C 43.105469 276.597656 42.824219 275.339844 42.574219 274.074219 C 42.320312 272.808594 42.101562 271.539062 41.910156 270.265625 C 41.722656 268.988281 41.566406 267.707031 41.4375 266.425781 C 41.3125 265.140625 41.21875 263.855469 41.152344 262.570312 C 41.089844 261.28125 41.058594 259.992188 41.058594 258.703125 L 41.058594 123.410156 C 41.058594 122.121094 41.089844 120.832031 41.152344 119.542969 C 41.21875 118.253906 41.3125 116.96875 41.4375 115.6875 C 41.566406 114.402344 41.722656 113.125 41.910156 111.847656 C 42.101562 110.574219 42.320312 109.304688 42.574219 108.039062 C 42.824219 106.773438 43.105469 105.515625 43.421875 104.265625 C 43.734375 103.015625 44.078125 101.773438 44.453125 100.539062 C 44.828125 99.304688 45.230469 98.078125 45.664062 96.867188 C 46.097656 95.652344 46.5625 94.449219 47.058594 93.257812 C 47.550781 92.066406 48.074219 90.886719 48.625 89.722656 C 49.175781 88.554688 49.753906 87.40625 50.363281 86.269531 C 50.96875 85.128906 51.605469 84.007812 52.269531 82.902344 C 52.933594 81.796875 53.621094 80.707031 54.339844 79.636719 C 55.054688 78.5625 55.796875 77.507812 56.566406 76.472656 C 57.332031 75.4375 58.125 74.421875 58.945312 73.425781 C 59.761719 72.429688 60.605469 71.453125 61.46875 70.496094 C 62.335938 69.542969 63.226562 68.609375 64.136719 67.695312 C 65.046875 66.785156 65.980469 65.894531 66.9375 65.027344 C 67.894531 64.164062 68.867188 63.320312 69.867188 62.503906 C 70.863281 61.683594 71.878906 60.890625 72.914062 60.125 C 73.949219 59.355469 75.003906 58.613281 76.078125 57.898438 C 77.148438 57.179688 78.238281 56.492188 79.34375 55.828125 C 80.449219 55.164062 81.570312 54.53125 82.707031 53.921875 C 83.84375 53.3125 84.996094 52.734375 86.164062 52.183594 C 87.328125 51.632812 88.507812 51.109375 89.699219 50.617188 C 90.890625 50.121094 92.09375 49.660156 93.304688 49.222656 C 94.519531 48.789062 95.746094 48.386719 96.976562 48.011719 C 98.210938 47.636719 99.453125 47.292969 100.707031 46.980469 C 101.957031 46.667969 103.214844 46.382812 104.480469 46.132812 C 105.742188 45.882812 107.011719 45.660156 108.289062 45.472656 C 109.566406 45.28125 110.84375 45.125 112.128906 44.996094 C 113.410156 44.871094 114.695312 44.777344 115.984375 44.714844 C 117.273438 44.648438 118.5625 44.617188 119.851562 44.617188 Z M 119.851562 44.617188 " clip-rule="nonzero"/></clipPath><linearGradient x1="21.351883" gradientTransform="matrix(0, -1.240996, 1.240996, 0, 41.059319, 337.493616)" y1="-15.46229" x2="214.648934" gradientUnits="userSpaceOnUse" y2="251.461717" id="b0fb92e1d4"><stop stop-opacity="1" stop-color="rgb(95.942688%, 95.883179%, 95.73822%)" offset="0"/><stop stop-opacity="1" stop-color="rgb(95.805359%, 95.732117%, 95.547485%)" offset="0.03125"/><stop stop-opacity="1" stop-color="rgb(95.532227%, 95.428467%, 95.169067%)" offset="0.0625"/><stop stop-opacity="1" stop-color="rgb(95.259094%, 95.126343%, 94.790649%)" offset="0.09375"/><stop stop-opacity="1" stop-color="rgb(94.987488%, 94.822693%, 94.412231%)" offset="0.125"/><stop stop-opacity="1" stop-color="rgb(94.714355%, 94.520569%, 94.033813%)" offset="0.15625"/><stop stop-opacity="1" stop-color="rgb(94.441223%, 94.216919%, 93.655396%)" offset="0.1875"/><stop stop-opacity="1" stop-color="rgb(94.168091%, 93.914795%, 93.276978%)" offset="0.21875"/><stop stop-opacity="1" stop-color="rgb(93.896484%, 93.611145%, 92.897034%)" offset="0.25"/><stop stop-opacity="1" stop-color="rgb(93.623352%, 93.309021%, 92.518616%)" offset="0.28125"/><stop stop-opacity="1" stop-color="rgb(93.35022%, 93.005371%, 92.140198%)" offset="0.3125"/><stop stop-opacity="1" stop-color="rgb(93.077087%, 92.703247%, 91.76178%)" offset="0.34375"/><stop stop-opacity="1" stop-color="rgb(92.803955%, 92.399597%, 91.383362%)" offset="0.375"/><stop stop-opacity="1" stop-color="rgb(92.532349%, 92.097473%, 91.004944%)" offset="0.40625"/><stop stop-opacity="1" stop-color="rgb(92.259216%, 91.793823%, 90.626526%)" offset="0.420009"/><stop stop-opacity="1" stop-color="rgb(92.123413%, 91.642761%, 90.437317%)" offset="0.4375"/><stop stop-opacity="1" stop-color="rgb(91.986084%, 91.491699%, 90.246582%)" offset="0.46875"/><stop stop-opacity="1" stop-color="rgb(91.712952%, 91.188049%, 89.868164%)" offset="0.5"/><stop stop-opacity="1" stop-color="rgb(91.441345%, 90.885925%, 89.489746%)" offset="0.53125"/><stop stop-opacity="1" stop-color="rgb(91.168213%, 90.582275%, 89.111328%)" offset="0.5625"/><stop stop-opacity="1" stop-color="rgb(90.895081%, 90.280151%, 88.73291%)" offset="0.579991"/><stop stop-opacity="1" stop-color="rgb(90.759277%, 90.129089%, 88.543701%)" offset="0.59375"/><stop stop-opacity="1" stop-color="rgb(90.621948%, 89.976501%, 88.354492%)" offset="0.625"/><stop stop-opacity="1" stop-color="rgb(90.350342%, 89.674377%, 87.974548%)" offset="0.65625"/><stop stop-opacity="1" stop-color="rgb(90.077209%, 89.370728%, 87.59613%)" offset="0.6875"/><stop stop-opacity="1" stop-color="rgb(89.804077%, 89.068604%, 87.217712%)" offset="0.71875"/><stop stop-opacity="1" stop-color="rgb(89.538574%, 88.772583%, 86.84845%)" offset="0.75"/><stop stop-opacity="1" stop-color="rgb(89.408875%, 88.62915%, 86.669922%)" offset="1"/></linearGradient></defs><g clip-path="url(#cd18f74802)"><g clip-path="url(#b6dd2611a3)"><path fill="url(#b0fb92e1d4)" d="M 41.058594 337.492188 L 333.933594 337.492188 L 333.933594 44.617188 L 41.058594 44.617188 Z M 41.058594 337.492188 " fill-rule="nonzero"/></g></g><path fill="#7a5f44" d="M 194.089844 113.746094 L 197.019531 114.113281 L 195.921875 115.210938 L 195.191406 114.84375 L 195.921875 115.574219 L 198.484375 115.574219 L 198.121094 116.304688 L 197.386719 116.304688 L 197.019531 117.035156 L 198.851562 117.035156 L 202.515625 118.5 L 207.273438 119.960938 L 210.570312 121.058594 L 215.699219 123.984375 L 219.359375 125.8125 L 226.683594 133.121094 L 228.148438 134.585938 L 228.878906 133.855469 L 230.710938 137.875 L 232.910156 144.820312 L 233.640625 148.113281 L 233.640625 154.328125 L 232.175781 158.347656 L 230.710938 162.371094 L 227.78125 170.046875 L 225.21875 172.972656 L 221.554688 178.089844 L 220.457031 179.554688 L 219.726562 179.1875 L 220.457031 177.726562 L 219.359375 177.359375 L 217.527344 178.820312 L 216.0625 180.285156 L 212.035156 182.476562 L 209.472656 183.574219 L 206.175781 185.769531 L 204.34375 186.5 L 203.613281 187.230469 L 202.148438 187.230469 L 202.148438 187.960938 L 199.949219 188.691406 L 197.019531 190.15625 L 193.726562 190.519531 L 194.824219 192.347656 L 199.21875 195.640625 L 201.78125 197.832031 L 203.613281 199.660156 L 206.910156 203.316406 L 211.304688 209.53125 L 213.5 212.820312 L 214.234375 214.285156 L 216.0625 216.113281 L 218.992188 220.132812 L 221.554688 222.691406 L 223.019531 225.253906 L 227.050781 230.003906 L 232.542969 235.488281 L 234.007812 236.949219 L 236.203125 238.414062 L 237.667969 239.511719 L 242.0625 240.972656 L 244.261719 242.433594 L 244.628906 244.261719 L 246.824219 244.992188 L 251.953125 244.992188 L 255.980469 243.898438 L 262.9375 240.242188 L 265.867188 238.777344 L 266.597656 239.144531 L 266.234375 240.242188 L 266.964844 241.703125 L 264.035156 244.261719 L 261.472656 246.089844 L 260.738281 246.089844 L 260.007812 248.285156 L 258.910156 249.382812 L 258.542969 250.476562 L 256.710938 251.574219 L 254.882812 255.597656 L 251.21875 256.328125 L 248.289062 256.328125 L 247.558594 258.519531 L 246.09375 260.347656 L 242.796875 261.078125 L 239.132812 261.078125 L 231.078125 258.519531 L 227.050781 256.328125 L 223.019531 252.671875 L 220.09375 250.113281 L 217.894531 248.285156 L 214.597656 244.261719 L 214.234375 243.164062 L 213.5 243.164062 L 210.9375 239.511719 L 210.9375 238.777344 L 210.203125 238.777344 L 207.273438 234.027344 L 204.710938 230.003906 L 202.515625 225.617188 L 199.949219 221.960938 L 197.753906 218.671875 L 193.726562 212.089844 L 191.527344 208.433594 L 188.964844 205.511719 L 188.964844 204.777344 L 187.132812 204.046875 L 184.570312 202.585938 L 181.640625 200.757812 L 179.808594 200.390625 L 176.515625 201.488281 L 175.78125 202.21875 L 175.78125 205.875 L 176.515625 208.433594 L 177.613281 214.285156 L 177.980469 217.941406 L 177.246094 216.476562 L 177.246094 215.015625 L 176.515625 215.015625 L 177.980469 225.253906 L 179.078125 236.949219 L 179.808594 238.414062 L 180.175781 244.261719 L 179.078125 243.898438 L 179.808594 247.554688 L 180.910156 247.1875 L 181.273438 251.574219 L 179.078125 253.035156 L 178.34375 253.769531 L 173.21875 254.863281 L 172.121094 256.328125 L 172.484375 258.15625 L 175.78125 260.714844 L 180.542969 262.175781 L 182.007812 263.640625 L 180.910156 264.003906 L 180.910156 264.734375 L 179.808594 264.734375 L 179.808594 265.46875 L 177.613281 265.46875 L 179.078125 264.734375 L 173.21875 264.003906 L 166.625 264.003906 L 164.796875 263.273438 L 164.429688 262.90625 L 164.429688 259.984375 L 165.160156 257.425781 L 164.429688 257.058594 L 164.0625 255.960938 L 162.964844 255.597656 L 160.035156 255.597656 L 161.132812 255.230469 L 160.765625 253.769531 L 160.035156 252.671875 L 158.570312 253.035156 L 156.371094 257.425781 L 151.246094 258.15625 L 150.148438 258.886719 L 150.148438 261.445312 L 151.613281 264.371094 L 153.808594 266.5625 L 153.078125 268.027344 L 149.050781 269.488281 L 139.527344 269.488281 L 135.867188 268.390625 L 134.402344 267.296875 L 132.9375 266.5625 L 136.230469 265.46875 L 139.160156 265.46875 L 141.726562 265.101562 L 142.824219 264.003906 L 143.554688 259.984375 L 143.921875 256.691406 L 140.625 255.597656 L 138.796875 254.5 L 138.0625 251.210938 L 136.597656 249.746094 L 135.5 249.015625 L 133.667969 249.382812 L 132.9375 248.648438 L 132.203125 244.992188 L 129.273438 243.164062 L 127.441406 240.242188 L 128.175781 239.875 L 132.570312 240.242188 L 132.203125 237.683594 L 134.402344 236.21875 L 135.867188 236.949219 L 136.230469 237.316406 L 136.597656 239.875 L 138.429688 238.046875 L 141.359375 234.390625 L 142.824219 231.101562 L 143.921875 231.101562 L 145.753906 226.347656 L 146.484375 216.84375 L 147.949219 208.800781 L 146.121094 209.53125 L 141.726562 213.554688 L 138.796875 216.113281 L 135.132812 219.402344 L 132.9375 221.960938 L 131.105469 223.789062 L 126.34375 228.542969 L 125.246094 228.175781 L 125.613281 226.347656 L 128.175781 223.425781 L 132.570312 218.304688 L 134.765625 217.210938 L 135.867188 215.382812 L 139.160156 212.089844 L 142.089844 209.53125 L 143.191406 208.433594 L 143.921875 208.433594 L 143.921875 207.703125 L 145.019531 206.972656 L 145.386719 205.875 L 139.160156 209.164062 L 133.300781 212.089844 L 130.738281 213.917969 L 129.640625 213.917969 L 130.007812 212.089844 L 132.570312 209.898438 L 138.796875 206.605469 L 142.457031 204.414062 L 147.585938 201.855469 L 149.050781 200.757812 L 150.878906 196.371094 L 151.613281 195.273438 L 151.613281 193.445312 L 152.710938 193.445312 L 151.980469 190.886719 L 149.050781 188.328125 L 147.585938 184.671875 L 146.851562 183.941406 L 144.289062 182.84375 L 143.554688 180.648438 L 142.824219 176.628906 L 140.261719 175.167969 L 140.625 173.339844 L 142.089844 172.605469 L 144.65625 172.972656 L 146.121094 175.53125 L 147.585938 175.53125 L 147.949219 168.949219 L 147.21875 168.949219 L 147.585938 165.296875 L 148.316406 162.734375 L 149.050781 162.734375 L 149.414062 163.46875 L 150.515625 163.101562 L 153.078125 160.175781 L 154.175781 159.445312 L 154.90625 156.15625 L 157.105469 156.519531 L 158.203125 153.597656 L 157.105469 153.230469 L 157.835938 152.863281 L 157.472656 151.035156 L 157.472656 148.476562 L 158.570312 145.554688 L 157.105469 144.820312 L 156.738281 144.457031 L 156.738281 142.261719 L 158.9375 141.167969 L 160.402344 141.898438 L 160.765625 143.359375 L 163.695312 142.628906 L 166.625 142.992188 L 169.921875 145.1875 L 170.65625 147.015625 L 171.019531 151.769531 L 170.289062 155.789062 L 168.457031 158.347656 L 168.089844 159.445312 L 165.527344 159.078125 L 164.796875 160.542969 L 165.160156 162.734375 L 166.261719 163.46875 L 166.261719 164.199219 L 166.992188 164.199219 L 168.457031 167.121094 L 169.554688 170.046875 L 171.386719 171.875 L 172.484375 175.167969 L 172.851562 181.015625 L 173.949219 182.476562 L 175.414062 182.113281 L 176.148438 181.015625 L 176.878906 181.015625 L 177.246094 179.917969 L 179.445312 179.554688 L 178.710938 181.382812 L 176.878906 183.574219 L 176.148438 185.402344 L 181.273438 182.476562 L 184.203125 179.917969 L 185.667969 179.1875 L 187.5 179.554688 L 186.402344 181.746094 L 182.738281 183.941406 L 182.007812 183.941406 L 182.007812 184.671875 L 178.34375 187.230469 L 177.613281 187.230469 L 177.246094 189.789062 L 179.078125 189.058594 L 185.304688 188.691406 L 190.429688 190.15625 L 190.429688 189.425781 L 191.894531 188.691406 L 191.894531 187.597656 L 195.554688 185.769531 L 194.089844 186.132812 L 190.796875 187.960938 L 188.964844 187.960938 L 190.796875 186.5 L 194.457031 184.671875 L 195.554688 184.304688 L 195.554688 183.574219 L 193.359375 184.671875 L 192.625 184.304688 L 194.457031 182.84375 L 195.191406 182.84375 L 195.191406 182.113281 L 196.289062 182.113281 L 197.753906 180.648438 L 200.683594 178.820312 L 201.78125 177.726562 L 202.515625 177.726562 L 203.246094 176.261719 L 208.007812 171.511719 L 211.667969 166.027344 L 213.5 161.640625 L 214.964844 155.789062 L 215.332031 152.5 L 215.332031 147.015625 L 214.234375 141.167969 L 210.9375 137.144531 L 208.375 134.21875 L 203.246094 130.929688 L 199.585938 129.832031 L 191.527344 128.003906 L 187.132812 127.640625 L 177.613281 129.46875 L 168.089844 132.027344 L 162.597656 134.21875 L 157.472656 136.777344 L 152.710938 139.703125 L 150.515625 141.53125 L 149.78125 142.628906 L 149.050781 142.628906 L 148.316406 144.089844 L 146.851562 144.820312 L 146.484375 145.917969 L 143.554688 148.476562 L 142.089844 149.941406 L 138.0625 152.132812 L 132.9375 152.132812 L 127.078125 149.941406 L 124.511719 148.113281 L 123.78125 145.917969 L 123.78125 142.628906 L 125.613281 139.703125 L 129.640625 136.414062 L 133.667969 133.121094 L 138.796875 129.46875 L 144.289062 125.8125 L 149.414062 122.519531 L 155.273438 119.597656 L 164.0625 116.671875 L 169.554688 115.574219 L 172.851562 115.941406 L 175.78125 115.574219 L 175.78125 116.304688 L 177.613281 115.941406 L 179.808594 115.941406 L 181.640625 115.574219 L 190.796875 115.574219 L 194.089844 114.476562 Z M 156.007812 160.542969 L 153.078125 164.199219 L 153.441406 165.296875 L 154.90625 164.5625 L 157.105469 161.640625 L 157.105469 160.542969 Z M 175.050781 189.425781 L 173.585938 191.253906 L 173.949219 192.714844 L 176.148438 191.253906 L 175.78125 189.425781 Z M 176.515625 247.554688 L 176.148438 247.917969 L 176.148438 251.574219 L 177.246094 251.574219 L 177.246094 248.648438 Z M 180.175781 249.382812 L 180.542969 250.84375 Z M 165.160156 261.8125 L 165.894531 263.273438 L 168.457031 263.273438 L 168.824219 262.542969 L 166.625 261.8125 Z M 165.160156 261.8125 " fill-opacity="1" fill-rule="nonzero"/><path fill="#aa7b56" d="M 194.089844 113.746094 L 197.019531 114.113281 L 195.921875 115.210938 L 195.191406 114.84375 L 195.921875 115.574219 L 198.484375 115.574219 L 198.121094 116.304688 L 197.386719 116.304688 L 197.019531 117.035156 L 198.851562 117.035156 L 202.515625 118.5 L 207.273438 119.960938 L 210.570312 121.058594 L 215.699219 123.984375 L 219.359375 125.8125 L 226.683594 133.121094 L 228.148438 134.585938 L 228.878906 133.855469 L 230.710938 137.875 L 232.910156 144.820312 L 233.640625 148.113281 L 233.640625 154.328125 L 232.175781 158.347656 L 230.710938 162.371094 L 227.78125 170.046875 L 225.21875 172.972656 L 221.554688 178.089844 L 220.457031 179.554688 L 219.726562 179.1875 L 220.457031 177.726562 L 219.359375 177.359375 L 217.527344 178.820312 L 216.0625 180.285156 L 212.035156 182.476562 L 209.472656 183.574219 L 206.175781 185.769531 L 204.34375 186.5 L 203.613281 187.230469 L 202.148438 187.230469 L 202.148438 187.960938 L 199.949219 188.691406 L 197.019531 190.15625 L 193.726562 190.519531 L 193.359375 191.253906 L 190.429688 190.15625 L 190.429688 189.425781 L 191.894531 188.691406 L 191.894531 187.597656 L 195.554688 185.769531 L 194.089844 186.132812 L 190.796875 187.960938 L 188.964844 187.960938 L 190.796875 186.5 L 194.457031 184.671875 L 195.554688 184.304688 L 195.554688 183.574219 L 193.359375 184.671875 L 192.625 184.304688 L 194.457031 182.84375 L 195.191406 182.84375 L 195.191406 182.113281 L 196.289062 182.113281 L 197.753906 180.648438 L 200.683594 178.820312 L 201.78125 177.726562 L 202.515625 177.726562 L 203.246094 176.261719 L 208.007812 171.511719 L 211.667969 166.027344 L 213.5 161.640625 L 214.964844 155.789062 L 215.332031 152.5 L 215.332031 147.015625 L 214.234375 141.167969 L 210.9375 137.144531 L 208.375 134.21875 L 203.246094 130.929688 L 199.585938 129.832031 L 191.527344 128.003906 L 187.132812 127.640625 L 177.613281 129.46875 L 168.089844 132.027344 L 162.597656 134.21875 L 157.472656 136.777344 L 152.710938 139.703125 L 150.515625 141.53125 L 149.78125 142.628906 L 149.050781 142.628906 L 148.316406 144.089844 L 146.851562 144.820312 L 146.484375 145.917969 L 143.554688 148.476562 L 142.089844 149.941406 L 138.0625 152.132812 L 132.9375 152.132812 L 127.078125 149.941406 L 124.511719 148.113281 L 123.78125 145.917969 L 123.78125 142.628906 L 125.613281 139.703125 L 129.640625 136.414062 L 133.667969 133.121094 L 138.796875 129.46875 L 144.289062 125.8125 L 149.414062 122.519531 L 155.273438 119.597656 L 164.0625 116.671875 L 169.554688 115.574219 L 172.851562 115.941406 L 175.78125 115.574219 L 175.78125 116.304688 L 177.613281 115.941406 L 179.808594 115.941406 L 181.640625 115.574219 L 190.796875 115.574219 L 194.089844 114.476562 Z M 194.089844 113.746094 " fill-opacity="1" fill-rule="nonzero"/><path fill="#a47450" d="M 185.667969 179.1875 L 187.5 179.554688 L 186.402344 181.746094 L 182.738281 183.941406 L 182.007812 183.941406 L 182.007812 184.671875 L 178.34375 187.230469 L 177.613281 187.230469 L 177.246094 189.789062 L 179.078125 189.058594 L 185.304688 188.691406 L 191.160156 190.15625 L 193.359375 190.886719 L 196.289062 193.445312 L 199.585938 196.003906 L 201.78125 197.832031 L 203.613281 199.660156 L 206.910156 203.316406 L 211.304688 209.53125 L 213.5 212.820312 L 214.234375 214.285156 L 216.0625 216.113281 L 218.992188 220.132812 L 221.554688 222.691406 L 223.019531 225.253906 L 227.050781 230.003906 L 232.542969 235.488281 L 234.007812 236.949219 L 236.203125 238.414062 L 237.667969 239.511719 L 242.0625 240.972656 L 244.261719 242.433594 L 244.628906 244.261719 L 246.824219 244.992188 L 251.953125 244.992188 L 255.980469 243.898438 L 262.9375 240.242188 L 265.867188 238.777344 L 266.597656 239.144531 L 266.234375 240.242188 L 266.964844 241.703125 L 264.035156 244.261719 L 261.472656 246.089844 L 260.738281 246.089844 L 260.007812 248.285156 L 258.910156 249.382812 L 258.542969 250.476562 L 256.710938 251.574219 L 254.882812 255.597656 L 251.21875 256.328125 L 248.289062 256.328125 L 247.558594 258.519531 L 246.09375 260.347656 L 242.796875 261.078125 L 239.132812 261.078125 L 231.078125 258.519531 L 227.050781 256.328125 L 223.019531 252.671875 L 220.09375 250.113281 L 217.894531 248.285156 L 214.597656 244.261719 L 214.234375 243.164062 L 213.5 243.164062 L 210.9375 239.511719 L 210.9375 238.777344 L 210.203125 238.777344 L 207.273438 234.027344 L 204.710938 230.003906 L 202.515625 225.617188 L 199.949219 221.960938 L 197.753906 218.671875 L 193.726562 212.089844 L 191.527344 208.433594 L 188.964844 205.511719 L 188.964844 204.777344 L 187.132812 204.046875 L 184.570312 202.585938 L 181.640625 200.757812 L 179.808594 200.390625 L 176.515625 201.488281 L 175.050781 202.949219 L 173.585938 200.390625 L 171.753906 198.5625 L 171.386719 197.832031 L 173.585938 196.371094 L 174.316406 193.8125 L 175.050781 193.078125 L 174.316406 192.714844 L 175.78125 191.253906 L 175.78125 189.789062 L 174.683594 189.789062 L 172.851562 187.960938 L 172.121094 185.769531 L 172.121094 184.671875 L 173.949219 183.941406 L 173.949219 183.210938 L 175.78125 181.382812 L 176.878906 181.015625 L 177.246094 179.917969 L 179.445312 179.554688 L 178.710938 181.382812 L 176.878906 183.574219 L 176.148438 185.402344 L 181.273438 182.476562 L 184.203125 179.917969 Z M 185.667969 179.1875 " fill-opacity="1" fill-rule="nonzero"/><path fill="#7d5c3c" d="M 222.289062 224.886719 L 224.121094 226.714844 L 228.515625 231.46875 L 232.542969 235.488281 L 234.007812 236.949219 L 236.203125 238.414062 L 237.667969 239.511719 L 242.0625 240.972656 L 244.261719 242.433594 L 244.628906 244.261719 L 246.824219 244.992188 L 251.953125 244.992188 L 255.980469 243.898438 L 262.9375 240.242188 L 265.867188 238.777344 L 266.597656 239.144531 L 266.234375 240.242188 L 266.964844 241.703125 L 264.035156 244.261719 L 261.472656 246.089844 L 260.738281 246.089844 L 260.007812 248.285156 L 258.910156 249.382812 L 258.542969 250.476562 L 256.710938 251.574219 L 254.882812 255.597656 L 251.21875 256.328125 L 248.289062 256.328125 L 247.558594 258.519531 L 246.09375 260.347656 L 242.796875 261.078125 L 239.132812 261.078125 L 231.078125 258.519531 L 227.050781 256.328125 L 223.019531 252.671875 L 220.09375 250.113281 L 217.894531 248.285156 L 214.597656 244.261719 L 214.234375 243.53125 L 215.699219 244.261719 L 217.164062 244.261719 L 216.796875 243.164062 L 217.527344 243.164062 L 217.527344 242.433594 L 218.992188 242.070312 L 219.359375 243.164062 L 219.359375 241.339844 L 218.261719 239.875 L 217.894531 238.046875 L 217.164062 238.046875 L 216.0625 235.855469 L 214.964844 234.390625 L 214.964844 231.46875 L 216.429688 231.101562 L 217.164062 230.734375 L 216.0625 230.371094 L 216.0625 229.640625 L 217.527344 228.90625 L 218.261719 228.175781 L 219.726562 228.542969 L 219.726562 227.445312 L 220.457031 227.445312 L 220.824219 229.273438 L 221.921875 229.273438 L 221.921875 230.003906 L 223.386719 229.640625 L 221.921875 227.8125 L 221.191406 225.984375 L 221.921875 225.984375 Z M 222.289062 224.886719 " fill-opacity="1" fill-rule="nonzero"/><path fill="#7f5e3d" d="M 164.0625 116.671875 L 164.429688 117.402344 L 164.0625 118.132812 L 165.527344 118.5 L 167.359375 119.230469 L 167.359375 119.960938 L 168.457031 120.328125 L 168.824219 121.058594 L 168.824219 123.253906 L 168.089844 123.617188 L 167.359375 125.445312 L 166.625 125.445312 L 166.261719 126.175781 L 165.527344 126.175781 L 165.894531 127.273438 L 167.726562 126.542969 L 168.824219 126.90625 L 169.554688 127.640625 L 173.585938 127.640625 L 175.050781 127.273438 L 178.34375 127.273438 L 184.570312 127.640625 L 183.839844 128.371094 L 174.683594 130.199219 L 168.089844 132.027344 L 162.597656 134.21875 L 157.472656 136.777344 L 152.710938 139.703125 L 150.515625 141.53125 L 149.78125 142.628906 L 149.050781 142.628906 L 148.316406 144.089844 L 146.851562 144.820312 L 146.484375 145.917969 L 143.554688 148.476562 L 142.089844 149.941406 L 138.0625 152.132812 L 132.9375 152.132812 L 127.078125 149.941406 L 124.511719 148.113281 L 123.78125 145.917969 L 123.78125 142.628906 L 125.613281 139.703125 L 129.640625 136.414062 L 133.667969 133.121094 L 138.796875 129.46875 L 144.289062 125.8125 L 149.414062 122.519531 L 155.273438 119.597656 Z M 164.0625 116.671875 " fill-opacity="1" fill-rule="nonzero"/><path fill="#ac8464" d="M 171.753906 215.015625 L 172.484375 216.476562 L 174.683594 229.640625 L 174.683594 232.5625 L 175.414062 232.5625 L 175.050781 231.46875 L 175.414062 226.347656 L 176.148438 227.445312 L 176.148438 228.175781 L 177.613281 228.175781 L 178.34375 230.003906 L 179.078125 236.949219 L 179.808594 238.414062 L 180.175781 244.261719 L 179.078125 243.898438 L 179.808594 247.554688 L 180.910156 247.1875 L 181.273438 251.574219 L 179.078125 253.035156 L 178.34375 253.769531 L 173.21875 254.863281 L 172.121094 256.328125 L 172.484375 258.15625 L 175.78125 260.714844 L 180.542969 262.175781 L 182.007812 263.640625 L 180.910156 264.003906 L 180.910156 264.734375 L 179.808594 264.734375 L 179.808594 265.46875 L 177.613281 265.46875 L 179.078125 264.734375 L 173.21875 264.003906 L 166.625 264.003906 L 164.796875 263.273438 L 164.429688 262.90625 L 164.429688 259.984375 L 165.160156 257.425781 L 164.429688 257.058594 L 164.0625 255.960938 L 162.964844 255.597656 L 160.035156 255.597656 L 161.132812 255.230469 L 160.765625 253.769531 L 160.035156 252.671875 L 158.9375 252.304688 L 159.300781 250.84375 L 160.035156 250.84375 L 160.765625 248.648438 L 164.0625 242.433594 L 164.796875 239.875 L 163.332031 239.511719 L 162.964844 236.949219 L 164.0625 233.660156 L 163.695312 231.832031 L 164.0625 228.542969 L 164.429688 226.347656 L 166.261719 226.714844 L 168.089844 225.984375 L 168.824219 226.347656 L 169.554688 223.789062 L 170.289062 221.597656 L 171.019531 219.769531 L 171.386719 219.402344 Z M 176.515625 247.554688 L 176.148438 247.917969 L 176.148438 251.574219 L 177.246094 251.574219 L 177.246094 248.648438 Z M 180.175781 249.382812 L 180.542969 250.84375 Z M 165.160156 261.8125 L 165.894531 263.273438 L 168.457031 263.273438 L 168.824219 262.542969 L 166.625 261.8125 Z M 165.160156 261.8125 " fill-opacity="1" fill-rule="nonzero"/><path fill="#866649" d="M 167.359375 233.660156 L 169.191406 235.121094 L 171.386719 237.316406 L 171.753906 238.777344 L 172.484375 238.777344 L 172.851562 241.339844 L 174.683594 244.628906 L 175.414062 244.992188 L 175.414062 247.917969 L 174.683594 249.382812 L 174.316406 252.671875 L 172.484375 255.960938 L 172.121094 257.425781 L 173.949219 259.253906 L 175.78125 260.714844 L 180.542969 262.175781 L 182.007812 263.640625 L 180.910156 264.003906 L 180.910156 264.734375 L 179.808594 264.734375 L 179.808594 265.46875 L 177.613281 265.46875 L 179.078125 264.734375 L 173.21875 264.003906 L 166.625 264.003906 L 164.796875 263.273438 L 164.429688 262.90625 L 164.429688 259.984375 L 165.160156 257.425781 L 164.429688 257.058594 L 164.0625 255.960938 L 162.964844 255.597656 L 160.035156 255.597656 L 161.132812 255.230469 L 160.765625 253.769531 L 160.402344 252.304688 L 162.964844 252.671875 L 162.964844 249.382812 L 164.796875 243.898438 L 165.894531 239.511719 L 166.625 234.027344 Z M 165.160156 261.8125 L 165.894531 263.273438 L 168.457031 263.273438 L 168.824219 262.542969 L 166.625 261.8125 Z M 165.160156 261.8125 " fill-opacity="1" fill-rule="nonzero"/><path fill="#6e563d" d="M 158.9375 141.167969 L 160.402344 141.898438 L 160.765625 143.359375 L 163.695312 142.628906 L 166.625 142.992188 L 169.921875 145.1875 L 170.65625 147.015625 L 171.019531 151.769531 L 170.289062 155.789062 L 168.457031 158.347656 L 168.089844 159.445312 L 165.527344 159.078125 L 164.796875 160.542969 L 165.160156 162.734375 L 166.261719 163.46875 L 166.625 165.296875 L 165.527344 166.390625 L 164.0625 165.660156 L 161.867188 163.101562 L 160.402344 161.640625 L 160.402344 162.371094 L 158.9375 161.640625 L 157.835938 160.90625 L 156.007812 160.542969 L 155.640625 161.640625 L 154.90625 161.640625 L 155.273438 160.175781 L 155.640625 159.445312 L 154.175781 159.8125 L 154.90625 156.15625 L 157.105469 156.519531 L 158.203125 153.597656 L 157.105469 153.230469 L 157.835938 152.863281 L 157.472656 151.035156 L 157.472656 148.476562 L 158.570312 145.554688 L 157.105469 144.820312 L 156.738281 144.457031 L 156.738281 142.261719 Z M 158.9375 141.167969 " fill-opacity="1" fill-rule="nonzero"/><path fill="#92785e" d="M 150.148438 201.121094 L 150.515625 201.121094 L 150.515625 204.414062 L 149.414062 204.414062 L 148.683594 205.511719 L 151.246094 206.242188 L 151.980469 212.820312 L 152.34375 216.84375 L 153.441406 217.210938 L 153.808594 215.015625 L 154.542969 214.285156 L 156.371094 214.285156 L 156.371094 216.113281 L 153.078125 220.5 L 153.441406 221.230469 L 154.90625 220.132812 L 154.175781 221.597656 L 151.246094 225.253906 L 148.316406 228.542969 L 148.316406 227.445312 L 150.148438 225.253906 L 150.148438 224.519531 L 146.121094 228.90625 L 144.65625 230.003906 L 145.753906 226.347656 L 146.484375 216.84375 L 147.949219 208.800781 L 146.121094 209.53125 L 141.726562 213.554688 L 138.796875 216.113281 L 135.132812 219.402344 L 132.9375 221.960938 L 131.105469 223.789062 L 126.34375 228.542969 L 125.246094 228.175781 L 125.613281 226.347656 L 128.175781 223.425781 L 132.570312 218.304688 L 134.765625 217.210938 L 135.867188 215.382812 L 139.160156 212.089844 L 142.089844 209.53125 L 143.191406 208.433594 L 143.921875 208.433594 L 143.921875 207.703125 L 145.019531 206.972656 L 145.386719 205.875 L 139.160156 209.164062 L 133.300781 212.089844 L 130.738281 213.917969 L 129.640625 213.917969 L 130.007812 212.089844 L 132.570312 209.898438 L 138.796875 206.605469 L 142.457031 204.414062 L 147.585938 201.855469 L 148.683594 201.488281 L 149.050781 202.21875 Z M 150.148438 201.121094 " fill-opacity="1" fill-rule="nonzero"/><path fill="#ac7a54" d="M 136.597656 139.703125 L 137.695312 140.433594 L 138.429688 140.433594 L 138.796875 141.167969 L 139.527344 141.167969 L 139.160156 142.628906 L 140.625 142.628906 L 141.359375 141.898438 L 142.457031 140.800781 L 143.191406 142.992188 L 144.289062 142.261719 L 145.753906 143.359375 L 147.21875 142.992188 L 147.21875 142.261719 L 147.949219 142.261719 L 148.683594 143.726562 L 147.585938 144.820312 L 146.851562 144.820312 L 146.484375 145.917969 L 143.554688 148.476562 L 142.089844 149.941406 L 138.0625 152.132812 L 132.9375 152.132812 L 127.078125 149.941406 L 124.511719 148.113281 L 123.78125 145.917969 L 123.78125 142.628906 L 124.878906 140.433594 L 125.613281 140.800781 L 125.613281 141.53125 L 127.808594 142.261719 L 129.640625 142.992188 L 130.007812 141.53125 L 131.835938 141.898438 L 132.9375 140.800781 L 134.765625 142.261719 Z M 136.597656 139.703125 " fill-opacity="1" fill-rule="nonzero"/><path fill="#dfd8cd" d="M 193.726562 255.960938 L 195.554688 255.960938 L 195.921875 257.425781 L 194.089844 259.617188 L 193.359375 259.617188 L 194.457031 262.542969 L 193.726562 263.273438 L 192.992188 262.90625 L 192.625 261.445312 L 192.992188 257.058594 Z M 193.726562 255.960938 " fill-opacity="1" fill-rule="nonzero"/><path fill="#7b5a39" d="M 118.65625 155.789062 L 120.117188 156.15625 L 120.484375 156.519531 L 120.484375 158.347656 L 119.753906 159.078125 L 117.554688 159.078125 L 116.824219 158.347656 L 117.191406 156.519531 Z M 118.65625 155.789062 " fill-opacity="1" fill-rule="nonzero"/><path fill="#ba8b68" d="M 124.148438 152.132812 L 125.613281 152.132812 L 125.613281 152.863281 L 126.710938 153.230469 L 126.34375 154.328125 L 124.878906 154.691406 L 123.78125 152.5 Z M 124.148438 152.132812 " fill-opacity="1" fill-rule="nonzero"/><path fill="#86613f" d="M 228.148438 223.058594 L 229.980469 223.789062 L 230.710938 224.886719 L 228.148438 224.886719 L 227.78125 223.425781 Z M 228.148438 223.058594 " fill-opacity="1" fill-rule="nonzero"/><path fill="#c2bcad" d="M 275.023438 217.574219 L 275.753906 217.574219 L 275.753906 219.402344 L 273.921875 219.035156 L 274.289062 217.941406 Z M 275.023438 217.574219 " fill-opacity="1" fill-rule="nonzero"/><path fill="#a47d5e" d="M 112.796875 128.003906 L 114.261719 128.734375 L 113.160156 129.832031 L 112.429688 129.46875 Z M 112.796875 128.003906 " fill-opacity="1" fill-rule="nonzero"/><path fill="#88755e" d="M 210.570312 183.574219 L 210.570312 184.671875 L 209.105469 185.769531 L 208.007812 185.402344 Z M 210.570312 183.574219 " fill-opacity="1" fill-rule="nonzero"/><path fill="#ab8664" d="M 268.796875 236.21875 L 268.796875 237.316406 L 267.699219 238.414062 L 266.964844 238.046875 Z M 268.796875 236.21875 " fill-opacity="1" fill-rule="nonzero"/><path fill="#a58265" d="M 227.050781 131.296875 L 228.148438 132.390625 L 228.515625 133.855469 L 227.414062 132.757812 Z M 227.050781 131.296875 " fill-opacity="1" fill-rule="nonzero"/><path fill="#ab8465" d="M 180.175781 244.261719 L 180.542969 244.261719 L 180.542969 247.1875 L 180.175781 247.1875 Z M 180.175781 244.261719 " fill-opacity="1" fill-rule="nonzero"/><path fill="#b18f72" d="M 184.9375 113.382812 L 186.402344 113.746094 L 184.9375 114.476562 Z M 184.9375 113.382812 " fill-opacity="1" fill-rule="nonzero"/><path fill="#71583c" d="M 105.105469 153.230469 L 106.203125 153.230469 L 105.835938 154.328125 L 105.105469 153.960938 Z M 105.105469 153.230469 " fill-opacity="1" fill-rule="nonzero"/><path fill="#80664a" d="M 103.640625 152.5 L 104.371094 152.863281 L 104.371094 153.597656 L 103.273438 153.597656 Z M 103.640625 152.5 " fill-opacity="1" fill-rule="nonzero"/><path fill="#3d2f22" d="M 124.878906 240.605469 L 125.613281 241.703125 L 124.511719 242.070312 Z M 124.878906 240.605469 " fill-opacity="1" fill-rule="nonzero"/><path fill="#503d27" d="M 178.34375 219.769531 L 178.710938 219.769531 L 178.710938 221.960938 L 178.34375 221.960938 Z M 178.34375 219.769531 " fill-opacity="1" fill-rule="nonzero"/><path fill="#5f4b31" d="M 129.273438 253.035156 L 130.007812 253.035156 L 130.007812 253.769531 L 129.273438 253.769531 Z M 129.273438 253.035156 " fill-opacity="1" fill-rule="nonzero"/><path fill="#463423" d="M 130.007812 249.382812 L 130.738281 250.113281 L 130.007812 250.476562 Z M 130.007812 249.382812 " fill-opacity="1" fill-rule="nonzero"/><path fill="#5e4730" d="M 178.710938 221.960938 L 179.078125 223.425781 Z M 178.710938 221.960938 " fill-opacity="1" fill-rule="nonzero"/><path fill="#58442e" d="M 177.980469 217.941406 L 178.34375 219.402344 Z M 177.980469 217.941406 " fill-opacity="1" fill-rule="nonzero"/><path fill="#806a51" d="M 205.808594 186.863281 L 206.542969 187.230469 L 205.445312 187.230469 Z M 205.808594 186.863281 " fill-opacity="1" fill-rule="nonzero"/><path fill="#584937" d="M 235.839844 228.175781 L 236.570312 228.90625 L 235.839844 228.90625 Z M 235.839844 228.175781 " fill-opacity="1" fill-rule="nonzero"/><path fill="#8e7962" d="M 207.640625 185.769531 L 208.007812 186.5 L 207.273438 186.132812 Z M 207.640625 185.769531 " fill-opacity="1" fill-rule="nonzero"/><path fill="#95795a" d="M 200.316406 114.84375 L 201.414062 115.210938 Z M 200.316406 114.84375 " fill-opacity="1" fill-rule="nonzero"/><path fill="#9d8064" d="M 177.246094 113.746094 L 178.34375 114.113281 Z M 177.246094 113.746094 " fill-opacity="1" fill-rule="nonzero"/><path fill="#675e4b" d="M 103.640625 270.949219 L 104.371094 271.316406 Z M 103.640625 270.949219 " fill-opacity="1" fill-rule="nonzero"/><path fill="#917a61" d="M 204.710938 187.597656 L 205.445312 187.960938 Z M 204.710938 187.597656 " fill-opacity="1" fill-rule="nonzero"/><path fill="#806951" d="M 206.542969 186.5 L 207.273438 186.863281 Z M 206.542969 186.5 " fill-opacity="1" fill-rule="nonzero"/><path fill="#a27758" d="M 190.796875 185.402344 L 191.527344 185.769531 Z M 190.796875 185.402344 " fill-opacity="1" fill-rule="nonzero"/><path fill="#c59d82" d="M 191.894531 184.671875 L 192.625 185.035156 Z M 191.894531 184.671875 " fill-opacity="1" fill-rule="nonzero"/><path fill="#524739" d="M 110.230469 156.886719 L 110.964844 157.253906 Z M 110.230469 156.886719 " fill-opacity="1" fill-rule="nonzero"/><path fill="#92785b" d="M 198.851562 114.476562 L 199.585938 114.84375 Z M 198.851562 114.476562 " fill-opacity="1" fill-rule="nonzero"/><path fill="#98795d" d="M 197.386719 114.113281 L 198.121094 114.476562 Z M 197.386719 114.113281 " fill-opacity="1" fill-rule="nonzero"/><path fill="#91755a" d="M 190.796875 113.382812 L 191.527344 113.746094 Z M 190.796875 113.382812 " fill-opacity="1" fill-rule="nonzero"/><path fill="#a8937a" d="M 180.542969 113.382812 L 181.273438 113.746094 Z M 180.542969 113.382812 " fill-opacity="1" fill-rule="nonzero"/></svg>