<svg xmlns="http://www.w3.org/2000/svg" xmlns:xlink="http://www.w3.org/1999/xlink" width="940" zoomAndPan="magnify" viewBox="0 0 705 591.000005" height="788" preserveAspectRatio="xMidYMid meet" version="1.0"><path fill="#a0b1bb" d="M 351.089844 144.21875 L 356.078125 144.21875 L 359.402344 147.542969 L 361.066406 158.351562 L 376.027344 163.339844 L 382.679688 167.496094 L 389.332031 174.976562 L 393.488281 183.292969 L 398.476562 199.917969 L 404.296875 202.414062 L 406.789062 206.570312 L 406.789062 214.050781 L 404.296875 219.039062 L 399.308594 223.195312 L 396.8125 224.027344 L 395.980469 230.679688 L 406.789062 234.003906 L 421.753906 242.316406 L 432.5625 251.464844 L 450.019531 268.921875 L 460.828125 284.71875 L 467.476562 295.523438 L 474.128906 308.828125 L 484.105469 330.441406 L 488.261719 339.585938 L 489.925781 344.574219 L 490.757812 353.71875 L 490.757812 370.347656 L 489.09375 382.816406 L 484.9375 392.792969 L 481.609375 398.613281 L 486.597656 400.277344 L 496.574219 406.09375 L 500.734375 410.253906 L 507.382812 418.566406 L 511.539062 426.878906 L 513.203125 432.699219 L 513.203125 451.820312 L 512.371094 461.796875 L 509.046875 471.773438 L 504.058594 479.253906 L 496.574219 485.90625 L 484.105469 493.386719 L 474.960938 496.714844 L 471.636719 497.542969 L 448.355469 497.542969 L 418.429688 492.558594 L 402.632812 488.398438 L 386.003906 481.75 L 372.703125 476.761719 L 361.894531 473.433594 L 351.917969 475.097656 L 336.957031 480.085938 L 321.992188 485.90625 L 304.53125 491.726562 L 282.085938 497.542969 L 267.953125 500.039062 L 252.15625 500.871094 L 241.347656 499.207031 L 231.371094 495.882812 L 213.082031 487.570312 L 206.433594 481.75 L 201.445312 474.265625 L 198.949219 465.121094 L 197.289062 449.324219 L 197.289062 441.011719 L 199.78125 427.710938 L 204.769531 418.566406 L 210.589844 412.746094 L 222.226562 406.09375 L 226.382812 403.601562 L 220.566406 394.457031 L 217.238281 376.167969 L 214.746094 367.851562 L 214.746094 353.71875 L 219.734375 335.429688 L 226.382812 322.128906 L 237.191406 302.175781 L 244.675781 290.535156 L 256.3125 274.742188 L 262.964844 267.257812 L 268.785156 260.609375 L 274.601562 254.789062 L 288.738281 243.980469 L 297.882812 238.160156 L 306.195312 234.835938 L 312.015625 232.34375 L 311.183594 226.523438 L 306.195312 224.859375 L 301.207031 219.039062 L 300.375 216.546875 L 300.375 207.402344 L 303.699219 203.246094 L 309.519531 202.414062 L 313.675781 184.125 L 320.328125 173.316406 L 326.980469 167.496094 L 336.125 162.507812 L 345.269531 159.183594 L 346.929688 159.183594 L 346.101562 150.039062 L 349.425781 145.050781 Z M 351.089844 144.21875 " fill-opacity="1" fill-rule="nonzero"/><path fill="#a7957f" d="M 397.644531 231.511719 L 404.296875 233.171875 L 417.597656 239.824219 L 425.910156 245.644531 L 435.886719 254.789062 L 450.019531 268.921875 L 460.828125 284.71875 L 467.476562 295.523438 L 474.128906 308.828125 L 484.105469 330.441406 L 488.261719 339.585938 L 489.925781 344.574219 L 490.757812 353.71875 L 490.757812 370.347656 L 489.09375 382.816406 L 484.9375 392.792969 L 481.609375 398.613281 L 486.597656 400.277344 L 496.574219 406.09375 L 500.734375 410.253906 L 507.382812 418.566406 L 511.539062 426.878906 L 513.203125 432.699219 L 513.203125 451.820312 L 512.371094 461.796875 L 509.046875 471.773438 L 504.058594 479.253906 L 496.574219 485.90625 L 484.105469 493.386719 L 474.960938 496.714844 L 471.636719 497.542969 L 448.355469 497.542969 L 418.429688 492.558594 L 402.632812 488.398438 L 386.003906 481.75 L 372.703125 476.761719 L 361.894531 473.433594 L 351.917969 475.097656 L 336.957031 480.085938 L 321.992188 485.90625 L 304.53125 491.726562 L 282.085938 497.542969 L 267.953125 500.039062 L 252.15625 500.871094 L 241.347656 499.207031 L 231.371094 495.882812 L 213.082031 487.570312 L 206.433594 481.75 L 201.445312 474.265625 L 198.949219 465.121094 L 197.289062 449.324219 L 197.289062 441.011719 L 199.78125 427.710938 L 204.769531 418.566406 L 210.589844 412.746094 L 222.226562 406.09375 L 226.382812 403.601562 L 220.566406 394.457031 L 218.902344 386.972656 L 218.902344 382.816406 L 221.398438 384.480469 L 223.058594 391.960938 L 228.046875 400.277344 L 233.035156 402.769531 L 243.011719 402.769531 L 248.832031 400.277344 L 254.652344 399.445312 L 252.15625 396.949219 L 245.507812 393.625 L 244.675781 391.132812 L 248.832031 391.960938 L 262.964844 397.78125 L 278.761719 401.9375 L 294.554688 404.433594 L 317.003906 405.265625 L 317.832031 406.09375 L 333.628906 406.925781 L 333.628906 405.265625 L 351.917969 405.265625 L 358.570312 403.601562 L 364.390625 400.277344 L 368.546875 397.78125 L 368.546875 391.132812 L 358.570312 386.144531 L 356.078125 383.648438 L 356.078125 381.15625 L 353.582031 381.15625 L 354.414062 376.167969 L 346.929688 379.492188 L 333.628906 381.984375 L 327.808594 384.480469 L 323.652344 387.804688 L 323.652344 383.648438 L 332.796875 377.828125 L 345.269531 376.167969 L 350.257812 374.503906 L 354.414062 374.503906 L 357.738281 376.167969 L 357.738281 374.503906 L 362.726562 375.335938 L 367.714844 377.828125 L 383.511719 381.15625 L 387.667969 383.648438 L 389.332031 386.144531 L 389.332031 388.636719 L 386.003906 387.804688 L 382.679688 384.480469 L 374.367188 383.648438 L 364.390625 380.324219 L 357.738281 376.996094 L 360.234375 382.816406 L 369.378906 387.804688 L 371.871094 390.300781 L 371.871094 397.78125 L 368.546875 401.9375 L 356.90625 407.757812 L 352.75 408.589844 L 335.292969 408.589844 L 335.292969 410.253906 L 346.929688 412.746094 L 360.234375 413.578125 L 378.523438 411.914062 L 385.175781 407.757812 L 389.332031 407.757812 L 386.835938 411.914062 L 393.488281 410.253906 L 391.824219 409.421875 L 391.824219 407.757812 L 394.320312 406.925781 L 419.257812 405.265625 L 436.71875 401.105469 L 446.695312 396.949219 L 457.503906 391.132812 L 460.828125 391.132812 L 459.996094 393.625 L 455.007812 396.949219 L 455.007812 397.78125 L 462.488281 398.613281 L 474.128906 398.613281 L 480.78125 392.792969 L 484.105469 386.972656 L 488.261719 374.503906 L 488.261719 358.707031 L 487.429688 345.40625 L 483.273438 333.765625 L 476.625 320.464844 L 465.816406 297.1875 L 455.839844 281.390625 L 450.851562 274.742188 L 450.851562 273.078125 L 447.527344 271.414062 L 435.054688 258.113281 L 429.234375 252.292969 L 414.269531 241.488281 L 401.800781 235.667969 L 397.644531 233.171875 Z M 397.644531 231.511719 " fill-opacity="1" fill-rule="nonzero"/><path fill="#c1b399" d="M 351.089844 144.21875 L 356.078125 144.21875 L 359.402344 147.542969 L 361.066406 158.351562 L 376.027344 163.339844 L 382.679688 167.496094 L 389.332031 174.976562 L 393.488281 183.292969 L 398.476562 199.917969 L 404.296875 202.414062 L 406.789062 206.570312 L 406.789062 214.050781 L 404.296875 219.039062 L 399.308594 223.195312 L 396.8125 224.027344 L 394.320312 233.171875 L 390.160156 241.488281 L 381.847656 249.800781 L 374.367188 253.957031 L 371.871094 253.957031 L 372.703125 251.464844 L 381.015625 245.644531 L 387.667969 238.160156 L 391.824219 230.679688 L 394.320312 219.039062 L 395.148438 204.90625 L 391.824219 206.570312 L 390.160156 204.074219 L 388.5 194.097656 L 383.511719 184.125 L 382.679688 180.796875 L 383.511719 179.136719 L 383.511719 171.652344 L 375.199219 165.832031 L 366.050781 162.507812 L 357.738281 161.675781 L 350.257812 161.675781 L 336.957031 164.171875 L 327.808594 169.160156 L 324.484375 172.484375 L 324.484375 179.136719 L 325.316406 183.292969 L 321.160156 189.941406 L 318.664062 194.929688 L 317.832031 204.90625 L 316.171875 207.402344 L 312.015625 206.570312 L 313.675781 221.535156 L 315.339844 229.015625 L 321.160156 240.65625 L 328.640625 247.304688 L 336.125 251.464844 L 346.929688 254.789062 L 363.558594 254.789062 L 363.558594 256.453125 L 358.570312 258.113281 L 344.4375 258.113281 L 331.96875 253.957031 L 323.652344 248.136719 L 323.652344 251.464844 L 329.472656 268.921875 L 333.628906 280.5625 L 341.941406 295.523438 L 351.089844 308.828125 L 354.414062 312.984375 L 354.414062 314.644531 L 357.738281 311.320312 L 364.390625 297.1875 L 372.703125 281.390625 L 379.355469 268.089844 L 384.34375 254.789062 L 386.835938 246.476562 L 390.160156 243.148438 L 389.332031 250.632812 L 385.175781 263.933594 L 373.535156 288.042969 L 364.390625 304.671875 L 357.738281 317.972656 L 349.425781 331.273438 L 346.101562 336.261719 L 343.605469 340.417969 L 336.125 349.5625 L 328.640625 357.875 L 319.496094 367.023438 L 311.183594 373.671875 L 309.519531 378.660156 L 305.363281 379.492188 L 301.207031 376.996094 L 292.0625 373.671875 L 294.554688 376.167969 L 304.53125 380.324219 L 312.015625 382.816406 L 320.328125 385.3125 L 320.328125 386.972656 L 311.183594 386.144531 L 297.882812 381.984375 L 284.578125 375.335938 L 282.085938 374.503906 L 282.085938 372.839844 L 262.964844 374.503906 L 254.652344 379.492188 L 252.15625 380.324219 L 250.492188 383.648438 L 243.84375 391.132812 L 238.855469 398.613281 L 237.191406 400.277344 L 233.035156 400.277344 L 233.867188 396.949219 L 236.359375 394.457031 L 237.191406 392.792969 L 231.371094 391.960938 L 226.382812 384.480469 L 222.226562 380.324219 L 221.398438 377.828125 L 221.398438 367.851562 L 222.226562 355.382812 L 225.554688 339.585938 L 229.710938 328.78125 L 235.53125 316.308594 L 239.6875 305.5 L 247.167969 293.03125 L 251.324219 284.71875 L 245.507812 293.03125 L 237.191406 307.996094 L 230.542969 321.296875 L 223.890625 334.597656 L 220.566406 346.238281 L 218.902344 352.058594 L 218.902344 376.996094 L 216.410156 374.503906 L 214.746094 367.851562 L 214.746094 353.71875 L 219.734375 335.429688 L 226.382812 322.128906 L 237.191406 302.175781 L 244.675781 290.535156 L 256.3125 274.742188 L 262.964844 267.257812 L 268.785156 260.609375 L 274.601562 254.789062 L 288.738281 243.980469 L 297.882812 238.160156 L 306.195312 234.835938 L 312.015625 232.34375 L 311.183594 226.523438 L 306.195312 224.859375 L 301.207031 219.039062 L 300.375 216.546875 L 300.375 207.402344 L 303.699219 203.246094 L 309.519531 202.414062 L 313.675781 184.125 L 320.328125 173.316406 L 326.980469 167.496094 L 336.125 162.507812 L 345.269531 159.183594 L 346.929688 159.183594 L 346.101562 150.039062 L 349.425781 145.050781 Z M 351.089844 144.21875 " fill-opacity="1" fill-rule="nonzero"/><path fill="#94836e" d="M 550.613281 117.613281 L 558.925781 117.613281 L 562.253906 120.941406 L 564.746094 128.421875 L 569.734375 145.878906 L 572.230469 160.015625 L 572.230469 182.460938 L 575.554688 208.234375 L 575.554688 214.050781 L 584.699219 214.050781 L 592.183594 214.882812 L 593.011719 215.714844 L 593.011719 219.871094 L 588.855469 222.367188 L 578.878906 224.027344 L 580.542969 229.847656 L 580.542969 248.96875 L 582.207031 259.777344 L 583.035156 272.246094 L 584.699219 278.066406 L 585.53125 297.1875 L 584.699219 301.34375 L 584.699219 314.644531 L 585.53125 317.972656 L 586.363281 343.742188 L 584.699219 367.023438 L 583.035156 380.324219 L 582.207031 414.410156 L 582.207031 439.351562 L 579.710938 450.15625 L 577.21875 454.3125 L 574.722656 476.761719 L 571.398438 494.21875 L 568.902344 498.375 L 562.253906 502.53125 L 558.925781 503.363281 L 549.78125 501.703125 L 547.289062 499.207031 L 546.457031 495.050781 L 548.953125 472.605469 L 552.277344 446 L 553.9375 419.398438 L 556.433594 401.9375 L 556.433594 386.972656 L 555.601562 384.480469 L 555.601562 371.179688 L 556.433594 366.191406 L 556.433594 357.875 L 555.601562 352.890625 L 555.601562 340.417969 L 556.433594 335.429688 L 557.265625 317.140625 L 557.265625 298.019531 L 555.601562 289.707031 L 554.769531 289.707031 L 553.9375 298.019531 L 554.769531 301.34375 L 553.109375 301.34375 L 551.445312 298.019531 L 550.613281 290.535156 L 551.445312 289.707031 L 552.277344 283.886719 L 548.953125 283.886719 L 548.953125 289.707031 L 546.457031 288.875 L 547.289062 280.5625 L 551.445312 266.425781 L 551.445312 261.4375 L 549.78125 258.113281 L 550.613281 250.632812 L 553.9375 246.476562 L 553.9375 234.003906 L 553.109375 227.355469 L 539.804688 226.523438 L 538.976562 223.195312 L 541.46875 220.703125 L 548.121094 218.207031 L 554.769531 215.714844 L 553.109375 193.269531 L 548.953125 163.339844 L 546.457031 139.230469 L 544.792969 125.097656 L 547.289062 120.109375 Z M 550.613281 117.613281 " fill-opacity="1" fill-rule="nonzero"/><path fill="#a7957e" d="M 257.144531 401.9375 L 259.640625 402.769531 L 262.964844 401.9375 L 262.132812 406.925781 L 263.796875 407.757812 L 266.289062 411.914062 L 267.953125 411.914062 L 267.953125 413.578125 L 272.941406 414.410156 L 278.761719 416.070312 L 287.074219 417.734375 L 288.738281 418.566406 L 288.738281 421.890625 L 277.929688 422.722656 L 272.109375 426.046875 L 272.109375 427.710938 L 279.589844 424.386719 L 286.242188 424.386719 L 298.710938 426.878906 L 307.027344 426.878906 L 322.820312 423.554688 L 329.472656 423.554688 L 336.125 429.375 L 340.28125 436.023438 L 346.101562 439.351562 L 344.4375 442.675781 L 341.113281 449.324219 L 339.449219 458.472656 L 336.125 455.976562 L 328.640625 454.3125 L 326.148438 452.652344 L 317.832031 450.988281 L 312.015625 448.496094 L 303.699219 446 L 292.894531 442.675781 L 284.578125 442.675781 L 301.207031 447.664062 L 315.339844 452.652344 L 328.640625 455.976562 L 338.617188 459.300781 L 338.617188 461.796875 L 340.28125 461.796875 L 341.113281 464.289062 L 351.917969 467.617188 L 356.078125 470.109375 L 353.582031 471.773438 L 339.449219 475.929688 L 331.96875 479.253906 L 323.652344 482.582031 L 309.519531 487.570312 L 297.882812 490.894531 L 284.578125 494.21875 L 270.445312 496.714844 L 267.121094 497.542969 L 247.167969 497.542969 L 238.855469 495.882812 L 218.902344 487.570312 L 211.421875 482.582031 L 205.601562 476.761719 L 202.273438 470.941406 L 200.613281 447.664062 L 200.613281 436.023438 L 203.105469 427.710938 L 208.925781 418.566406 L 215.578125 412.746094 L 227.214844 406.09375 L 228.046875 405.265625 L 242.179688 405.265625 L 249.664062 403.601562 L 252.988281 403.601562 Z M 257.144531 401.9375 " fill-opacity="1" fill-rule="nonzero"/><path fill="#e3d0b8" d="M 350.257812 160.84375 L 357.738281 160.84375 L 368.546875 162.507812 L 376.859375 165.832031 L 384.34375 171.652344 L 384.34375 179.136719 L 383.511719 183.292969 L 387.667969 189.941406 L 390.160156 196.59375 L 390.992188 204.074219 L 393.488281 206.570312 L 394.320312 204.074219 L 395.980469 204.90625 L 395.148438 219.039062 L 392.65625 230.679688 L 386.835938 240.65625 L 379.355469 248.136719 L 372.703125 252.292969 L 371.871094 253.957031 L 379.355469 250.632812 L 387.667969 243.148438 L 392.65625 235.667969 L 395.148438 230.679688 L 397.644531 231.511719 L 399.308594 234.003906 L 405.125 236.5 L 405.125 238.992188 L 401.800781 239.824219 L 396.8125 241.488281 L 390.992188 248.96875 L 390.160156 248.96875 L 389.332031 243.980469 L 386.003906 251.464844 L 381.015625 266.425781 L 374.367188 279.730469 L 366.050781 296.355469 L 359.402344 309.65625 L 356.078125 314.644531 L 354.414062 314.644531 L 344.4375 300.511719 L 337.785156 289.707031 L 331.136719 276.402344 L 324.484375 256.453125 L 321.992188 248.96875 L 322.820312 246.476562 L 330.304688 252.292969 L 338.617188 255.621094 L 344.4375 257.28125 L 358.570312 257.28125 L 363.558594 256.453125 L 363.558594 254.789062 L 358.570312 255.621094 L 346.929688 255.621094 L 334.460938 251.464844 L 325.316406 245.644531 L 318.664062 238.160156 L 313.675781 227.355469 L 312.015625 217.378906 L 312.015625 206.570312 L 316.171875 206.570312 L 317.003906 204.90625 L 317.832031 194.929688 L 324.484375 183.292969 L 323.652344 174.976562 L 324.484375 170.820312 L 333.628906 165.003906 L 339.449219 162.507812 Z M 350.257812 160.84375 " fill-opacity="1" fill-rule="nonzero"/><path fill="#42382c" d="M 350.257812 374.503906 L 354.414062 374.503906 L 357.738281 376.167969 L 357.738281 374.503906 L 362.726562 375.335938 L 367.714844 377.828125 L 383.511719 381.15625 L 387.667969 383.648438 L 389.332031 386.144531 L 389.332031 388.636719 L 386.003906 387.804688 L 382.679688 384.480469 L 374.367188 383.648438 L 364.390625 380.324219 L 357.738281 376.996094 L 360.234375 382.816406 L 369.378906 387.804688 L 371.871094 390.300781 L 371.871094 397.78125 L 368.546875 401.9375 L 356.90625 407.757812 L 352.75 408.589844 L 335.292969 408.589844 L 335.292969 410.253906 L 346.929688 412.746094 L 360.234375 413.578125 L 378.523438 411.914062 L 385.175781 407.757812 L 389.332031 407.757812 L 385.175781 411.914062 L 381.015625 415.242188 L 377.691406 416.070312 L 365.222656 416.902344 L 351.917969 416.902344 L 338.617188 414.410156 L 333.628906 411.082031 L 331.96875 409.421875 L 318.664062 409.421875 L 294.554688 408.589844 L 280.421875 406.925781 L 263.796875 401.9375 L 260.46875 400.277344 L 255.480469 401.105469 L 245.507812 405.265625 L 242.179688 406.09375 L 228.046875 406.09375 L 219.734375 411.082031 L 211.421875 416.902344 L 206.433594 423.554688 L 203.105469 430.203125 L 201.445312 436.023438 L 201.445312 447.664062 L 203.105469 470.941406 L 208.09375 478.421875 L 215.578125 485.074219 L 224.722656 489.230469 L 241.347656 495.882812 L 247.167969 496.714844 L 267.121094 496.714844 L 272.941406 495.050781 L 284.578125 493.386719 L 297.882812 490.0625 L 315.339844 485.074219 L 323.652344 481.75 L 331.96875 478.421875 L 344.4375 473.433594 L 355.246094 470.109375 L 345.269531 465.953125 L 340.28125 464.289062 L 340.28125 461.796875 L 338.617188 461.796875 L 338.617188 459.300781 L 331.136719 457.640625 L 322.820312 455.144531 L 309.519531 451.820312 L 299.542969 447.664062 L 284.578125 443.507812 L 283.75 441.84375 L 292.894531 441.84375 L 303.699219 445.167969 L 314.507812 448.496094 L 319.496094 450.988281 L 327.808594 452.652344 L 331.136719 454.3125 L 336.957031 455.976562 L 338.617188 457.640625 L 341.113281 446.832031 L 346.101562 439.351562 L 341.113281 437.6875 L 336.957031 432.699219 L 334.460938 428.542969 L 329.472656 424.386719 L 322.820312 424.386719 L 307.027344 427.710938 L 298.710938 427.710938 L 286.242188 425.214844 L 279.589844 425.214844 L 272.109375 428.542969 L 270.445312 427.710938 L 274.601562 423.554688 L 277.929688 421.890625 L 290.398438 421.890625 L 300.375 423.554688 L 307.859375 423.554688 L 322.820312 419.398438 L 331.136719 420.230469 L 335.292969 422.722656 L 338.617188 426.878906 L 341.113281 434.363281 L 345.269531 436.023438 L 347.761719 437.6875 L 351.089844 436.855469 L 358.570312 438.519531 L 368.546875 439.351562 L 380.1875 441.84375 L 381.847656 431.035156 L 387.667969 424.386719 L 390.160156 422.722656 L 415.101562 422.722656 L 425.910156 418.566406 L 432.5625 416.070312 L 442.539062 416.070312 L 445.03125 417.734375 L 457.503906 418.566406 L 457.503906 420.230469 L 459.996094 421.058594 L 459.996094 426.046875 L 469.972656 426.878906 L 472.464844 428.542969 L 472.464844 431.035156 L 465.816406 431.035156 L 464.152344 430.203125 L 454.175781 430.203125 L 440.042969 433.53125 L 430.066406 437.6875 L 419.257812 441.84375 L 400.136719 444.339844 L 397.644531 446 L 382.679688 446 L 354.414062 441.011719 L 348.59375 439.351562 L 346.929688 443.507812 L 342.773438 454.3125 L 342.773438 461.796875 L 350.257812 463.460938 L 363.558594 470.109375 L 379.355469 475.097656 L 395.148438 482.582031 L 409.285156 487.570312 L 420.921875 490.0625 L 440.875 492.558594 L 448.355469 494.21875 L 458.332031 495.050781 L 459.164062 497.542969 L 448.355469 497.542969 L 418.429688 492.558594 L 402.632812 488.398438 L 386.003906 481.75 L 372.703125 476.761719 L 361.894531 473.433594 L 351.917969 475.097656 L 336.957031 480.085938 L 321.992188 485.90625 L 304.53125 491.726562 L 282.085938 497.542969 L 267.953125 500.039062 L 252.15625 500.871094 L 241.347656 499.207031 L 231.371094 495.882812 L 213.082031 487.570312 L 206.433594 481.75 L 201.445312 474.265625 L 198.949219 465.121094 L 197.289062 449.324219 L 197.289062 441.011719 L 199.78125 427.710938 L 204.769531 418.566406 L 210.589844 412.746094 L 222.226562 406.09375 L 226.382812 403.601562 L 220.566406 394.457031 L 218.902344 386.972656 L 218.902344 382.816406 L 221.398438 384.480469 L 223.058594 391.960938 L 228.046875 400.277344 L 233.035156 402.769531 L 243.011719 402.769531 L 248.832031 400.277344 L 254.652344 399.445312 L 252.15625 396.949219 L 245.507812 393.625 L 244.675781 391.132812 L 248.832031 391.960938 L 262.964844 397.78125 L 278.761719 401.9375 L 294.554688 404.433594 L 317.003906 405.265625 L 317.832031 406.09375 L 333.628906 406.925781 L 333.628906 405.265625 L 351.917969 405.265625 L 358.570312 403.601562 L 364.390625 400.277344 L 368.546875 397.78125 L 368.546875 391.132812 L 358.570312 386.144531 L 356.078125 383.648438 L 356.078125 381.15625 L 353.582031 381.15625 L 354.414062 376.167969 L 346.929688 379.492188 L 333.628906 381.984375 L 327.808594 384.480469 L 323.652344 387.804688 L 323.652344 383.648438 L 332.796875 377.828125 L 345.269531 376.167969 Z M 350.257812 374.503906 " fill-opacity="1" fill-rule="nonzero"/><path fill="#dfd0bc" d="M 251.324219 283.886719 L 252.15625 285.546875 L 244.675781 298.851562 L 239.6875 307.164062 L 235.53125 317.972656 L 230.542969 328.78125 L 226.382812 339.585938 L 223.058594 355.382812 L 222.226562 367.851562 L 222.226562 377.828125 L 224.722656 381.984375 L 229.710938 387.804688 L 231.371094 391.960938 L 237.191406 392.792969 L 235.53125 396.949219 L 233.867188 397.78125 L 233.035156 400.277344 L 238.023438 398.613281 L 244.675781 389.46875 L 250.492188 382.816406 L 254.652344 378.660156 L 262.964844 373.671875 L 268.785156 372.839844 L 282.085938 372.839844 L 282.085938 374.503906 L 287.074219 375.335938 L 300.375 381.984375 L 311.183594 385.3125 L 321.160156 386.144531 L 322.820312 386.144531 L 322.820312 388.636719 L 324.484375 388.636719 L 326.148438 385.3125 L 330.304688 381.984375 L 336.125 380.324219 L 346.929688 378.660156 L 351.917969 376.167969 L 354.414062 376.167969 L 353.582031 381.15625 L 356.078125 381.15625 L 358.570312 385.3125 L 369.378906 391.132812 L 369.378906 397.78125 L 361.066406 403.601562 L 356.90625 405.265625 L 346.101562 406.09375 L 333.628906 405.265625 L 333.628906 406.925781 L 330.304688 407.757812 L 317.832031 406.925781 L 317.003906 406.09375 L 294.554688 405.265625 L 275.433594 401.9375 L 261.300781 397.78125 L 244.675781 391.132812 L 246.335938 393.625 L 254.652344 397.78125 L 254.652344 399.445312 L 243.011719 403.601562 L 233.035156 403.601562 L 227.214844 400.277344 L 223.890625 395.289062 L 221.398438 389.46875 L 219.734375 383.648438 L 218.070312 381.984375 L 218.070312 352.058594 L 221.398438 339.585938 L 225.554688 328.78125 L 230.542969 319.632812 L 237.191406 306.332031 L 247.167969 288.875 Z M 251.324219 283.886719 " fill-opacity="1" fill-rule="nonzero"/><path fill="#b0bec4" d="M 405.957031 237.332031 L 410.945312 238.992188 L 412.609375 239.824219 L 412.609375 241.488281 L 409.285156 242.316406 L 407.621094 243.980469 L 407.621094 241.488281 L 405.957031 241.488281 L 405.125 251.464844 L 398.476562 273.910156 L 394.320312 285.546875 L 387.667969 298.851562 L 384.34375 306.332031 L 378.523438 319.632812 L 369.378906 336.261719 L 358.570312 352.890625 L 352.75 360.371094 L 345.269531 369.515625 L 343.605469 372.839844 L 343.605469 375.335938 L 346.101562 376.167969 L 341.941406 377.828125 L 332.796875 378.660156 L 325.316406 383.648438 L 323.652344 383.648438 L 324.484375 388.636719 L 322.820312 388.636719 L 322.820312 386.144531 L 320.328125 386.972656 L 320.328125 385.3125 L 312.015625 383.648438 L 304.53125 381.15625 L 294.554688 376.996094 L 292.0625 375.335938 L 292.0625 373.671875 L 296.21875 374.503906 L 304.53125 377.828125 L 308.6875 378.660156 L 311.183594 372.839844 L 322.820312 362.863281 L 333.628906 352.058594 L 342.773438 340.417969 L 345.269531 336.261719 L 354.414062 322.128906 L 362.726562 307.164062 L 369.378906 293.863281 L 379.355469 274.742188 L 385.175781 262.269531 L 389.332031 246.476562 L 391.824219 246.476562 L 396.8125 240.65625 L 401.800781 238.992188 L 404.296875 239.824219 L 405.125 238.160156 Z M 405.957031 237.332031 " fill-opacity="1" fill-rule="nonzero"/><path fill="#e5d5bf" d="M 487.429688 371.179688 L 488.261719 371.179688 L 487.429688 379.492188 L 484.105469 389.46875 L 476.625 397.78125 L 474.128906 399.445312 L 462.488281 399.445312 L 455.007812 398.613281 L 455.007812 396.121094 L 459.996094 392.792969 L 460.828125 391.132812 L 454.175781 393.625 L 440.875 400.277344 L 427.574219 404.433594 L 419.257812 406.09375 L 394.320312 407.757812 L 391.824219 407.757812 L 391.824219 409.421875 L 395.980469 410.253906 L 395.980469 411.082031 L 386.835938 411.914062 L 388.5 408.589844 L 384.34375 409.421875 L 378.523438 412.746094 L 360.234375 414.410156 L 346.929688 413.578125 L 336.957031 411.082031 L 334.460938 408.589844 L 334.460938 407.757812 L 352.75 407.757812 L 361.066406 405.265625 L 369.378906 400.277344 L 371.039062 397.78125 L 371.039062 390.300781 L 366.882812 386.972656 L 360.234375 383.648438 L 357.738281 379.492188 L 357.738281 376.996094 L 361.894531 377.828125 L 368.546875 381.15625 L 374.367188 382.816406 L 382.679688 383.648438 L 386.835938 387.804688 L 386.835938 389.46875 L 390.160156 389.46875 L 390.160156 386.972656 L 401.800781 386.144531 L 414.269531 381.15625 L 420.921875 376.167969 L 425.078125 374.503906 L 436.71875 374.503906 L 448.355469 377.828125 L 453.34375 381.15625 L 462.488281 390.300781 L 465.816406 396.949219 L 469.972656 397.78125 L 469.972656 393.625 L 473.296875 392.792969 L 478.285156 392.792969 L 481.609375 389.46875 L 484.9375 378.660156 Z M 487.429688 371.179688 " fill-opacity="1" fill-rule="nonzero"/><path fill="#70675c" d="M 351.089844 144.21875 L 356.078125 144.21875 L 359.402344 147.542969 L 361.066406 158.351562 L 376.027344 163.339844 L 382.679688 167.496094 L 389.332031 174.976562 L 393.488281 183.292969 L 398.476562 199.917969 L 404.296875 202.414062 L 406.789062 206.570312 L 406.789062 214.050781 L 404.296875 219.039062 L 399.308594 223.195312 L 396.8125 224.027344 L 394.320312 233.171875 L 390.160156 241.488281 L 381.847656 249.800781 L 374.367188 253.957031 L 371.871094 253.957031 L 372.703125 251.464844 L 381.015625 245.644531 L 387.667969 238.160156 L 391.824219 230.679688 L 394.320312 219.039062 L 395.148438 204.90625 L 391.824219 206.570312 L 390.160156 204.074219 L 388.5 194.097656 L 383.511719 184.125 L 382.679688 180.796875 L 383.511719 179.136719 L 383.511719 171.652344 L 375.199219 165.832031 L 366.050781 162.507812 L 357.738281 161.675781 L 350.257812 161.675781 L 336.957031 164.171875 L 327.808594 169.160156 L 324.484375 172.484375 L 324.484375 179.136719 L 325.316406 183.292969 L 321.160156 189.941406 L 318.664062 194.929688 L 317.832031 204.90625 L 316.171875 207.402344 L 312.015625 206.570312 L 313.675781 221.535156 L 315.339844 229.015625 L 321.160156 240.65625 L 328.640625 247.304688 L 336.125 251.464844 L 346.929688 254.789062 L 363.558594 254.789062 L 363.558594 256.453125 L 358.570312 258.113281 L 344.4375 258.113281 L 331.96875 253.957031 L 323.652344 248.136719 L 323.652344 251.464844 L 329.472656 268.921875 L 333.628906 280.5625 L 341.941406 295.523438 L 351.089844 308.828125 L 354.414062 312.984375 L 354.414062 314.644531 L 357.738281 311.320312 L 364.390625 297.1875 L 372.703125 281.390625 L 379.355469 268.089844 L 384.34375 254.789062 L 386.835938 246.476562 L 390.160156 243.148438 L 389.332031 250.632812 L 385.175781 263.933594 L 373.535156 288.042969 L 364.390625 304.671875 L 357.738281 317.972656 L 349.425781 331.273438 L 346.101562 336.261719 L 343.605469 340.417969 L 336.125 349.5625 L 328.640625 357.875 L 319.496094 367.023438 L 311.183594 373.671875 L 308.6875 376.996094 L 307.027344 376.996094 L 307.859375 372.839844 L 313.675781 366.191406 L 321.992188 359.539062 L 328.640625 352.890625 L 329.472656 351.226562 L 331.136719 351.226562 L 332.796875 347.902344 L 338.617188 341.25 L 349.425781 324.621094 L 353.582031 317.972656 L 352.75 314.644531 L 348.59375 310.488281 L 341.113281 301.34375 L 331.136719 283.886719 L 326.980469 273.078125 L 320.328125 253.125 L 317.003906 240.65625 L 311.183594 229.015625 L 311.183594 226.523438 L 306.195312 224.859375 L 301.207031 219.039062 L 300.375 216.546875 L 300.375 207.402344 L 303.699219 203.246094 L 309.519531 202.414062 L 313.675781 184.125 L 320.328125 173.316406 L 326.980469 167.496094 L 336.125 162.507812 L 345.269531 159.183594 L 346.929688 159.183594 L 346.101562 150.039062 L 349.425781 145.050781 Z M 351.089844 144.21875 " fill-opacity="1" fill-rule="nonzero"/><path fill="#887f70" d="M 550.613281 117.613281 L 558.925781 117.613281 L 562.253906 120.941406 L 564.746094 128.421875 L 569.734375 145.878906 L 572.230469 160.015625 L 572.230469 182.460938 L 575.554688 208.234375 L 575.554688 213.222656 L 573.0625 212.390625 L 571.398438 197.425781 L 570.566406 195.761719 L 568.074219 194.929688 L 568.902344 197.425781 L 571.398438 199.085938 L 571.398438 201.582031 L 568.074219 200.75 L 566.410156 197.425781 L 562.253906 199.917969 L 561.421875 200.75 L 570.566406 205.738281 L 571.398438 209.894531 L 569.734375 212.390625 L 558.925781 212.390625 L 558.925781 209.894531 L 568.902344 209.894531 L 568.902344 208.234375 L 564.746094 206.570312 L 556.433594 203.246094 L 557.265625 214.050781 L 555.601562 214.882812 L 554.769531 212.390625 L 552.277344 187.449219 L 548.953125 163.339844 L 546.457031 139.230469 L 544.792969 125.097656 L 547.289062 120.109375 Z M 550.613281 117.613281 " fill-opacity="1" fill-rule="nonzero"/><path fill="#e7d4bc" d="M 322.820312 423.554688 L 329.472656 423.554688 L 336.125 429.375 L 340.28125 436.023438 L 346.101562 439.351562 L 344.4375 442.675781 L 341.113281 449.324219 L 339.449219 458.472656 L 336.125 455.976562 L 328.640625 454.3125 L 326.148438 452.652344 L 317.832031 450.988281 L 312.015625 448.496094 L 303.699219 446 L 289.566406 441.84375 L 280.421875 440.179688 L 262.132812 439.351562 L 260.46875 437.6875 L 261.300781 433.53125 L 270.445312 429.375 L 272.109375 429.375 L 272.109375 427.710938 L 279.589844 424.386719 L 286.242188 424.386719 L 298.710938 426.878906 L 307.027344 426.878906 Z M 322.820312 423.554688 " fill-opacity="1" fill-rule="nonzero"/><path fill="#968b7a" d="M 568.074219 194.929688 L 571.398438 195.761719 L 573.0625 204.074219 L 573.890625 212.390625 L 578.878906 214.050781 L 584.699219 214.050781 L 592.183594 214.882812 L 593.011719 215.714844 L 593.011719 219.871094 L 588.855469 222.367188 L 578.878906 224.027344 L 576.386719 224.859375 L 577.21875 226.523438 L 578.046875 241.488281 L 559.757812 243.980469 L 559.757812 245.644531 L 557.265625 244.8125 L 555.601562 231.511719 L 555.601562 226.523438 L 560.589844 224.859375 L 571.398438 224.859375 L 574.722656 225.691406 L 574.722656 224.027344 L 568.074219 222.367188 L 560.589844 223.195312 L 554.769531 225.691406 L 553.109375 227.355469 L 539.804688 226.523438 L 538.976562 223.195312 L 541.46875 220.703125 L 548.121094 218.207031 L 554.769531 215.714844 L 556.433594 214.050781 L 556.433594 203.246094 L 561.421875 204.074219 L 568.902344 208.234375 L 568.902344 209.894531 L 558.925781 209.894531 L 558.925781 212.390625 L 569.734375 212.390625 L 570.566406 206.570312 L 560.589844 201.582031 L 563.914062 197.425781 L 566.410156 197.425781 L 568.902344 200.75 L 571.398438 201.582031 L 570.566406 199.085938 L 568.074219 197.425781 Z M 568.074219 194.929688 " fill-opacity="1" fill-rule="nonzero"/><path fill="#4f473b" d="M 563.085938 221.535156 L 570.566406 222.367188 L 574.722656 224.027344 L 574.722656 225.691406 L 560.589844 225.691406 L 556.433594 226.523438 L 557.265625 237.332031 L 558.097656 244.8125 L 559.757812 245.644531 L 559.757812 243.980469 L 565.578125 242.316406 L 578.046875 241.488281 L 577.21875 239.824219 L 576.386719 224.859375 L 578.878906 225.691406 L 580.542969 229.847656 L 579.710938 244.8125 L 567.242188 245.644531 L 562.253906 247.304688 L 558.097656 247.304688 L 558.097656 249.800781 L 568.074219 247.304688 L 578.878906 247.304688 L 578.878906 248.96875 L 566.410156 251.464844 L 558.925781 253.125 L 576.386719 255.621094 L 578.046875 258.945312 L 564.746094 257.28125 L 557.265625 255.621094 L 558.097656 259.777344 L 578.046875 261.4375 L 578.046875 263.101562 L 576.386719 263.933594 L 561.421875 263.101562 L 558.925781 262.269531 L 560.589844 272.246094 L 559.757812 273.078125 L 560.589844 276.402344 L 561.421875 299.683594 L 561.421875 312.984375 L 560.589844 332.9375 L 558.925781 341.25 L 558.925781 352.058594 L 559.757812 357.046875 L 556.433594 357.875 L 555.601562 352.890625 L 555.601562 340.417969 L 556.433594 335.429688 L 557.265625 317.140625 L 557.265625 298.019531 L 555.601562 289.707031 L 554.769531 289.707031 L 553.9375 298.019531 L 554.769531 301.34375 L 553.109375 301.34375 L 551.445312 298.019531 L 550.613281 290.535156 L 551.445312 289.707031 L 552.277344 283.886719 L 548.953125 283.886719 L 548.953125 289.707031 L 546.457031 288.875 L 547.289062 280.5625 L 551.445312 266.425781 L 551.445312 261.4375 L 549.78125 258.113281 L 550.613281 250.632812 L 553.9375 246.476562 L 553.9375 225.691406 Z M 563.085938 221.535156 " fill-opacity="1" fill-rule="nonzero"/><path fill="#484035" d="M 350.257812 374.503906 L 354.414062 374.503906 L 357.738281 376.167969 L 357.738281 374.503906 L 362.726562 375.335938 L 367.714844 377.828125 L 383.511719 381.15625 L 387.667969 383.648438 L 389.332031 386.144531 L 389.332031 388.636719 L 386.003906 387.804688 L 382.679688 384.480469 L 374.367188 383.648438 L 364.390625 380.324219 L 357.738281 376.996094 L 360.234375 382.816406 L 369.378906 387.804688 L 371.871094 390.300781 L 371.871094 397.78125 L 368.546875 401.9375 L 356.90625 407.757812 L 352.75 408.589844 L 335.292969 408.589844 L 335.292969 410.253906 L 346.929688 412.746094 L 360.234375 413.578125 L 378.523438 411.914062 L 385.175781 407.757812 L 389.332031 407.757812 L 385.175781 411.914062 L 381.015625 415.242188 L 377.691406 416.070312 L 365.222656 416.902344 L 351.917969 416.902344 L 338.617188 414.410156 L 333.628906 411.082031 L 331.96875 409.421875 L 318.664062 409.421875 L 294.554688 408.589844 L 280.421875 406.925781 L 263.796875 401.9375 L 260.46875 400.277344 L 255.480469 401.105469 L 245.507812 405.265625 L 242.179688 406.09375 L 228.046875 406.09375 L 224.722656 408.589844 L 223.058594 408.589844 L 224.722656 405.265625 L 226.382812 402.769531 L 221.398438 396.121094 L 218.902344 386.972656 L 218.902344 382.816406 L 221.398438 384.480469 L 223.058594 391.960938 L 228.046875 400.277344 L 233.035156 402.769531 L 243.011719 402.769531 L 248.832031 400.277344 L 254.652344 399.445312 L 252.15625 396.949219 L 245.507812 393.625 L 244.675781 391.132812 L 248.832031 391.960938 L 262.964844 397.78125 L 278.761719 401.9375 L 294.554688 404.433594 L 317.003906 405.265625 L 317.832031 406.09375 L 333.628906 406.925781 L 333.628906 405.265625 L 351.917969 405.265625 L 358.570312 403.601562 L 364.390625 400.277344 L 368.546875 397.78125 L 368.546875 391.132812 L 358.570312 386.144531 L 356.078125 383.648438 L 356.078125 381.15625 L 353.582031 381.15625 L 354.414062 376.167969 L 346.929688 379.492188 L 333.628906 381.984375 L 327.808594 384.480469 L 323.652344 387.804688 L 323.652344 383.648438 L 332.796875 377.828125 L 345.269531 376.167969 Z M 350.257812 374.503906 " fill-opacity="1" fill-rule="nonzero"/><path fill="#4a4135" d="M 579.710938 249.800781 L 580.542969 249.800781 L 582.207031 259.777344 L 583.035156 272.246094 L 584.699219 278.066406 L 585.53125 297.1875 L 584.699219 301.34375 L 584.699219 314.644531 L 585.53125 317.972656 L 586.363281 343.742188 L 584.699219 367.023438 L 583.035156 380.324219 L 582.207031 414.410156 L 582.207031 439.351562 L 579.710938 450.15625 L 577.21875 454.3125 L 574.722656 476.761719 L 571.398438 494.21875 L 568.902344 498.375 L 562.253906 502.53125 L 558.925781 503.363281 L 549.78125 501.703125 L 547.289062 499.207031 L 546.457031 495.050781 L 548.121094 494.21875 L 550.613281 499.207031 L 563.085938 499.207031 L 567.242188 495.882812 L 569.734375 490.0625 L 570.566406 476.761719 L 571.398438 475.929688 L 573.890625 444.339844 L 577.21875 431.867188 L 578.878906 426.878906 L 578.878906 419.398438 L 578.046875 413.578125 L 578.046875 382.816406 L 580.542969 365.359375 L 582.207031 359.539062 L 583.035156 357.875 L 583.035156 341.25 L 581.375 334.597656 L 580.542969 318.804688 L 579.710938 316.308594 L 579.710938 307.996094 L 581.375 290.535156 L 581.375 283.054688 L 579.710938 273.910156 L 578.878906 271.414062 L 578.878906 250.632812 Z M 579.710938 249.800781 " fill-opacity="1" fill-rule="nonzero"/><path fill="#453c30" d="M 312.015625 217.378906 L 312.847656 217.378906 L 314.507812 227.355469 L 321.160156 240.65625 L 328.640625 247.304688 L 336.125 251.464844 L 346.929688 254.789062 L 363.558594 254.789062 L 363.558594 256.453125 L 358.570312 258.113281 L 344.4375 258.113281 L 331.96875 253.957031 L 323.652344 248.136719 L 323.652344 251.464844 L 329.472656 268.921875 L 333.628906 280.5625 L 341.941406 295.523438 L 351.089844 308.828125 L 354.414062 312.984375 L 354.414062 314.644531 L 357.738281 311.320312 L 364.390625 297.1875 L 372.703125 281.390625 L 379.355469 268.089844 L 384.34375 254.789062 L 386.835938 246.476562 L 390.160156 243.148438 L 389.332031 250.632812 L 385.175781 263.933594 L 373.535156 288.042969 L 364.390625 304.671875 L 357.738281 317.972656 L 349.425781 331.273438 L 346.101562 336.261719 L 343.605469 340.417969 L 336.125 349.5625 L 328.640625 357.875 L 319.496094 367.023438 L 311.183594 373.671875 L 308.6875 376.996094 L 307.027344 376.996094 L 307.859375 372.839844 L 313.675781 366.191406 L 321.992188 359.539062 L 328.640625 352.890625 L 329.472656 351.226562 L 331.136719 351.226562 L 332.796875 347.902344 L 338.617188 341.25 L 349.425781 324.621094 L 353.582031 317.972656 L 352.75 314.644531 L 348.59375 310.488281 L 341.113281 301.34375 L 331.136719 283.886719 L 326.980469 273.078125 L 320.328125 253.125 L 317.003906 240.65625 L 311.183594 229.015625 L 311.183594 226.523438 L 309.519531 225.691406 L 312.847656 222.367188 L 311.183594 221.535156 Z M 312.015625 217.378906 " fill-opacity="1" fill-rule="nonzero"/><path fill="#e6d4bc" d="M 431.730469 419.398438 L 444.199219 419.398438 L 444.199219 421.058594 L 455.839844 421.058594 L 456.671875 421.890625 L 456.671875 426.046875 L 445.863281 427.710938 L 434.222656 431.867188 L 420.089844 437.6875 L 409.285156 441.011719 L 400.96875 442.675781 L 382.679688 442.675781 L 384.34375 433.53125 L 388.5 427.710938 L 390.992188 426.046875 L 413.441406 426.046875 L 420.921875 423.554688 Z M 431.730469 419.398438 " fill-opacity="1" fill-rule="nonzero"/><path fill="#62584a" d="M 568.902344 160.015625 L 570.566406 160.84375 L 572.230469 182.460938 L 575.554688 208.234375 L 575.554688 213.222656 L 573.0625 212.390625 L 571.398438 197.425781 L 570.566406 195.761719 L 568.074219 194.929688 L 568.902344 197.425781 L 571.398438 199.085938 L 571.398438 201.582031 L 568.074219 200.75 L 566.410156 197.425781 L 562.253906 199.917969 L 561.421875 200.75 L 570.566406 205.738281 L 571.398438 209.894531 L 569.734375 212.390625 L 558.925781 212.390625 L 558.925781 209.894531 L 568.902344 209.894531 L 568.902344 208.234375 L 564.746094 206.570312 L 556.433594 203.246094 L 557.265625 214.050781 L 555.601562 214.882812 L 554.769531 212.390625 L 552.277344 187.449219 L 551.445312 182.460938 L 551.445312 163.339844 L 553.9375 163.339844 L 553.9375 170.820312 L 560.589844 165.003906 L 563.085938 164.171875 L 565.578125 168.328125 L 568.074219 169.160156 L 568.074219 160.84375 Z M 568.902344 160.015625 " fill-opacity="1" fill-rule="nonzero"/><path fill="#454139" d="M 397.644531 231.511719 L 404.296875 233.171875 L 417.597656 239.824219 L 425.910156 245.644531 L 435.886719 254.789062 L 450.019531 268.921875 L 460.828125 284.71875 L 467.476562 295.523438 L 474.128906 308.828125 L 484.105469 330.441406 L 488.261719 339.585938 L 489.925781 344.574219 L 490.757812 353.71875 L 490.757812 370.347656 L 489.09375 382.816406 L 484.9375 392.792969 L 481.609375 397.78125 L 474.128906 402.769531 L 466.648438 402.769531 L 455.839844 401.105469 L 453.34375 399.445312 L 449.1875 400.277344 L 440.042969 404.433594 L 430.898438 406.925781 L 427.574219 406.925781 L 427.574219 408.589844 L 414.269531 410.253906 L 396.8125 410.253906 L 391.824219 409.421875 L 391.824219 407.757812 L 394.320312 406.925781 L 419.257812 405.265625 L 436.71875 401.105469 L 446.695312 396.949219 L 457.503906 391.132812 L 460.828125 391.132812 L 459.996094 393.625 L 455.007812 396.949219 L 455.007812 397.78125 L 462.488281 398.613281 L 474.128906 398.613281 L 480.78125 392.792969 L 484.105469 386.972656 L 488.261719 374.503906 L 488.261719 358.707031 L 487.429688 345.40625 L 483.273438 333.765625 L 476.625 320.464844 L 465.816406 297.1875 L 455.839844 281.390625 L 450.851562 274.742188 L 450.851562 273.078125 L 447.527344 271.414062 L 435.054688 258.113281 L 429.234375 252.292969 L 414.269531 241.488281 L 401.800781 235.667969 L 397.644531 233.171875 Z M 397.644531 231.511719 " fill-opacity="1" fill-rule="nonzero"/></svg>