<svg xmlns="http://www.w3.org/2000/svg" xmlns:xlink="http://www.w3.org/1999/xlink" width="500" zoomAndPan="magnify" viewBox="0 0 375 374.999991" height="500" preserveAspectRatio="xMidYMid meet" version="1.0"><defs><clipPath id="58f140c469"><path d="M 21 9.21875 L 354 9.21875 L 354 375 L 21 375 Z M 21 9.21875 " clip-rule="nonzero"/></clipPath></defs><g clip-path="url(#58f140c469)"><path fill="#cc785c" d="M 176.40625 10.269531 C 174.671875 10.796875 171.851562 13.167969 169.898438 15.742188 C 167.398438 19.03125 166.464844 20.003906 166.042969 19.742188 C 165.5 19.40625 165.652344 18.753906 166.601562 17.355469 C 167.730469 15.699219 167.726562 15.152344 166.582031 14.632812 C 165.1875 13.996094 164.46875 14.613281 163.011719 17.703125 C 162.292969 19.226562 161.582031 20.710938 161.433594 21.003906 C 161.035156 21.804688 159.933594 21.9375 160.234375 21.152344 C 160.386719 20.75 160.335938 20.617188 160.082031 20.773438 C 159.867188 20.90625 159.417969 21.855469 159.085938 22.886719 C 158.75 23.914062 158.238281 25.277344 157.945312 25.917969 C 157.394531 27.117188 156.777344 27.460938 156.777344 26.570312 C 156.777344 26.292969 156.582031 26 156.34375 25.921875 C 156.007812 25.808594 155.992188 25.253906 156.273438 23.558594 C 156.476562 22.339844 156.570312 21.277344 156.488281 21.195312 C 156.105469 20.8125 154.570312 22.3125 153.617188 24 C 152.382812 26.1875 151.546875 30.085938 151.210938 35.210938 C 150.984375 38.679688 150.925781 38.886719 150.121094 39.089844 C 149.113281 39.34375 147.488281 38.394531 147.226562 37.402344 C 147.003906 36.539062 145.683594 36.511719 144.660156 37.347656 C 144.242188 37.691406 143.804688 38.554688 143.691406 39.261719 C 143.445312 40.785156 144.261719 41.761719 146.652344 42.804688 C 147.949219 43.371094 148.164062 43.632812 148.375 44.898438 C 148.511719 45.691406 148.515625 46.511719 148.390625 46.714844 C 148.027344 47.304688 145.632812 48.425781 144.144531 48.703125 C 143.171875 48.886719 142.703125 49.199219 142.464844 49.828125 C 141.957031 51.167969 142.066406 52.023438 142.800781 52.414062 C 143.542969 52.8125 147.246094 53.546875 148.4375 53.535156 C 148.859375 53.53125 149.277344 53.722656 149.367188 53.964844 C 149.457031 54.207031 149.402344 56.253906 149.242188 58.511719 C 149.085938 60.785156 149.105469 64.851562 149.289062 67.621094 C 149.472656 70.371094 149.625 72.902344 149.628906 73.246094 C 149.632812 73.589844 149.84375 73.871094 150.101562 73.871094 C 150.359375 73.871094 151.078125 74.59375 151.703125 75.480469 C 152.324219 76.363281 153.085938 77.085938 153.390625 77.085938 C 153.964844 77.085938 155.347656 79.847656 155.347656 80.996094 C 155.347656 81.636719 156.792969 84.34375 158.742188 87.359375 C 159.410156 88.390625 160.441406 89.359375 161.476562 89.925781 C 163.734375 91.164062 164.535156 91.953125 165.015625 93.40625 C 165.550781 95.019531 165 95.628906 161.441406 97.363281 C 159.957031 98.089844 157.914062 99.203125 156.898438 99.839844 C 155.886719 100.476562 154.199219 101.378906 153.148438 101.847656 C 151.300781 102.667969 146.707031 106.09375 145.085938 107.863281 C 144.648438 108.339844 144.074219 109.351562 143.8125 110.105469 L 143.335938 111.484375 L 142.613281 110.253906 C 141.675781 108.664062 140.878906 101.988281 141.175781 98.167969 C 141.378906 95.542969 143.84375 85.347656 144.632812 83.875 C 145.113281 82.980469 145.085938 81.820312 144.582031 81.652344 C 144.28125 81.554688 144.292969 81.285156 144.628906 80.640625 C 145.3125 79.324219 146.078125 78.546875 146.542969 78.707031 C 146.898438 78.828125 149.277344 76.035156 149.277344 75.496094 C 149.277344 75.386719 148.988281 75.300781 148.632812 75.300781 C 148.28125 75.300781 147.8125 75.121094 147.59375 74.902344 C 147.300781 74.609375 146.855469 74.761719 145.914062 75.480469 C 145.210938 76.019531 144.632812 76.5625 144.632812 76.6875 C 144.632812 76.816406 144.011719 77.671875 143.253906 78.589844 C 141.757812 80.402344 140.730469 82.75 139.859375 86.375 C 139.550781 87.652344 138.894531 90.144531 138.40625 91.910156 C 137.382812 95.578125 137.28125 98.375 137.867188 106.199219 C 138.144531 109.851562 138.417969 111.496094 138.890625 112.296875 C 139.382812 113.140625 139.441406 113.527344 139.132812 113.945312 C 138.4375 114.902344 135.152344 116.335938 132.800781 116.714844 C 129.9375 117.175781 129.050781 117.847656 127.636719 120.617188 C 126.042969 123.742188 121.613281 134.558594 120.371094 138.371094 C 117.757812 146.386719 112.585938 159.867188 107.910156 170.851562 C 104.980469 177.738281 98.890625 187.464844 95.433594 190.78125 C 93.207031 192.917969 86.566406 197.96875 82.199219 200.855469 C 78.96875 202.988281 74.523438 206.222656 71.890625 208.351562 C 71.273438 208.847656 70.125 209.484375 69.339844 209.761719 C 65.816406 211.003906 64.078125 212.929688 64.96875 214.59375 C 65.167969 214.96875 65.332031 215.703125 65.332031 216.222656 C 65.332031 216.878906 65.953125 217.816406 67.386719 219.328125 C 69.679688 221.746094 71.015625 222.460938 73.269531 222.484375 C 74.113281 222.492188 75.363281 222.703125 76.054688 222.949219 C 77.980469 223.640625 81.621094 226.21875 85.035156 229.308594 C 88.3125 232.28125 95.765625 237.472656 96.753906 237.472656 C 97.761719 237.472656 100.695312 239.5625 101.070312 240.550781 C 101.847656 242.597656 99.078125 253.738281 95.746094 261.972656 C 94.730469 264.472656 94.070312 266.890625 93.582031 269.878906 C 93.195312 272.25 92.625 274.800781 92.3125 275.546875 C 91.40625 277.71875 89.980469 283.71875 89.980469 285.367188 C 89.980469 287.988281 93.316406 293.367188 98.597656 299.253906 C 100.441406 301.308594 102.152344 303.238281 102.398438 303.542969 L 103.953125 305.429688 C 104.839844 306.503906 105.300781 306.769531 106.28125 306.769531 C 108.632812 306.769531 108.34375 304.0625 105.691406 301.261719 C 103.625 299.074219 100.710938 293.628906 99.808594 290.257812 C 99.457031 288.9375 99.042969 287.933594 98.890625 288.03125 C 98.738281 288.125 98.503906 287.71875 98.375 287.125 C 98.246094 286.535156 98.003906 286.050781 97.835938 286.050781 C 97.667969 286.050781 97.296875 285.816406 97.007812 285.527344 C 96.550781 285.066406 96.457031 285.148438 96.261719 286.195312 C 96.140625 286.847656 96.140625 287.648438 96.261719 287.96875 C 96.5625 288.742188 95.953125 288.710938 95.230469 287.914062 C 93.796875 286.332031 93.585938 285.035156 94.140625 281.230469 C 94.425781 279.265625 95.042969 276.53125 95.507812 275.15625 C 95.972656 273.78125 96.464844 271.691406 96.605469 270.511719 C 96.875 268.210938 98.816406 262.175781 100.679688 257.832031 C 101.3125 256.359375 101.910156 254.75 102 254.261719 C 102.09375 253.769531 102.453125 252.722656 102.796875 251.9375 C 103.140625 251.152344 103.808594 249.171875 104.277344 247.535156 C 105.234375 244.203125 104.855469 244.371094 108.734375 245.523438 C 109.914062 245.871094 111.632812 246.175781 112.554688 246.199219 C 113.476562 246.222656 114.359375 246.371094 114.519531 246.53125 C 115.085938 247.101562 114.660156 250.570312 113.71875 253.015625 C 113.191406 254.386719 112.582031 256.355469 112.367188 257.386719 C 112.152344 258.417969 111.851562 259.261719 111.703125 259.261719 C 111.554688 259.261719 111.183594 258.777344 110.878906 258.191406 C 110.289062 257.050781 109.683594 256.847656 108.984375 257.546875 C 108.164062 258.363281 108.554688 259.398438 110.234375 260.875 C 112.101562 262.523438 111.984375 261.855469 111.648438 268.726562 C 111.535156 270.984375 111.128906 273.546875 110.539062 275.691406 C 109.46875 279.582031 108.71875 284.546875 108.363281 290.058594 C 108.136719 293.566406 107.566406 295.539062 106.957031 294.929688 C 106.433594 294.40625 106.398438 290.5625 106.867188 285.695312 C 107.144531 282.84375 107.296875 280.230469 107.207031 279.886719 C 106.960938 278.945312 105.449219 278.695312 104.613281 279.457031 C 104.070312 279.945312 103.910156 279.976562 103.902344 279.585938 C 103.878906 278.683594 102.863281 280.382812 102.238281 282.359375 C 101.367188 285.121094 102.046875 289.328125 103.972656 293.097656 C 104.753906 294.625 105.699219 296.207031 106.082031 296.613281 C 106.460938 297.019531 106.769531 297.589844 106.769531 297.878906 C 106.769531 298.789062 107.570312 299.269531 109.074219 299.261719 C 110.605469 299.25 113.554688 298.113281 113.554688 297.527344 C 113.554688 297.335938 113.125 296.667969 112.597656 296.042969 L 111.640625 294.90625 L 112.082031 287.878906 C 112.480469 281.449219 112.628906 280.515625 113.789062 276.933594 C 115.335938 272.15625 115.644531 268.886719 114.84375 265.816406 C 114.15625 263.183594 114.144531 262.8125 114.773438 263.640625 C 115.1875 264.191406 115.269531 263.90625 115.410156 261.480469 C 115.550781 259.078125 115.777344 258.296875 117.050781 255.851562 C 117.863281 254.289062 119.039062 251.75 119.660156 250.210938 C 120.28125 248.671875 121.34375 246.824219 122.015625 246.101562 C 123.691406 244.3125 124.859375 242.214844 125.140625 240.507812 C 125.527344 238.175781 126.777344 233.105469 127.332031 231.660156 C 127.984375 229.945312 127.980469 228.882812 127.3125 227.601562 C 127.019531 227.039062 126.777344 226.335938 126.773438 226.035156 C 126.769531 224.878906 125.015625 220.042969 124.125 218.730469 C 123.066406 217.167969 123.085938 217.246094 122.269531 212.132812 C 121.621094 208.101562 121.714844 202.253906 122.542969 194.964844 C 123.152344 189.570312 123.050781 188.382812 121.621094 184.28125 C 119.542969 178.308594 119.777344 176.546875 123.800781 167.824219 C 124.578125 166.132812 124.792969 164.796875 125.386719 157.875 C 126.078125 149.769531 126.984375 144.464844 128.011719 142.476562 C 129.164062 140.25 129.359375 141.121094 129.246094 147.902344 C 129.1875 151.488281 129.273438 155.753906 129.4375 157.386719 C 129.699219 159.941406 129.863281 160.445312 130.644531 161.0625 C 131.785156 161.960938 132.988281 161.828125 133.132812 160.789062 C 133.292969 159.667969 133.835938 159.363281 136.148438 159.082031 C 138.265625 158.828125 138.703125 159.101562 137.609375 160.003906 C 136.664062 160.789062 135.71875 163.222656 135.710938 164.902344 C 135.703125 166.222656 135.875 166.59375 136.863281 167.402344 C 137.5 167.925781 139.230469 169.578125 140.703125 171.078125 C 142.175781 172.578125 143.945312 174.132812 144.632812 174.535156 C 145.320312 174.9375 146.355469 175.761719 146.933594 176.363281 C 147.507812 176.96875 148.191406 177.460938 148.445312 177.460938 C 149.128906 177.460938 153.011719 169.332031 154.308594 165.179688 C 155.519531 161.300781 155.667969 159.773438 155.0625 157.375 C 154.847656 156.539062 154.191406 153.277344 153.597656 150.136719 C 153.003906 146.992188 151.640625 139.839844 150.5625 134.238281 C 148.503906 123.539062 148.070312 119.605469 148.488281 115.488281 C 148.742188 112.992188 148.738281 112.984375 147.667969 112.261719 C 146.917969 111.75 146.5625 111.191406 146.484375 110.382812 C 146.359375 109.097656 146.429688 109.0625 148.078125 109.660156 C 149.074219 110.019531 149.351562 109.992188 149.917969 109.480469 C 150.285156 109.148438 150.75 108.878906 150.953125 108.878906 C 151.1875 108.878906 151.398438 111.398438 151.535156 115.753906 C 151.6875 120.722656 151.953125 123.574219 152.488281 126.023438 C 152.894531 127.890625 153.628906 131.648438 154.117188 134.378906 C 156.429688 147.296875 157.820312 153.523438 158.664062 154.765625 L 159.511719 156.011719 L 162.671875 149.859375 C 164.40625 146.472656 166.867188 141.871094 168.132812 139.628906 L 170.433594 135.550781 L 169.34375 131.949219 C 167.175781 124.769531 166.816406 123.273438 166.273438 119.058594 C 165.96875 116.699219 165.238281 112.320312 164.644531 109.320312 C 163.484375 103.460938 163.367188 102.257812 163.921875 101.914062 C 164.117188 101.792969 164.28125 101.941406 164.28125 102.25 C 164.28125 102.992188 165.214844 102.960938 165.503906 102.210938 C 165.847656 101.3125 166.304688 101.984375 167.265625 104.78125 C 167.761719 106.234375 168.214844 108.601562 168.347656 110.460938 C 168.476562 112.214844 168.800781 114.546875 169.070312 115.640625 C 169.339844 116.734375 169.832031 119.878906 170.164062 122.628906 C 170.847656 128.292969 172.09375 133.167969 172.863281 133.167969 C 173.015625 133.167969 173.875 132.003906 174.765625 130.578125 C 175.660156 129.152344 177.78125 125.820312 179.480469 123.167969 C 181.179688 120.515625 183.414062 116.816406 184.441406 114.949219 C 190.722656 103.546875 194.015625 98.339844 197.140625 94.859375 C 199.078125 92.699219 199.617188 92.449219 200.375 93.359375 C 201.117188 94.257812 199.089844 97.980469 192.273438 108.203125 C 188.910156 113.253906 184.660156 120.089844 182.835938 123.398438 C 181.007812 126.710938 178.464844 131.183594 177.1875 133.347656 C 175.910156 135.507812 173.703125 139.367188 172.289062 141.917969 C 168.21875 149.257812 165.21875 154.480469 162.746094 158.53125 C 160.046875 162.953125 153.304688 175.683594 153.164062 176.625 C 153.039062 177.449219 153.898438 181.066406 154.351562 181.640625 C 154.539062 181.875 155.480469 182.328125 156.449219 182.652344 C 157.835938 183.109375 158.53125 183.648438 159.722656 185.171875 C 160.554688 186.234375 161.414062 187.105469 161.632812 187.105469 C 161.855469 187.105469 162.742188 187.667969 163.605469 188.351562 C 164.464844 189.039062 165.359375 189.601562 165.582031 189.601562 C 165.808594 189.605469 166.183594 188.8125 166.417969 187.84375 C 166.648438 186.871094 167.289062 185.371094 167.839844 184.503906 C 168.386719 183.640625 169.683594 181.339844 170.722656 179.390625 C 171.761719 177.445312 173.601562 174.246094 174.816406 172.28125 C 178.5 166.324219 184.078125 156.804688 186.4375 152.457031 C 188.433594 148.78125 193.246094 140.222656 197.796875 132.273438 C 199.476562 129.332031 201.984375 124.695312 206.769531 115.664062 C 208.28125 112.816406 210.058594 109.609375 210.722656 108.542969 C 211.390625 107.472656 212.117188 105.867188 212.347656 104.96875 C 212.757812 103.34375 212.761719 103.339844 214.683594 103.0625 C 215.742188 102.90625 217.332031 102.824219 218.21875 102.882812 C 219.726562 102.976562 219.851562 103.066406 220.261719 104.320312 C 220.882812 106.230469 220.574219 106.734375 218.769531 106.734375 C 216.640625 106.734375 215.230469 107.558594 214.015625 109.515625 C 211.238281 113.988281 207.304688 121.046875 204.65625 126.316406 C 203.042969 129.523438 200.910156 133.539062 199.910156 135.246094 C 198.304688 137.988281 195.835938 142.441406 190.972656 151.382812 C 190.167969 152.855469 187.832031 156.625 185.773438 159.761719 C 182.546875 164.683594 177.851562 172.785156 177.851562 173.433594 C 177.851562 173.722656 175.003906 178.636719 172.34375 182.933594 C 171.285156 184.640625 170.230469 186.347656 169.179688 188.058594 C 167.769531 190.359375 167.789062 190.992188 169.28125 191.835938 C 169.96875 192.226562 171.210938 193.167969 172.039062 193.933594 C 172.871094 194.695312 173.835938 195.324219 174.183594 195.328125 C 174.53125 195.332031 175.511719 195.652344 176.363281 196.039062 C 177.8125 196.695312 177.976562 196.703125 179.027344 196.160156 C 179.964844 195.675781 180.703125 195.632812 183.554688 195.878906 C 185.429688 196.042969 189.15625 196.191406 191.835938 196.210938 C 194.722656 196.230469 196.910156 196.402344 197.195312 196.628906 C 197.503906 196.875 198.710938 196.933594 200.558594 196.792969 C 203.277344 196.582031 203.539062 196.484375 205.210938 195.089844 C 206.183594 194.273438 207.699219 193.28125 208.582031 192.886719 C 209.460938 192.488281 212.269531 191.1875 214.824219 189.992188 C 217.378906 188.796875 219.632812 187.820312 219.835938 187.820312 C 220.035156 187.820312 220.730469 187.339844 221.375 186.75 C 222.019531 186.160156 222.703125 185.675781 222.894531 185.675781 C 223.441406 185.675781 222.570312 184.285156 220.492188 181.828125 C 219.449219 180.597656 217.46875 178.003906 216.097656 176.066406 C 214.722656 174.125 212.371094 171.421875 210.867188 170.050781 C 208.519531 167.90625 208.097656 167.339844 207.851562 165.992188 C 207.277344 162.855469 208.792969 162.722656 211.921875 165.632812 C 214.230469 167.78125 216.101562 169.082031 215.503906 168.121094 C 215.335938 167.855469 215.167969 167.425781 215.128906 167.167969 C 215.089844 166.910156 214.761719 166.429688 214.394531 166.097656 C 213.542969 165.320312 212.503906 163.683594 212.503906 163.113281 C 212.503906 162.339844 215.351562 165.402344 217.042969 167.996094 C 221.6875 175.113281 221.738281 175.136719 220.695312 169.773438 C 219.84375 165.378906 219.796875 159.644531 220.550781 151.660156 C 220.851562 148.464844 221.1875 145.527344 221.292969 145.132812 C 221.886719 142.964844 224.765625 136.015625 225.226562 135.632812 C 225.523438 135.386719 226.039062 134.65625 226.367188 134.011719 C 227.128906 132.527344 229.417969 130.746094 229.578125 131.511719 C 229.640625 131.800781 229.21875 132.972656 228.644531 134.121094 C 228.074219 135.265625 227.320312 137.089844 226.96875 138.167969 C 226.621094 139.25 225.964844 140.867188 225.515625 141.765625 C 223.679688 145.433594 222.644531 152.925781 222.964844 160.234375 C 223.164062 164.820312 223.4375 166.515625 223.921875 166.21875 C 224.648438 165.765625 225.460938 167.078125 225.59375 168.917969 C 226.078125 175.726562 226.957031 183.417969 227.289062 183.777344 C 227.871094 184.402344 229.882812 183.445312 230.597656 182.207031 C 230.914062 181.660156 231.9375 180.648438 232.867188 179.960938 C 236.730469 177.113281 241.441406 173.058594 244.253906 170.160156 C 245.902344 168.460938 247.550781 166.914062 247.917969 166.71875 C 249.109375 166.078125 248.683594 167.363281 247.152344 169.027344 C 245.53125 170.785156 245.425781 171.042969 246.441406 170.777344 C 247.671875 170.453125 246.914062 171.390625 243.476562 174.429688 C 241.699219 176.003906 240.1875 177.449219 240.125 177.644531 C 240.050781 177.863281 241.664062 177.996094 244.382812 177.996094 C 248.046875 177.996094 249.195312 178.136719 251.4375 178.867188 C 256.257812 180.429688 256.257812 181.492188 251.4375 181.023438 C 247.878906 180.675781 241.9375 180.902344 239.648438 181.476562 C 237.109375 182.117188 233.128906 184.074219 232.101562 185.191406 C 231.585938 185.753906 230.894531 186.792969 230.566406 187.507812 C 230.214844 188.261719 229.492188 189.03125 228.824219 189.359375 C 224.363281 191.550781 212.566406 196.417969 210.117188 197.078125 C 209.359375 197.28125 206.964844 197.746094 204.796875 198.109375 C 200.78125 198.777344 200.691406 198.777344 193.390625 197.875 C 191.46875 197.636719 188.757812 197.644531 185.09375 197.898438 C 180.367188 198.226562 179.5 198.203125 178.5 197.714844 C 177.117188 197.046875 176.972656 197.117188 176.054688 198.917969 C 175.660156 199.691406 175.128906 200.324219 174.871094 200.324219 C 174.464844 200.324219 172.058594 198.621094 166.980469 194.75 C 166.183594 194.140625 163.988281 192.289062 162.105469 190.640625 C 160.222656 188.992188 157.53125 186.839844 156.125 185.855469 C 154.714844 184.875 151.449219 182.382812 148.867188 180.320312 C 143.816406 176.289062 138.214844 171.992188 137.375 171.507812 C 137.089844 171.34375 136.308594 170.488281 135.636719 169.601562 C 134.957031 168.710938 134.117188 167.996094 133.746094 167.992188 C 133.378906 167.992188 132.828125 167.550781 132.515625 167.011719 C 131.53125 165.300781 128.113281 163.277344 128.671875 164.738281 C 128.777344 165.011719 128.394531 166.175781 127.820312 167.328125 C 127.246094 168.480469 126.773438 169.851562 126.773438 170.378906 C 126.773438 171.792969 126.417969 172.460938 125.667969 172.460938 C 125.261719 172.460938 124.9375 172.773438 124.839844 173.265625 C 124.28125 176.035156 124.296875 176.414062 124.996094 177.113281 C 125.382812 177.5 125.703125 178.222656 125.703125 178.71875 C 125.703125 179.820312 126.972656 180.414062 128.445312 180.003906 C 130.664062 179.382812 132.457031 180.59375 133.003906 183.078125 C 133.175781 183.867188 133.664062 184.472656 134.566406 185.03125 C 135.289062 185.472656 136.523438 186.414062 137.308594 187.121094 C 140.960938 190.402344 149.550781 196.542969 152.925781 198.28125 C 157.121094 200.441406 160.011719 202.34375 162.890625 204.835938 C 163.992188 205.792969 165.882812 207.28125 167.089844 208.144531 C 169.261719 209.699219 169.773438 210.410156 168.148438 209.617188 C 167.335938 209.222656 167.335938 209.230469 168.207031 209.984375 C 168.699219 210.410156 170.007812 211.21875 171.121094 211.78125 C 172.234375 212.339844 173.199219 212.976562 173.273438 213.191406 C 173.523438 213.949219 173.128906 216.398438 172.757812 216.398438 C 172.363281 216.398438 167.660156 212.890625 165.125 210.703125 C 161.429688 207.519531 157.683594 204.710938 153.578125 202.039062 C 151.132812 200.445312 148.402344 198.472656 147.507812 197.652344 C 145.027344 195.371094 140.480469 193.027344 133.4375 190.398438 C 131.125 189.535156 131.003906 189.4375 131.1875 188.519531 C 131.332031 187.792969 131.160156 187.34375 130.492188 186.71875 C 129.722656 185.996094 129.5 185.945312 128.875 186.335938 C 127.90625 186.941406 125.96875 186.308594 124.992188 185.066406 C 123.863281 183.628906 124.148438 184.824219 125.5625 187.441406 C 126.777344 189.691406 126.832031 189.9375 126.539062 191.769531 C 126.324219 193.117188 126.066406 193.714844 125.699219 193.714844 C 124.859375 193.714844 124.558594 198.871094 125.003906 205.5 C 125.488281 212.707031 125.957031 214.46875 127.839844 216.171875 C 128.628906 216.882812 129.273438 217.621094 129.273438 217.8125 C 129.273438 218.335938 130.527344 218.898438 131.707031 218.898438 C 132.285156 218.898438 133.378906 219.15625 134.136719 219.472656 C 135.21875 219.925781 136.160156 219.996094 138.554688 219.8125 C 141.617188 219.578125 146.070312 220.191406 146.835938 220.957031 C 147.359375 221.480469 144.472656 222.777344 141.71875 223.257812 C 139.71875 223.609375 138.832031 223.578125 136.128906 223.058594 C 134.359375 222.714844 132.5 222.542969 131.996094 222.667969 C 131.210938 222.867188 130.964844 222.710938 130.3125 221.601562 C 129.574219 220.351562 128.664062 219.613281 127.859375 219.613281 C 127.359375 219.613281 128.613281 221.972656 129.832031 223.332031 C 130.585938 224.167969 130.832031 224.273438 131.09375 223.867188 C 131.367188 223.4375 131.46875 223.441406 131.769531 223.898438 C 132.421875 224.890625 132.578125 226.777344 132.179688 228.828125 C 131.960938 229.945312 131.675781 232.503906 131.546875 234.503906 L 131.3125 238.144531 L 132.347656 238.378906 C 132.914062 238.503906 133.652344 238.683594 133.980469 238.769531 C 134.308594 238.859375 134.734375 238.65625 134.921875 238.320312 C 135.316406 237.613281 136.113281 237.597656 141.015625 238.1875 C 145.402344 238.714844 146.953125 239.230469 146.953125 240.152344 C 146.953125 240.621094 146.679688 240.90625 146.152344 240.980469 C 145.710938 241.042969 145.347656 241.226562 145.347656 241.386719 C 145.347656 242 143.488281 242.132812 142.410156 241.59375 C 141 240.890625 138.527344 240.894531 136.046875 241.605469 C 134.976562 241.914062 133.371094 242.371094 132.488281 242.621094 C 130.636719 243.148438 130.601562 243.203125 128.285156 249.257812 C 125.320312 257.015625 125.398438 256.6875 123.730469 268.546875 C 122.011719 280.765625 120.324219 290.140625 116.589844 308.199219 C 114.382812 318.867188 113 327.53125 112.132812 336.144531 C 111.921875 338.253906 111.417969 341.707031 111.019531 343.824219 C 110.609375 345.996094 110.203125 348.171875 109.804688 350.347656 C 109.535156 351.820312 109.230469 353.269531 109.125 353.5625 C 108.832031 354.371094 107.914062 362.410156 107.488281 367.851562 C 107.28125 370.503906 107.015625 373.195312 106.898438 373.835938 L 106.691406 374.996094 L 268.597656 374.996094 L 267.898438 373.625 C 267.515625 372.871094 266.859375 370.902344 266.445312 369.25 C 265.515625 365.539062 263.300781 358.222656 259.640625 346.777344 C 253.898438 328.804688 251.835938 321.785156 250.042969 314.121094 C 249.3125 311.003906 245.324219 301.425781 243.136719 297.539062 C 242.472656 296.359375 241.742188 294.15625 241.222656 291.746094 C 239.773438 285.054688 238.601562 281.371094 236.519531 277.007812 C 234.984375 273.785156 234.179688 272.523438 233.125 271.6875 C 232.367188 271.085938 230.839844 269.449219 229.734375 268.054688 C 228.628906 266.65625 226.289062 263.988281 224.539062 262.125 C 222.789062 260.265625 220.855469 258.015625 220.246094 257.125 C 219.640625 256.238281 217.785156 253.824219 216.125 251.761719 L 213.109375 248.007812 L 211.46875 247.972656 C 210.5625 247.953125 208.996094 247.566406 207.984375 247.113281 L 206.148438 246.292969 L 205.167969 247.0625 C 204.625 247.488281 203.675781 247.832031 203.039062 247.832031 C 201.695312 247.832031 197.1875 246.75 194.109375 245.691406 C 192.933594 245.285156 190.851562 244.78125 189.484375 244.566406 C 188.117188 244.355469 186.644531 243.949219 186.214844 243.671875 C 185.707031 243.335938 183.609375 243.035156 180.175781 242.804688 C 174.878906 242.449219 174.078125 242.269531 173.214844 241.230469 C 172.824219 240.757812 172.828125 240.507812 173.230469 239.753906 C 173.679688 238.914062 173.863281 238.855469 175.695312 239.007812 C 176.785156 239.09375 179.363281 239.5 181.425781 239.90625 C 183.488281 240.308594 186.382812 240.820312 187.855469 241.035156 C 189.328125 241.25 192.140625 241.894531 194.105469 242.46875 C 197.722656 243.523438 203.875 244.441406 204.949219 244.089844 C 205.273438 243.984375 206.160156 242.976562 206.921875 241.851562 C 208.375 239.710938 208.359375 239.859375 207.328125 237.382812 C 207.132812 236.917969 207.238281 236.757812 207.730469 236.761719 C 208.792969 236.773438 208.402344 236.339844 216.007812 245.867188 C 218.6875 249.21875 228.300781 259.554688 236.28125 267.65625 C 244.082031 275.578125 250.015625 281.988281 253.632812 286.410156 C 255.320312 288.472656 257.492188 290.964844 258.457031 291.945312 C 259.421875 292.925781 262.128906 295.980469 264.472656 298.730469 C 266.820312 301.484375 270.199219 305.339844 271.980469 307.304688 C 273.765625 309.269531 275.925781 311.839844 276.78125 313.019531 C 277.640625 314.199219 279.242188 316.195312 280.339844 317.460938 C 285.242188 323.097656 289.753906 328.882812 290.535156 330.523438 C 292.472656 334.601562 293.914062 336.511719 296.761719 338.792969 C 299.316406 340.835938 299.757812 341.0625 301.234375 341.0625 C 303.292969 341.0625 304.328125 340.179688 304.082031 338.636719 C 303.925781 337.621094 303.96875 337.585938 305.273438 337.625 L 306.625 337.667969 L 306.722656 335.523438 C 306.863281 332.523438 307.003906 332.234375 307.921875 333.066406 C 308.566406 333.648438 308.523438 333.425781 307.589844 331.417969 C 306.996094 330.140625 306.0625 327.890625 305.511719 326.414062 C 304.414062 323.476562 302.628906 319.980469 300.953125 317.484375 C 299.921875 315.953125 291.523438 306.773438 282.335938 297.136719 C 276.648438 291.171875 267.324219 281.027344 261.636719 274.621094 C 256.179688 268.472656 250.808594 262.902344 248.582031 261.082031 C 246.703125 259.550781 228.996094 242.222656 226.101562 239.078125 C 222.808594 235.507812 220.25 233.148438 218.933594 232.46875 C 217.335938 231.644531 215.8125 229.996094 215.792969 229.078125 C 215.769531 228.171875 216.429688 226.398438 216.789062 226.398438 C 216.9375 226.398438 217.242188 226.621094 217.464844 226.890625 C 217.691406 227.160156 218.503906 227.480469 219.277344 227.605469 C 220.464844 227.796875 220.9375 228.164062 222.394531 230.058594 C 225.460938 234.046875 243.730469 252.472656 244.613281 252.472656 C 244.824219 252.472656 245.09375 252.074219 245.21875 251.582031 C 245.472656 250.566406 246.132812 250.425781 246.8125 251.246094 C 247.882812 252.539062 249.152344 252.820312 253.820312 252.8125 C 256.339844 252.8125 259.398438 252.816406 260.617188 252.828125 C 263.59375 252.855469 263.703125 252.617188 262.988281 247.621094 C 261.949219 240.34375 262.753906 230.265625 264.8125 224.8125 C 265.261719 223.621094 266.273438 220.71875 267.0625 218.359375 C 267.847656 216.003906 269.480469 211.210938 270.691406 207.714844 C 274.019531 198.085938 274.972656 190.769531 273.925781 182.933594 C 273.285156 178.160156 272.605469 176.542969 267.574219 167.816406 C 266.496094 165.949219 263.53125 160.324219 260.988281 155.316406 C 255.445312 144.414062 251.582031 137.304688 250.878906 136.722656 C 250.597656 136.488281 250.367188 136.085938 250.367188 135.835938 C 250.367188 135.582031 249.441406 134.429688 248.3125 133.273438 C 247.183594 132.121094 245.414062 129.734375 244.382812 127.972656 C 243.355469 126.214844 241.90625 124.019531 241.167969 123.09375 C 239.730469 121.292969 233.371094 116.175781 230.722656 114.691406 C 227.621094 112.949219 221.503906 108.925781 221.191406 108.421875 C 220.886719 107.925781 224.050781 108.433594 225.886719 109.179688 C 227.984375 110.027344 232.425781 112.65625 235.789062 115.039062 C 237.382812 116.167969 239.058594 117.09375 239.511719 117.09375 C 239.972656 117.09375 240.953125 117.679688 241.742188 118.433594 C 243.078125 119.699219 245.292969 120.855469 245.667969 120.480469 C 245.761719 120.386719 245.652344 120.308594 245.425781 120.308594 C 245.195312 120.308594 245 119.945312 244.996094 119.503906 C 244.972656 118.15625 244.253906 117.285156 240.671875 114.265625 L 237.230469 111.367188 L 236.976562 109.351562 C 236.753906 107.570312 236.515625 107.113281 234.882812 105.382812 C 232.460938 102.8125 226.300781 97.460938 224.363281 96.238281 C 223.519531 95.710938 222.085938 94.707031 221.179688 94.015625 C 220.273438 93.324219 218.710938 92.34375 217.710938 91.835938 C 215.457031 90.691406 210.144531 88.875 209.054688 88.875 C 208.609375 88.875 206.671875 88.3125 204.746094 87.625 C 202.824219 86.9375 201 86.375 200.695312 86.375 C 199.652344 86.375 199.269531 85.632812 199.792969 84.621094 C 200.054688 84.113281 200.476562 83.253906 200.730469 82.710938 C 200.984375 82.171875 201.289062 81.730469 201.40625 81.730469 C 201.527344 81.730469 202.5 82.855469 203.570312 84.230469 C 204.832031 85.847656 205.777344 86.734375 206.242188 86.738281 C 206.828125 86.742188 206.863281 86.804688 206.441406 87.074219 C 205.675781 87.558594 206.242188 87.925781 207.324219 87.65625 C 208.019531 87.480469 208.203125 87.257812 208.050781 86.777344 C 207.921875 86.367188 208.246094 85.625 208.933594 84.765625 C 209.527344 84.011719 210.113281 83.023438 210.226562 82.5625 C 210.351562 82.070312 210.703125 81.730469 211.089844 81.730469 C 211.835938 81.730469 213.640625 83.308594 214.257812 84.5 C 214.738281 85.433594 215.597656 85.527344 216.6875 84.761719 C 217.570312 84.144531 218.03125 84.558594 217.679688 85.664062 C 217.515625 86.183594 217.140625 86.375 216.269531 86.375 C 215.308594 86.375 215.054688 86.53125 214.925781 87.21875 C 214.816406 87.789062 214.988281 88.203125 215.453125 88.492188 C 216.332031 89.039062 216.597656 88.78125 216.105469 87.863281 C 215.734375 87.171875 215.757812 87.164062 216.792969 87.679688 C 217.421875 87.996094 217.765625 88.382812 217.621094 88.617188 C 217.484375 88.835938 217.886719 88.652344 218.511719 88.207031 C 219.960938 87.171875 220.300781 86.511719 220.402344 84.539062 C 220.507812 82.535156 220.234375 82.085938 218.910156 82.085938 L 217.859375 82.085938 L 217.859375 74.128906 L 219.085938 75.429688 C 220.503906 76.929688 221.433594 76.867188 221.433594 75.261719 C 221.433594 74.691406 221.109375 73.628906 220.71875 72.894531 C 219.316406 70.28125 219.898438 69.738281 222.65625 71.078125 C 224 71.730469 224.410156 71.789062 225.175781 71.441406 L 226.09375 71.023438 L 225.214844 69.289062 C 224.730469 68.335938 223.789062 67.078125 223.125 66.492188 C 221.519531 65.085938 219.644531 62.324219 219.644531 61.371094 C 219.644531 60.746094 219.792969 60.652344 220.449219 60.847656 C 221.476562 61.152344 221.5625 61.214844 227.027344 65.519531 C 232.429688 69.777344 233.15625 70.507812 232.582031 71.082031 C 232.277344 71.386719 231.828125 71.246094 230.804688 70.535156 C 229.40625 69.570312 228.214844 69.199219 229.40625 70.101562 C 229.960938 70.523438 230.183594 71.003906 230.335938 72.109375 C 230.351562 72.21875 230.855469 72.671875 231.457031 73.117188 C 232.484375 73.878906 232.65625 73.898438 234.363281 73.460938 L 236.175781 72.996094 L 237.78125 74.773438 C 238.667969 75.75 240.175781 77.710938 241.132812 79.132812 C 242.988281 81.882812 246.515625 90.042969 246.199219 90.859375 C 246.097656 91.128906 246.347656 92.359375 246.753906 93.59375 C 248.9375 100.207031 249.015625 100.804688 249.148438 112.621094 C 249.214844 118.707031 249.433594 124.449219 249.632812 125.378906 C 249.832031 126.308594 249.90625 127.304688 249.796875 127.589844 C 249.589844 128.132812 250.984375 134.207031 251.433594 134.703125 C 251.574219 134.863281 251.792969 134.007812 251.917969 132.808594 C 252.042969 131.609375 252.589844 129.550781 253.128906 128.238281 L 254.117188 125.84375 L 254.089844 116.558594 C 254.0625 108.175781 253.964844 106.714844 253.089844 101.554688 C 252.078125 95.59375 250.070312 88.957031 248.171875 85.300781 C 247.613281 84.222656 247.152344 83.070312 247.152344 82.746094 C 247.152344 81.804688 243.769531 77.050781 240.910156 73.976562 C 239.46875 72.425781 236.628906 69.71875 234.59375 67.960938 C 232.5625 66.203125 229.613281 63.542969 228.042969 62.054688 C 226.46875 60.5625 223.960938 58.644531 222.46875 57.789062 C 220.925781 56.902344 219.511719 55.800781 219.183594 55.226562 L 218.609375 54.226562 L 219.777344 54.226562 C 221.609375 54.226562 225.945312 55.855469 227.863281 57.261719 C 228.820312 57.964844 230.09375 59.339844 230.695312 60.3125 C 231.292969 61.285156 231.871094 62.085938 231.980469 62.085938 C 232.085938 62.085938 232.550781 61.835938 233.007812 61.539062 C 233.734375 61.0625 233.839844 60.71875 233.800781 58.949219 C 233.757812 56.917969 233.75 56.90625 232.726562 57.015625 C 232.019531 57.089844 231.402344 56.851562 230.761719 56.25 C 229.421875 54.996094 226.644531 53.707031 223.753906 53.003906 C 221.191406 52.382812 219.011719 51.421875 220.003906 51.359375 C 220.296875 51.339844 220.148438 51.167969 219.671875 50.976562 C 218.828125 50.640625 218.824219 50.617188 219.503906 50.140625 C 220.222656 49.640625 221.339844 49.476562 223.636719 49.542969 C 224.546875 49.570312 225.449219 49.964844 226.585938 50.832031 C 228.625 52.390625 229.648438 52.480469 229.640625 51.101562 C 229.632812 49.015625 228.453125 47.980469 225.292969 47.289062 C 224.761719 47.171875 223.585938 46.4375 222.679688 45.652344 C 221.773438 44.867188 220.871094 44.222656 220.671875 44.222656 C 220.160156 44.222656 219.277344 43.28125 219.542969 43.015625 C 219.664062 42.894531 220.328125 42.796875 221.015625 42.796875 C 222.539062 42.796875 225.363281 41.21875 225.363281 40.367188 C 225.363281 39.957031 226.222656 39.335938 227.9375 38.503906 C 231.269531 36.894531 231.628906 36.304688 230.109375 34.9375 C 228.835938 33.789062 228.386719 33.78125 223.792969 34.832031 C 221.96875 35.25 220.324219 35.34375 217.445312 35.191406 C 214.007812 35.007812 213.4375 34.882812 212.519531 34.113281 L 211.480469 33.238281 L 214.039062 32.984375 C 218.019531 32.59375 219.953125 31.429688 220.507812 29.101562 C 221.125 26.496094 219.554688 25.96875 217.410156 28.0625 C 216.074219 29.359375 215.964844 29.398438 213.644531 29.328125 C 209.894531 29.214844 208.992188 28.9375 207.289062 27.367188 C 206.425781 26.570312 205.714844 25.777344 205.714844 25.605469 C 205.714844 25.433594 206.671875 25.292969 207.839844 25.292969 C 209.574219 25.292969 210.144531 25.132812 210.964844 24.425781 C 212.53125 23.066406 211.738281 22.636719 207.582031 22.601562 C 204.695312 22.574219 203.839844 22.433594 202.53125 21.75 C 201.417969 21.171875 200.097656 20.875 198.066406 20.742188 C 196.476562 20.640625 194.980469 20.453125 194.738281 20.324219 C 194.441406 20.167969 194.9375 19.359375 196.257812 17.847656 C 197.332031 16.613281 198.214844 15.5 198.214844 15.375 C 198.214844 14.828125 196.226562 13.148438 195.582031 13.148438 C 195.1875 13.148438 194.515625 13.476562 194.089844 13.875 L 193.3125 14.605469 L 191.386719 13.824219 C 188.476562 12.640625 183.101562 12.726562 180.253906 14.007812 C 179.117188 14.515625 178.050781 14.933594 177.878906 14.933594 C 177.285156 14.933594 178.445312 11.992188 179.308594 11.324219 C 180.042969 10.753906 180.09375 10.597656 179.640625 10.296875 C 179.015625 9.886719 177.707031 9.875 176.40625 10.269531 M 192.402344 16.71875 C 191.902344 17.113281 191.15625 17.433594 190.746094 17.433594 C 190.335938 17.433594 190 17.648438 190 17.914062 C 190 18.179688 189.675781 18.6875 189.285156 19.042969 C 188.277344 19.953125 188.390625 20.414062 189.550781 20.125 C 190.707031 19.839844 192.351562 18.375 193.074219 16.988281 C 193.6875 15.816406 193.597656 15.78125 192.402344 16.71875 M 296.859375 17.628906 C 289.726562 19.515625 285.316406 22.15625 281.40625 26.867188 C 275.992188 33.40625 274.9375 39.605469 278.363281 44.765625 C 279.964844 47.179688 281.210938 47.796875 284.472656 47.796875 C 286.773438 47.796875 286.820312 47.777344 287.382812 46.601562 C 287.929688 45.449219 287.917969 45.355469 287.019531 43.929688 C 286.15625 42.5625 285.699219 42.292969 283.777344 42.003906 C 283.390625 41.945312 282.691406 41.335938 282.226562 40.648438 C 281.511719 39.605469 281.402344 39.101562 281.558594 37.539062 C 281.945312 33.652344 286.121094 28.101562 290.390625 25.804688 C 293.800781 23.96875 303.066406 19.882812 304.480469 19.589844 C 305.070312 19.46875 305.539062 19.214844 305.519531 19.027344 C 305.5 18.839844 305.738281 18.492188 306.054688 18.261719 C 307.007812 17.554688 306.109375 17.164062 303.054688 16.945312 C 300.707031 16.78125 299.601562 16.902344 296.859375 17.628906 M 169.253906 38.0625 C 168.335938 38.683594 167.414062 39.292969 166.488281 39.902344 C 165.46875 40.570312 164.636719 41.253906 164.636719 41.417969 C 164.636719 41.585938 164.34375 41.722656 163.988281 41.722656 C 163.597656 41.722656 163.101562 42.226562 162.738281 42.984375 C 161.980469 44.578125 161.972656 45.296875 162.722656 45.296875 C 163.042969 45.296875 163.511719 45.574219 163.761719 45.917969 C 164.578125 47.035156 162.742188 50.195312 161.523438 49.765625 C 160.789062 49.507812 159.613281 51.371094 159.699219 52.65625 C 159.78125 53.863281 158.863281 55.296875 158.011719 55.296875 C 157.488281 55.296875 157.136719 56.09375 157.136719 57.265625 C 157.136719 57.792969 157.535156 58.390625 158.207031 58.871094 C 158.96875 59.410156 159.277344 59.925781 159.277344 60.648438 C 159.277344 61.210938 159.136719 61.722656 158.960938 61.785156 C 158.777344 61.855469 158.769531 62.667969 158.9375 63.691406 C 159.101562 64.675781 159.246094 66.28125 159.257812 67.265625 C 159.273438 68.496094 159.625 69.769531 160.394531 71.371094 C 161.003906 72.648438 161.714844 74.417969 161.972656 75.300781 C 162.683594 77.761719 165.226562 84.167969 165.921875 85.242188 C 168.242188 88.828125 171.722656 91.605469 175.144531 92.601562 C 177.351562 93.242188 179.332031 93.324219 179.859375 92.796875 C 180.058594 92.597656 181.660156 92.1875 183.414062 91.890625 C 187.691406 91.160156 188.667969 90.8125 189.675781 89.671875 C 190.265625 89.003906 190.3125 88.882812 189.820312 89.28125 C 188.867188 90.054688 186.757812 91.109375 186.558594 90.914062 C 186.472656 90.828125 186.890625 90.554688 187.484375 90.308594 C 188.082031 90.0625 188.570312 89.746094 188.570312 89.613281 C 188.570312 89.476562 189.253906 88.984375 190.085938 88.523438 C 190.921875 88.058594 191.847656 87.367188 192.140625 86.988281 C 192.4375 86.605469 192.957031 86.035156 193.300781 85.71875 C 193.644531 85.402344 193.925781 84.699219 193.925781 84.152344 C 193.925781 83.605469 194.097656 83.160156 194.308594 83.160156 C 194.527344 83.160156 194.59375 82.855469 194.464844 82.445312 C 194.339844 82.050781 194.398438 81.730469 194.59375 81.730469 C 194.792969 81.730469 194.945312 81.449219 194.9375 81.105469 C 194.886719 79.207031 197.21875 70.777344 197.957031 70.1875 C 198.347656 69.875 198.539062 68.691406 198.683594 65.71875 C 198.824219 62.882812 199.050781 61.410156 199.453125 60.800781 C 199.964844 60.015625 199.972656 59.582031 199.53125 56.570312 C 198.992188 52.925781 198.722656 52.441406 194.875 48.160156 C 193.90625 47.082031 192.699219 45.554688 192.199219 44.765625 C 190.023438 41.339844 188.933594 40.835938 188.914062 43.242188 C 188.902344 45.082031 188.378906 45.84375 186.960938 46.085938 C 186.371094 46.183594 185.628906 46.378906 185.3125 46.515625 C 184.882812 46.703125 184.496094 46.367188 183.824219 45.226562 C 182.578125 43.121094 180.5 40.761719 178.804688 39.535156 C 177.066406 38.277344 176.703125 38.25 176.992188 39.402344 C 177.121094 39.910156 177.0625 40.292969 176.859375 40.292969 C 176.660156 40.292969 176.328125 41.28125 176.113281 42.488281 C 175.902344 43.695312 175.628906 44.78125 175.511719 44.898438 C 175.191406 45.21875 174.324219 43.898438 173.941406 42.519531 C 173.757812 41.855469 172.957031 40.605469 172.160156 39.742188 C 171.363281 38.875 170.710938 38.003906 170.710938 37.800781 C 170.710938 37.28125 170.304688 37.351562 169.253906 38.0625 M 177.753906 42.015625 C 176.789062 43.125 176.5625 44.03125 176.707031 46.277344 L 176.84375 48.511719 L 178.1875 48.511719 C 179.058594 48.511719 179.746094 48.269531 180.152344 47.824219 C 180.792969 47.113281 180.808594 45.980469 180.175781 45.960938 C 179.28125 45.933594 178.972656 45.191406 179.167969 43.539062 C 179.390625 41.632812 178.71875 40.910156 177.753906 42.015625 M 256.617188 43.769531 C 255.054688 44.152344 254.914062 44.558594 255.085938 48.148438 C 255.453125 55.816406 259.132812 59.617188 267.675781 61.164062 C 269.683594 61.527344 269.816406 61.617188 270.042969 62.714844 C 270.757812 66.214844 276.074219 70.292969 281.523438 71.527344 C 287.050781 72.777344 291.378906 72.542969 294.945312 70.796875 C 296.53125 70.023438 297.007812 69.566406 297.578125 68.28125 C 298.5 66.191406 298.183594 63.890625 296.742188 62.25 C 295.746094 61.117188 291.164062 58.871094 289.84375 58.871094 C 289.210938 58.871094 287.488281 60.675781 287.734375 61.078125 C 287.820312 61.214844 288.644531 61.441406 289.566406 61.582031 C 290.699219 61.75 291.570312 62.15625 292.238281 62.824219 C 293.511719 64.097656 293.488281 64.636719 292.132812 65.4375 C 291.242188 65.960938 290.195312 66.09375 286.683594 66.125 C 281.339844 66.171875 279.246094 65.582031 277.367188 63.5 C 275.546875 61.488281 275.421875 60.582031 276.648438 58.3125 C 277.5 56.738281 277.609375 56.253906 277.316406 55.417969 C 277.035156 54.613281 276.679688 54.367188 275.542969 54.179688 C 273.761719 53.886719 273.199219 54.183594 271.757812 56.191406 C 271.125 57.074219 270.382812 57.796875 270.109375 57.796875 C 269.839844 57.796875 268.539062 57.554688 267.222656 57.253906 C 264.132812 56.550781 261.347656 54.945312 260.003906 53.089844 C 258.996094 51.695312 258.9375 51.4375 258.9375 48.125 C 258.9375 45.425781 258.8125 44.503906 258.378906 44.070312 C 258.070312 43.761719 257.707031 43.527344 257.574219 43.550781 C 257.441406 43.574219 257.007812 43.671875 256.617188 43.769531 M 306.921875 44.511719 C 306.101562 44.570312 305.242188 44.84375 305.015625 45.121094 C 304.703125 45.496094 304.042969 45.570312 302.347656 45.410156 C 299.503906 45.144531 298.230469 45.4375 298.230469 46.363281 C 298.230469 47.390625 299.121094 47.703125 302.878906 47.980469 C 305.28125 48.15625 306.839844 48.484375 308.234375 49.101562 C 310.964844 50.316406 311.609375 51.308594 311.691406 54.40625 C 311.726562 55.78125 311.808594 57.289062 311.871094 57.753906 C 311.964844 58.464844 311.746094 58.691406 310.578125 59.097656 C 309.804688 59.371094 308.890625 59.847656 308.546875 60.15625 C 308.203125 60.46875 307.324219 60.929688 306.589844 61.183594 C 305.484375 61.5625 305.050781 61.554688 304.078125 61.148438 C 302.347656 60.425781 300.832031 60.515625 300.375 61.371094 C 299.570312 62.871094 301.425781 64.226562 304.285156 64.226562 C 305.800781 64.226562 308.292969 65.671875 309.726562 67.375 C 310.246094 67.992188 311.109375 69.386719 311.640625 70.476562 C 312.554688 72.347656 312.601562 72.675781 312.449219 76.332031 C 312.3125 79.671875 312.152344 80.496094 311.28125 82.273438 C 309.703125 85.496094 305.957031 89.171875 301.496094 91.863281 C 294.78125 95.921875 292.730469 96.3125 276.886719 96.539062 C 271.140625 96.625 266.277344 96.789062 266.082031 96.910156 C 265.886719 97.035156 265.726562 97.914062 265.726562 98.867188 L 265.726562 100.605469 L 267.601562 101.257812 C 269.230469 101.828125 270.628906 101.910156 278.226562 101.890625 C 286.644531 101.867188 287.195312 101.824219 292.59375 100.714844 C 301.925781 98.796875 305.378906 97.410156 309.628906 93.875 C 315.277344 89.171875 318.476562 82.210938 318.171875 75.28125 C 318.078125 73.058594 317.828125 72.117188 316.765625 69.925781 C 316.054688 68.460938 315.378906 66.984375 315.261719 66.644531 C 315.140625 66.300781 314.234375 65.523438 313.246094 64.914062 C 312.257812 64.308594 311.449219 63.679688 311.449219 63.515625 C 311.449219 63.355469 312.050781 62.914062 312.789062 62.535156 C 314.507812 61.648438 315.566406 60.0625 316.5 56.988281 C 317.3125 54.320312 317.246094 52.34375 316.246094 49.515625 C 315.457031 47.28125 314.171875 46.136719 311.480469 45.277344 C 308.582031 44.351562 308.730469 44.375 306.921875 44.511719 M 53.726562 52.75 C 51.5625 53.324219 48.945312 54.128906 47.90625 54.542969 C 46.78125 54.992188 45.21875 55.296875 44.039062 55.296875 C 41.820312 55.296875 41.589844 55.804688 43.386719 56.730469 C 43.964844 57.03125 45.355469 57.800781 46.476562 58.449219 L 48.519531 59.621094 L 51.058594 58.507812 C 55.253906 56.664062 57.875 56.277344 64.886719 56.457031 C 68.277344 56.542969 71.050781 56.5 71.050781 56.355469 C 71.050781 55.824219 67.21875 53.5 65.15625 52.777344 C 61.617188 51.542969 58.320312 51.535156 53.726562 52.75 M 183.746094 52.980469 C 182.566406 53.246094 181.074219 53.375 180.429688 53.265625 C 179.09375 53.042969 177.851562 53.882812 177.851562 55.015625 C 177.851562 55.753906 179.730469 56.726562 181.160156 56.726562 C 181.761719 56.726562 182.003906 56.945312 182.046875 57.523438 C 182.082031 57.964844 182.285156 58.382812 182.503906 58.457031 C 182.722656 58.527344 183.046875 58.972656 183.226562 59.441406 C 183.59375 60.40625 185.117188 60.609375 186.519531 59.886719 C 186.960938 59.660156 187.558594 59.359375 187.855469 59.222656 C 188.152344 59.082031 188.371094 58.546875 188.351562 58.027344 C 188.324219 57.421875 188.496094 57.082031 188.828125 57.082031 C 189.109375 57.082031 189.285156 56.910156 189.214844 56.699219 C 189.144531 56.488281 188.929688 56.3125 188.738281 56.3125 C 188.546875 56.308594 188.191406 56.144531 187.949219 55.941406 C 187.707031 55.738281 187.253906 55.671875 186.949219 55.789062 C 186.636719 55.910156 186.484375 55.851562 186.601562 55.664062 C 186.714844 55.472656 188.316406 55.367188 190.191406 55.417969 C 192.050781 55.472656 193.570312 55.414062 193.570312 55.289062 C 193.570312 54.53125 191.613281 53.4375 189.433594 52.976562 C 186.523438 52.359375 186.511719 52.359375 183.746094 52.980469 M 162.789062 53.625 C 161.34375 54.089844 159.636719 55.515625 159.636719 56.253906 C 159.636719 56.539062 160.054688 56.726562 160.707031 56.726562 C 161.296875 56.726562 161.777344 56.902344 161.777344 57.113281 C 161.777344 57.367188 162.261719 57.421875 163.175781 57.265625 L 164.574219 57.03125 L 164.386719 58.441406 L 164.199219 59.847656 L 166.222656 60.101562 C 168.464844 60.382812 169.746094 59.863281 170.175781 58.503906 C 170.402344 57.789062 171.238281 57.683594 171.25 58.363281 C 171.253906 58.542969 171.386719 58.898438 171.550781 59.15625 C 171.78125 59.519531 171.957031 59.527344 172.363281 59.1875 C 172.785156 58.835938 172.796875 58.691406 172.421875 58.421875 C 172.09375 58.183594 172.148438 58.148438 172.613281 58.300781 C 172.972656 58.417969 173.480469 58.511719 173.738281 58.511719 C 174.097656 58.511719 174.132812 58.828125 173.894531 59.851562 C 173.722656 60.589844 173.578125 61.734375 173.574219 62.398438 C 173.570312 63.0625 173.164062 64.71875 172.671875 66.082031 C 172.183594 67.441406 171.78125 69.105469 171.78125 69.777344 C 171.78125 70.796875 171.933594 71.039062 172.710938 71.234375 C 173.289062 71.378906 174.121094 71.238281 174.894531 70.871094 C 176.070312 70.3125 176.25 70.3125 177.722656 70.875 C 179.472656 71.542969 179.820312 71.429688 179.460938 70.304688 C 179.089844 69.136719 177.660156 68.613281 176.84375 69.351562 C 176.046875 70.074219 175.042969 70.09375 174.132812 69.402344 C 173.53125 68.945312 173.496094 68.722656 173.847656 67.539062 C 174.070312 66.796875 174.4375 65.089844 174.667969 63.746094 C 174.960938 62.050781 175.191406 61.449219 175.421875 61.78125 C 175.632812 62.089844 175.707031 61.34375 175.628906 59.691406 C 175.53125 57.578125 175.359375 56.957031 174.667969 56.222656 C 174.203125 55.726562 173.640625 54.957031 173.417969 54.507812 C 173.046875 53.765625 172.742188 53.683594 170.160156 53.636719 C 168.597656 53.605469 166.59375 53.496094 165.707031 53.390625 C 164.824219 53.285156 163.511719 53.390625 162.789062 53.625 M 186.425781 56.726562 C 185.585938 56.996094 185.605469 57.015625 186.714844 57.046875 C 187.417969 57.070312 187.808594 56.9375 187.675781 56.726562 C 187.554688 56.53125 187.425781 56.386719 187.386719 56.40625 C 187.351562 56.425781 186.917969 56.570312 186.425781 56.726562 M 203.59375 59.691406 C 203.324219 60.515625 203.253906 61.730469 203.40625 62.953125 C 203.617188 64.640625 203.363281 66.636719 202.613281 69.21875 C 202.480469 69.679688 202.417969 69.679688 202.09375 69.21875 C 201.816406 68.820312 201.777344 68.921875 201.929688 69.632812 C 202.070312 70.265625 201.90625 70.863281 201.425781 71.472656 C 201.035156 71.972656 200.714844 72.515625 200.714844 72.679688 C 200.714844 72.847656 200.332031 73.707031 199.863281 74.589844 C 199.394531 75.472656 198.800781 77.160156 198.539062 78.335938 C 198.277344 79.515625 197.546875 81.476562 196.914062 82.691406 C 196.28125 83.90625 195.648438 85.675781 195.507812 86.621094 C 195.222656 88.523438 194.554688 89.765625 193.234375 90.832031 C 192.75 91.21875 191.414062 92.359375 190.265625 93.363281 C 186.921875 96.28125 183.480469 98.027344 180.523438 98.3125 C 176.785156 98.675781 174.832031 98.148438 171.242188 95.808594 C 168.855469 94.253906 168.0625 93.890625 167.835938 94.257812 C 167.476562 94.839844 167.792969 96.714844 168.378906 97.449219 C 170.230469 99.769531 170.886719 101.664062 171.410156 106.199219 C 171.589844 107.769531 171.921875 110.664062 172.144531 112.628906 C 172.371094 114.59375 172.78125 117.078125 173.058594 118.152344 C 173.339844 119.222656 173.570312 120.75 173.570312 121.542969 C 173.582031 123.960938 174.054688 124.15625 175.175781 122.210938 C 175.722656 121.261719 177.652344 118.398438 179.460938 115.84375 C 181.273438 113.289062 184.007812 109.03125 185.535156 106.378906 C 189.164062 100.070312 192.636719 94.804688 194.484375 92.804688 C 196.511719 90.609375 197.035156 89.578125 196.328125 89.183594 C 195.867188 88.925781 195.96875 88.519531 196.992188 86.460938 C 197.65625 85.128906 198.351562 83.238281 198.539062 82.261719 C 198.953125 80.070312 199.527344 78.515625 199.917969 78.515625 C 200.082031 78.515625 200.425781 77.914062 200.679688 77.175781 C 201.484375 74.867188 202.609375 72.800781 203.058594 72.800781 C 203.535156 72.800781 203.917969 71.6875 203.925781 70.28125 C 203.925781 69.78125 204.066406 69.21875 204.234375 69.03125 C 204.726562 68.492188 205.359375 64.664062 205.359375 62.242188 C 205.359375 60.609375 205.183594 59.804688 204.691406 59.199219 L 204.027344 58.378906 Z M 154.132812 66.460938 C 153.53125 68.683594 153.296875 71.132812 153.585938 72.15625 C 153.933594 73.382812 156.457031 76.371094 157.144531 76.371094 C 157.679688 76.371094 157.3125 75.289062 155.800781 72.390625 C 154.734375 70.34375 154.582031 69.742188 154.6875 68.015625 C 154.757812 66.914062 154.6875 66.011719 154.535156 66.011719 C 154.382812 66.011719 154.199219 66.214844 154.132812 66.460938 M 227.9375 69.726562 C 228.191406 70.003906 228.453125 70.175781 228.523438 70.109375 C 228.734375 69.90625 228.199219 69.226562 227.828125 69.226562 C 227.632812 69.226562 227.683594 69.453125 227.9375 69.726562 M 229.289062 71.015625 C 229.289062 71.210938 229.460938 71.371094 229.667969 71.371094 C 229.875 71.371094 229.949219 71.210938 229.828125 71.015625 C 229.703125 70.816406 229.535156 70.65625 229.449219 70.65625 C 229.363281 70.65625 229.289062 70.816406 229.289062 71.015625 M 172.046875 75.328125 C 171.132812 75.863281 171.269531 76.167969 172.753906 76.875 C 174.285156 77.605469 178.089844 77.695312 180.460938 77.058594 C 182.136719 76.609375 182.644531 76.085938 182.074219 75.402344 C 181.605469 74.835938 173.003906 74.773438 172.046875 75.328125 M 173.835938 82.117188 C 173.070312 82.5625 173.007812 83.515625 173.746094 83.515625 C 174.039062 83.515625 174.28125 83.652344 174.28125 83.816406 C 174.28125 83.980469 174.6875 84.300781 175.1875 84.53125 C 176.296875 85.035156 178.566406 84.242188 178.566406 83.34375 C 178.566406 83.035156 178.824219 82.683594 179.132812 82.5625 C 179.589844 82.386719 179.605469 82.285156 179.222656 82.042969 C 178.558594 81.621094 174.59375 81.675781 173.835938 82.117188 M 234.414062 82.800781 C 234.625 83.753906 234.839844 84.707031 235.046875 85.660156 C 235.285156 86.742188 235.578125 87.703125 235.699219 87.804688 C 235.824219 87.902344 235.941406 88.464844 235.96875 89.054688 C 235.992188 89.644531 236.335938 91.25 236.730469 92.625 C 239.648438 102.824219 239.640625 102.8125 239.492188 96.910156 C 239.367188 91.953125 239.207031 91.1875 238.058594 90.222656 C 237.429688 89.6875 237.402344 89.554688 237.863281 89.246094 C 238.539062 88.792969 238.027344 88.761719 237.203125 89.203125 C 236.699219 89.472656 236.570312 89.367188 236.511719 88.628906 C 236.46875 88.132812 236.195312 87.011719 235.898438 86.144531 C 235.605469 85.273438 235.359375 84.289062 235.351562 83.949219 C 235.34375 83.613281 235.085938 83.015625 234.773438 82.625 C 234.222656 81.925781 234.214844 81.929688 234.414062 82.800781 M 226.625 87.433594 C 225.777344 88.320312 225.683594 88.582031 226.066406 89.039062 C 226.714844 89.824219 227.605469 89.71875 228.210938 88.785156 C 228.84375 87.800781 228.898438 87.398438 228.464844 86.820312 C 227.984375 86.175781 227.753906 86.253906 226.625 87.433594 M 224.824219 91.019531 C 224.945312 91.214844 224.796875 91.375 224.488281 91.375 C 224.183594 91.375 223.933594 91.546875 223.933594 91.753906 C 223.933594 91.960938 224.132812 92.019531 224.378906 91.878906 C 224.734375 91.679688 224.734375 91.722656 224.378906 92.109375 C 224.132812 92.375 223.933594 93.019531 223.933594 93.546875 C 223.933594 94.273438 224.191406 94.609375 225.015625 94.953125 C 225.613281 95.199219 226.378906 95.753906 226.71875 96.1875 C 227.480469 97.15625 228.933594 97.988281 228.933594 97.460938 C 228.933594 97.257812 228.75 97.089844 228.527344 97.089844 C 228.246094 97.089844 228.179688 96.433594 228.308594 94.992188 C 228.46875 93.230469 228.390625 92.804688 227.824219 92.320312 C 227.453125 92 227.148438 91.496094 227.148438 91.199219 C 227.148438 90.820312 226.773438 90.660156 225.875 90.660156 C 225.121094 90.660156 224.695312 90.804688 224.824219 91.019531 M 326.492188 99.144531 C 325.554688 100.292969 324.617188 101.449219 323.6875 102.605469 C 322.75 103.773438 320.742188 105.964844 319.222656 107.476562 C 316.53125 110.152344 316.46875 110.257812 316.84375 111.335938 C 317.140625 112.183594 317.558594 112.539062 318.636719 112.863281 C 319.847656 113.226562 320.285156 113.1875 321.730469 112.589844 C 324.539062 111.425781 331.1875 102.933594 331.683594 99.867188 C 331.871094 98.707031 331.800781 98.585938 330.722656 98.210938 C 328.628906 97.480469 327.691406 97.6875 326.492188 99.144531 M 109.714844 100.660156 C 101.828125 102.71875 98.703125 103.949219 94.804688 106.546875 C 89.929688 109.789062 86.15625 114.371094 83.988281 119.671875 C 83.234375 121.519531 83.066406 122.527344 83.042969 125.367188 C 83.015625 128.546875 83.082031 128.890625 83.882812 129.742188 C 84.421875 130.320312 85.132812 130.667969 85.765625 130.667969 C 87.105469 130.667969 87.480469 129.65625 87.480469 126.054688 C 87.480469 118.976562 91.941406 112.539062 99.445312 108.785156 C 101.472656 107.773438 103.089844 107.195312 108.863281 105.441406 C 116.3125 103.175781 119.964844 100.558594 117.507812 99.246094 C 116.65625 98.789062 117.4375 98.648438 109.714844 100.660156 M 172.667969 99.382812 C 172.78125 99.761719 172.671875 100.214844 172.417969 100.390625 C 172.125 100.59375 172.285156 100.621094 172.851562 100.46875 C 173.582031 100.269531 173.664062 100.3125 173.296875 100.695312 C 173.054688 100.953125 172.855469 101.410156 172.859375 101.714844 C 172.863281 102.152344 172.925781 102.167969 173.164062 101.796875 C 173.40625 101.414062 173.570312 101.429688 174.023438 101.886719 C 174.882812 102.746094 178.90625 102.570312 178.367188 101.695312 C 178.257812 101.519531 178.351562 101.375 178.570312 101.375 C 178.792969 101.375 178.921875 101.015625 178.859375 100.574219 C 178.757812 99.863281 178.5625 99.777344 177.140625 99.847656 C 176.160156 99.890625 175.71875 99.804688 176.015625 99.625 C 176.351562 99.417969 176.132812 99.265625 175.300781 99.136719 C 174.53125 99.011719 173.96875 99.113281 173.726562 99.417969 C 173.417969 99.804688 173.269531 99.785156 172.90625 99.296875 C 172.503906 98.753906 172.480469 98.761719 172.667969 99.382812 M 174.101562 99.589844 C 173.980469 99.789062 174.050781 99.949219 174.261719 99.949219 C 174.46875 99.949219 174.636719 99.789062 174.636719 99.589844 C 174.636719 99.394531 174.566406 99.234375 174.480469 99.234375 C 174.394531 99.234375 174.222656 99.394531 174.101562 99.589844 M 171.9375 105.136719 C 171.804688 106.035156 171.871094 107.6875 172.089844 108.804688 C 172.304688 109.925781 172.652344 112.046875 172.859375 113.523438 C 173.367188 117.1875 173.875 118.953125 174.335938 118.667969 C 174.585938 118.511719 174.640625 117.328125 174.488281 115.171875 C 174.363281 113.382812 174.242188 111.109375 174.21875 110.128906 C 174.199219 109.144531 173.984375 107.941406 173.742188 107.449219 C 173.5 106.957031 173.195312 105.960938 173.066406 105.230469 C 172.714844 103.300781 172.21875 103.261719 171.9375 105.136719 M 307.636719 126.488281 C 305.855469 127.9375 300.683594 131.054688 298.863281 131.769531 C 295.4375 133.121094 281.050781 137.097656 276.902344 137.839844 C 272.753906 138.582031 268.683594 139.929688 268.191406 140.722656 C 268.054688 140.945312 268.144531 141.707031 268.390625 142.417969 L 268.839844 143.707031 L 271.300781 143.589844 C 275.910156 143.367188 289.921875 140.777344 293.945312 139.402344 C 294.828125 139.097656 296.800781 138.628906 298.324219 138.359375 C 301.472656 137.800781 303.601562 136.71875 309.210938 132.828125 C 312.984375 130.210938 313.546875 129.460938 313.089844 127.636719 C 312.617188 125.757812 309.371094 125.074219 307.636719 126.488281 M 88.917969 127.433594 C 88.449219 128.3125 88.859375 128.722656 91.417969 129.933594 C 97.917969 133.011719 99.167969 134.875 96.460938 137.449219 C 95.207031 138.640625 93.882812 139.214844 89.394531 140.5 C 88.820312 140.664062 87.882812 142.664062 88.164062 143.121094 C 88.292969 143.332031 89.21875 143.675781 90.21875 143.890625 C 92.011719 144.277344 92.046875 144.3125 92.601562 146.136719 C 93.550781 149.265625 93.664062 151.109375 93.058594 153.472656 C 92.0625 157.371094 91.015625 158.972656 88.667969 160.21875 C 85.839844 161.71875 80.015625 163.703125 76.214844 164.457031 C 72.734375 165.148438 71.8125 165.027344 68.097656 163.378906 C 66.382812 162.617188 65.738281 162.050781 64.214844 159.960938 C 62.367188 157.429688 61.925781 157.183594 60.105469 157.671875 C 59.675781 157.789062 58.933594 158.625 58.414062 159.582031 C 56.875 162.40625 53.46875 165.15625 48.261719 167.78125 C 45.847656 169 45.484375 169.457031 45.835938 170.863281 C 46.230469 172.425781 47.242188 173.152344 48.605469 172.839844 C 51.285156 172.230469 57.785156 168.359375 59.238281 166.511719 L 60 165.546875 L 61.503906 166.980469 C 65.328125 170.621094 70.164062 171.855469 76.738281 170.875 C 81.136719 170.214844 81.15625 170.214844 80.871094 170.675781 C 80.402344 171.433594 82.878906 170.617188 83.84375 169.695312 C 84.105469 169.449219 84.574219 169.246094 84.886719 169.246094 C 85.375 169.246094 88.277344 168.066406 91.351562 166.625 C 92.753906 165.96875 96.269531 161.925781 97.335938 159.742188 C 98.253906 157.867188 98.34375 157.355469 98.300781 154.085938 C 98.269531 151.328125 98.035156 149.742188 97.304688 147.277344 C 96.78125 145.507812 96.273438 143.730469 96.171875 143.324219 C 96.023438 142.699219 96.375 142.417969 98.496094 141.484375 C 99.980469 140.828125 101.242188 140 101.605469 139.445312 C 102.355469 138.300781 102.183594 136.363281 101.078125 133.453125 C 100.414062 131.710938 99.980469 131.191406 98.089844 129.84375 C 95.667969 128.125 94.433594 127.636719 91.304688 127.15625 C 89.535156 126.886719 89.191406 126.925781 88.917969 127.433594 M 59.441406 135.1875 C 49.332031 136.210938 42.078125 140.53125 37.796875 148.078125 C 37.324219 148.914062 36.757812 149.59375 36.539062 149.597656 C 35.894531 149.601562 32.386719 152.121094 30.042969 154.261719 C 25.765625 158.175781 23.296875 161.894531 21.878906 166.566406 C 20.867188 169.894531 21.019531 175.785156 22.203125 179.164062 C 23.972656 184.199219 26.160156 186.6875 31.074219 189.242188 C 35.945312 191.777344 38.332031 192.519531 42.292969 192.722656 C 53.386719 193.292969 64.5625 188.953125 67.347656 182.996094 C 68.929688 179.621094 68.097656 177.453125 65.023438 176.933594 C 63.011719 176.59375 62.027344 177.285156 61.1875 179.617188 C 60.257812 182.203125 58.585938 183.585938 54.933594 184.78125 C 53.285156 185.324219 51.175781 186.171875 50.242188 186.671875 L 48.542969 187.578125 L 44.703125 186.929688 C 34.300781 185.167969 30.480469 182.855469 27.601562 176.5625 C 25.832031 172.703125 26.136719 166.832031 28.324219 162.542969 C 29.78125 159.691406 31.234375 157.976562 34.28125 155.515625 C 36.511719 153.714844 37.3125 153.25 37.671875 153.546875 C 37.929688 153.761719 38.667969 153.882812 39.308594 153.820312 C 40.351562 153.71875 40.679688 153.382812 42.28125 150.769531 C 43.269531 149.152344 44.644531 147.234375 45.332031 146.507812 C 47.214844 144.507812 50.476562 142.558594 53.695312 141.496094 C 56.167969 140.683594 57.222656 140.542969 61.054688 140.519531 C 65.5 140.492188 65.535156 140.496094 67.304688 141.636719 C 69.671875 143.160156 73.164062 146.773438 74.824219 149.421875 C 76.332031 151.828125 76.613281 152.085938 77.734375 152.09375 C 78.9375 152.101562 79.207031 151.160156 78.847656 148.171875 C 78.136719 142.21875 77.789062 140.671875 77.089844 140.292969 C 76.714844 140.09375 76.40625 140.035156 76.40625 140.164062 C 76.40625 140.292969 76.167969 140.199219 75.875 139.957031 C 75.582031 139.714844 75.421875 139.386719 75.519531 139.230469 C 75.617188 139.070312 74.1875 138.144531 72.335938 137.171875 C 68.992188 135.410156 68.949219 135.398438 64.921875 135.222656 C 62.691406 135.125 60.226562 135.109375 59.441406 135.1875 M 128.824219 170.882812 C 128.710938 171 128.78125 171.566406 128.984375 172.140625 C 129.234375 172.867188 129.820312 173.40625 130.875 173.886719 C 131.84375 174.328125 133.425781 175.710938 135.195312 177.660156 C 139.699219 182.621094 147.203125 188.425781 162.851562 199.050781 C 165.304688 200.71875 169.164062 203.507812 171.421875 205.242188 C 173.683594 206.980469 175.796875 208.503906 176.117188 208.625 C 176.824219 208.886719 178.523438 207.253906 178.007812 206.808594 C 177.824219 206.648438 176.628906 205.769531 175.351562 204.851562 C 174.074219 203.933594 172.523438 202.773438 171.90625 202.269531 C 171.285156 201.769531 170.402344 201.320312 169.941406 201.277344 C 169.480469 201.234375 168.71875 200.980469 168.246094 200.71875 C 165.917969 199.421875 154.648438 190.675781 148.382812 185.3125 C 147.007812 184.132812 145.160156 182.585938 144.277344 181.871094 C 143.390625 181.15625 142.710938 180.421875 142.765625 180.238281 C 142.820312 180.058594 142.710938 180.003906 142.519531 180.121094 C 142.210938 180.3125 139.558594 178.046875 136.066406 174.605469 C 134.867188 173.421875 134.019531 172.765625 131.820312 171.300781 C 130.90625 170.695312 129.246094 170.464844 128.824219 170.882812 M 143.359375 180.640625 C 143.492188 180.855469 143.933594 181.207031 144.339844 181.425781 C 144.867188 181.707031 145.007812 181.707031 144.835938 181.429688 C 144.703125 181.214844 144.261719 180.859375 143.855469 180.644531 C 143.328125 180.359375 143.1875 180.359375 143.359375 180.640625 M 147.804688 184.25 C 149.519531 185.601562 150.589844 186.195312 149.570312 185.226562 C 148.347656 184.066406 146.6875 182.820312 146.359375 182.820312 C 146.160156 182.820312 146.8125 183.460938 147.804688 184.25 M 223.929688 199.253906 C 223.558594 199.484375 223.996094 200.144531 225.738281 202 C 229.660156 206.160156 231.386719 210.210938 233.222656 219.542969 C 235.84375 232.867188 236.847656 235.433594 241.164062 239.867188 C 244.15625 242.941406 245.644531 243.960938 247.824219 244.433594 L 249.03125 244.691406 L 248.78125 243.316406 C 248.492188 241.730469 247.296875 239.179688 245.589844 236.503906 C 244.933594 235.480469 243.464844 232.347656 242.324219 229.539062 C 238.566406 220.289062 232.199219 207.179688 230.109375 204.386719 C 228.585938 202.347656 224.460938 198.925781 223.929688 199.253906 M 182.855469 200.675781 C 181.996094 200.863281 181.132812 201.035156 180.265625 201.191406 C 179.527344 201.320312 178.925781 201.574219 178.925781 201.75 C 178.925781 202.058594 181.121094 202.816406 182.023438 202.820312 C 182.257812 202.820312 182.707031 202.5625 183.023438 202.246094 C 183.765625 201.503906 184.210938 201.925781 183.644531 202.835938 C 183.050781 203.785156 183.101562 204.492188 183.789062 204.753906 C 184.601562 205.066406 183.878906 205.867188 181.855469 206.894531 C 180.660156 207.5 179.890625 208.300781 178.703125 210.171875 C 176.125 214.238281 175.359375 216.03125 175.363281 218.003906 C 175.363281 220.058594 175.8125 221.144531 176.222656 220.089844 C 176.46875 219.453125 176.492188 219.453125 176.964844 220.097656 C 177.421875 220.71875 177.488281 220.679688 177.992188 219.472656 C 178.390625 218.519531 178.746094 218.183594 179.355469 218.183594 C 180.839844 218.183594 181.144531 219.636719 180.726562 224.753906 C 180.363281 229.238281 180.367188 229.273438 181.339844 231.667969 C 181.996094 233.289062 182.925781 234.707031 184.171875 236.003906 L 186.027344 237.925781 L 187.566406 236.964844 C 188.414062 236.4375 189.53125 235.824219 190.046875 235.601562 C 190.566406 235.382812 191.269531 234.707031 191.613281 234.105469 C 191.953125 233.5 192.734375 232.503906 193.347656 231.890625 C 193.960938 231.273438 194.753906 230.351562 195.105469 229.835938 C 195.554688 229.179688 196.066406 228.898438 196.800781 228.898438 C 197.382812 228.898438 197.855469 228.742188 197.855469 228.550781 C 197.855469 227.761719 201.5625 226.554688 202.675781 226.980469 C 203.417969 227.269531 203.351562 227.667969 202.410156 228.558594 C 201.0625 229.835938 198.988281 230.710938 197.136719 230.789062 C 195.484375 230.859375 195.359375 230.929688 195.164062 231.933594 C 194.785156 233.871094 193.875 235.203125 192.625 235.65625 C 191.964844 235.894531 191.425781 236.300781 191.425781 236.558594 C 191.425781 236.816406 191.1875 237.226562 190.890625 237.472656 C 190.144531 238.09375 190.21875 238.367188 191.265625 238.84375 C 192.820312 239.550781 194.125 239.316406 196.125 237.96875 C 197.175781 237.261719 198.636719 236.375 199.371094 236 C 200.101562 235.625 200.960938 234.921875 201.28125 234.441406 C 201.65625 233.867188 202.3125 233.492188 203.160156 233.363281 C 207.144531 232.757812 208.121094 232.421875 209.179688 231.296875 C 210.152344 230.261719 215.542969 222.382812 217.421875 219.253906 C 218.578125 217.324219 220.257812 215.941406 223.644531 214.121094 L 226.753906 212.449219 L 226.222656 210.953125 C 224.554688 206.214844 219.933594 201.507812 216.113281 200.648438 C 214.980469 200.394531 214.328125 200.5 212.511719 201.238281 C 210.808594 201.929688 209.941406 202.089844 208.796875 201.917969 C 207.765625 201.761719 206.125 201.976562 203.476562 202.617188 C 199.335938 203.613281 198.214844 203.734375 198.214844 203.179688 C 198.214844 202.984375 197.339844 202.824219 196.273438 202.824219 C 195.128906 202.824219 192.535156 202.308594 189.949219 201.574219 C 185.382812 200.269531 184.914062 200.210938 182.855469 200.675781 M 183.460938 208.964844 C 182.128906 210.730469 181.378906 213.269531 181.714844 214.875 C 182.054688 216.515625 182.417969 216.558594 183.417969 215.074219 C 184.871094 212.914062 186.238281 209.246094 185.828125 208.59375 C 185.203125 207.601562 184.394531 207.726562 183.460938 208.964844 M 91.054688 215.773438 C 91.058594 216.632812 91.445312 218.117188 91.949219 219.199219 C 92.4375 220.25 92.839844 221.199219 92.839844 221.304688 C 92.839844 221.414062 91.964844 220.675781 90.894531 219.664062 C 88.941406 217.8125 87.40625 217.285156 87.011719 218.316406 C 86.90625 218.589844 87.390625 219.675781 88.089844 220.730469 C 89.730469 223.210938 99.578125 233.183594 102.125 234.945312 C 105.210938 237.074219 107.804688 238.273438 108.792969 238.023438 C 110.09375 237.699219 112.574219 238.964844 115.390625 241.394531 C 117.835938 243.503906 118.652344 243.898438 119.09375 243.1875 C 119.214844 242.992188 119.785156 242.828125 120.363281 242.828125 C 121.058594 242.828125 121.414062 242.648438 121.414062 242.296875 C 121.414062 241.5625 119.378906 239.367188 116.917969 237.453125 C 115.796875 236.582031 113.753906 234.851562 112.378906 233.613281 C 111.007812 232.371094 108.960938 230.890625 107.828125 230.320312 C 106.699219 229.75 104.160156 228.234375 102.183594 226.953125 C 98.894531 224.820312 98.386719 224.332031 96.09375 221.097656 C 94.71875 219.160156 93.230469 216.824219 92.789062 215.914062 C 91.757812 213.792969 91.050781 213.738281 91.054688 215.773438 M 191.238281 216.015625 C 189.632812 216.730469 187.496094 218.949219 187.496094 219.898438 C 187.496094 220.242188 186.859375 221.480469 186.078125 222.65625 C 184.902344 224.425781 184.660156 225.097656 184.65625 226.578125 C 184.648438 228.960938 184.957031 229.421875 186.191406 228.859375 C 187.097656 228.445312 187.140625 228.300781 187.140625 225.738281 C 187.140625 223.539062 187.285156 222.835938 187.945312 221.867188 C 188.386719 221.21875 188.976562 220.6875 189.257812 220.6875 C 189.839844 220.683594 194.25 217.949219 194.871094 217.207031 C 195.097656 216.941406 195.199219 216.40625 195.097656 216.023438 C 194.863281 215.128906 193.238281 215.125 191.238281 216.015625 M 306.929688 219.125 C 306.566406 219.421875 306.46875 219.5625 306.714844 219.4375 C 306.996094 219.296875 307.160156 219.46875 307.160156 219.910156 C 307.160156 220.75 306.550781 221.03125 305.257812 220.78125 C 303.910156 220.523438 301.089844 223.292969 301.089844 224.878906 C 301.089844 227.253906 301.488281 228.210938 302.574219 228.425781 C 304.722656 228.859375 303.777344 229.15625 299.558594 229.390625 C 293.789062 229.710938 293.054688 230.179688 290.617188 235.085938 C 289.070312 238.207031 288.761719 239.136719 288.628906 241.09375 C 288.59375 241.585938 288.085938 241.6875 285.480469 241.726562 C 283.398438 241.753906 282.105469 241.945312 281.5625 242.296875 C 279.863281 243.414062 279.015625 249.765625 280.230469 252.324219 C 281.230469 254.433594 283.203125 255.902344 285.382812 256.160156 C 286.957031 256.347656 287.441406 256.269531 288.035156 255.734375 C 288.558594 255.269531 289.015625 255.160156 289.65625 255.351562 C 292.851562 256.304688 296.078125 255.195312 299.609375 251.925781 L 301.859375 249.84375 L 303.304688 251.539062 C 304.101562 252.46875 306.621094 254.625 308.902344 256.335938 C 312.726562 259.195312 313.894531 259.871094 317.035156 261.039062 C 318.515625 261.59375 321.265625 265.019531 322.199219 267.476562 C 322.804688 269.0625 322.902344 269.882812 322.71875 271.726562 C 322.59375 272.984375 322.332031 274.308594 322.136719 274.671875 C 321.671875 275.542969 319.507812 276.652344 315.554688 278.046875 C 313.789062 278.671875 311.160156 279.78125 309.714844 280.507812 C 308.273438 281.234375 306.183594 281.960938 305.074219 282.121094 C 303.960938 282.28125 302.601562 282.589844 302.046875 282.804688 C 301.496094 283.019531 299.828125 283.195312 298.339844 283.195312 C 296.847656 283.195312 294.207031 283.53125 292.4375 283.945312 C 289.480469 284.640625 289.039062 284.863281 286.765625 286.820312 C 284.277344 288.960938 283.832031 289.863281 284.847656 290.703125 C 285.296875 291.078125 285.953125 290.992188 288.507812 290.242188 C 292.792969 288.980469 296.511719 288.445312 299.929688 288.601562 C 302.324219 288.710938 302.964844 288.871094 303.675781 289.535156 C 304.925781 290.710938 306.757812 290.582031 309.609375 289.125 C 314.875 286.429688 320.398438 284.265625 322.007812 284.265625 C 322.144531 284.265625 322.160156 284.730469 322.046875 285.296875 C 321.75 286.769531 322.671875 287.480469 324.871094 287.476562 C 326.976562 287.476562 328.164062 286.777344 329.761719 284.601562 C 330.699219 283.328125 330.914062 282.699219 330.914062 281.246094 C 330.914062 279.742188 331.027344 279.433594 331.628906 279.320312 C 332.023438 279.242188 332.429688 279.046875 332.535156 278.878906 C 332.640625 278.714844 334.167969 278.730469 335.929688 278.914062 C 341.417969 279.492188 348.367188 279.257812 352.597656 278.351562 C 353.785156 278.097656 354.132812 277.136719 353.613281 275.5625 C 352.878906 273.332031 351.847656 272.738281 348.636719 272.695312 C 345.976562 272.660156 345.722656 272.722656 344.734375 273.667969 L 343.679688 274.675781 L 339.082031 274.378906 L 334.488281 274.085938 L 334.664062 271.761719 C 334.976562 267.714844 334.820312 264.421875 334.277344 263.648438 C 333.40625 262.402344 330.652344 260.367188 328.34375 259.261719 C 325.371094 257.835938 323.6875 256.300781 323.230469 254.597656 C 322.773438 252.898438 322.984375 251.949219 324.566406 248.617188 C 325.246094 247.1875 325.710938 245.785156 325.605469 245.503906 C 325.324219 244.773438 326.792969 243.800781 327.410156 244.3125 C 327.667969 244.527344 327.878906 245.007812 327.878906 245.378906 C 327.878906 246.371094 330.015625 248.507812 331.394531 248.894531 C 332.664062 249.25 332.632812 249.335938 331.890625 247.5 C 331.734375 247.113281 331.847656 247.0625 332.371094 247.289062 C 332.75 247.449219 334.5625 247.992188 336.402344 248.488281 C 339.453125 249.3125 339.921875 249.351562 341.761719 248.949219 C 342.867188 248.707031 344.738281 248.347656 345.917969 248.152344 C 349.390625 247.570312 351.101562 245.945312 351.097656 243.222656 C 351.09375 241.683594 349.828125 240.082031 347.261719 238.378906 C 345.207031 237.011719 344.480469 236.730469 342.519531 236.550781 C 340.195312 236.335938 336.96875 235.5 336.238281 234.925781 C 336.019531 234.753906 335.820312 233.328125 335.792969 231.714844 C 335.742188 229.117188 335.632812 228.695312 334.753906 227.648438 C 332.96875 225.523438 331.15625 224.941406 325.378906 224.65625 C 321.238281 224.449219 320.90625 224.378906 320.808594 223.703125 C 320.675781 222.777344 317.832031 220.898438 314.921875 219.820312 C 312.015625 218.742188 307.847656 218.378906 306.929688 219.125 M 55.023438 221.214844 C 50.179688 223.28125 46.773438 225.367188 43.933594 228.003906 C 41.179688 230.566406 34.257812 239.769531 34.257812 240.871094 C 34.257812 241.957031 35.351562 242.828125 36.71875 242.828125 C 38.371094 242.828125 39.046875 242.359375 40.179688 240.429688 C 41.625 237.960938 49.136719 230.648438 53.90625 227.066406 C 58.839844 223.359375 60.945312 221.242188 60.375 220.554688 C 60.160156 220.292969 60.085938 219.976562 60.21875 219.847656 C 60.929688 219.132812 58.25 219.839844 55.023438 221.214844 M 161.421875 219.941406 C 160.574219 220.1875 160.640625 220.269531 162.679688 221.601562 C 163.863281 222.375 165.550781 223.300781 166.429688 223.667969 C 167.355469 224.050781 168.28125 224.4375 169.203125 224.828125 C 171.574219 225.835938 173.402344 225.226562 173.148438 223.507812 C 173.011719 222.589844 173 222.582031 168.558594 220.898438 C 165.230469 219.636719 163.34375 219.386719 161.421875 219.941406 M 197.167969 222.015625 C 195.695312 222.292969 192.5 224.28125 192.503906 224.914062 C 192.515625 226.332031 193.011719 226.40625 195.195312 225.339844 C 197.6875 224.113281 198.929688 223.113281 198.929688 222.324219 C 198.929688 221.75 198.746094 221.71875 197.167969 222.015625 M 302.894531 224.734375 C 302.554688 225.765625 302.578125 226.191406 303.019531 227.046875 C 303.511719 228 304.726562 228.714844 305.144531 228.292969 C 305.355469 228.082031 304.046875 224.210938 303.621094 223.785156 C 303.445312 223.609375 303.128906 224.023438 302.894531 224.734375 M 178.625 224.613281 C 178.625 225.101562 178.707031 225.304688 178.804688 225.058594 C 178.902344 224.8125 178.902344 224.410156 178.804688 224.164062 C 178.707031 223.921875 178.625 224.121094 178.625 224.613281 M 243.230469 237.675781 C 243.632812 238.734375 245.5625 241.617188 246.078125 241.9375 C 246.671875 242.300781 246.023438 240.980469 244.554688 238.8125 C 243.023438 236.554688 242.699219 236.28125 243.230469 237.675781 M 311.195312 239.347656 C 309.648438 241.035156 309.816406 241.425781 312.910156 243.453125 C 314.488281 244.488281 315.902344 245.332031 316.054688 245.332031 C 316.324219 245.332031 317.164062 242.957031 317.164062 242.191406 C 317.164062 241.984375 316.691406 241.710938 316.109375 241.582031 C 315.53125 241.457031 314.488281 240.722656 313.789062 239.949219 C 313.09375 239.175781 312.386719 238.542969 312.226562 238.542969 C 312.0625 238.542969 311.597656 238.90625 311.195312 239.347656 M 321.644531 240.300781 C 321.523438 240.5 321.75 240.988281 322.152344 241.386719 C 322.90625 242.140625 324.722656 242.292969 326.984375 241.792969 L 328.058594 241.558594 L 327.164062 240.984375 C 326.085938 240.292969 321.964844 239.78125 321.644531 240.300781 M 308.972656 244.167969 C 309.449219 244.707031 309.9375 245.195312 310.058594 245.253906 C 310.175781 245.308594 310.578125 245.589844 310.949219 245.878906 C 311.605469 246.386719 311.605469 246.394531 310.910156 246.15625 C 309.5 245.671875 310.992188 246.949219 312.851562 247.820312 C 314.324219 248.507812 314.730469 248.574219 315.183594 248.199219 C 315.996094 247.523438 315.863281 247.214844 314.574219 246.785156 C 313.933594 246.570312 312.449219 245.675781 311.277344 244.792969 C 308.828125 242.953125 307.609375 242.625 308.972656 244.167969 M 306.242188 246.195312 C 306.125 246.671875 305.703125 247.355469 305.3125 247.710938 C 304.621094 248.335938 304.578125 248.332031 304.09375 247.667969 C 303.441406 246.773438 303.441406 247.585938 304.09375 248.832031 C 304.777344 250.128906 306.878906 252.070312 309.496094 253.816406 C 310.683594 254.609375 311.871094 255.515625 312.132812 255.832031 C 312.390625 256.144531 312.894531 256.402344 313.246094 256.402344 C 313.78125 256.402344 313.925781 255.972656 314.132812 253.78125 C 314.269531 252.335938 314.320312 250.878906 314.253906 250.542969 C 314.175781 250.167969 312.953125 249.410156 311.089844 248.589844 C 308.878906 247.609375 307.925781 246.984375 307.589844 246.289062 C 307.007812 245.097656 306.527344 245.066406 306.242188 246.195312 M 139.261719 247.667969 C 138.96875 248.023438 138.699219 250.207031 138.5 253.828125 C 137.949219 263.976562 136.800781 273.90625 136.179688 273.90625 C 136.082031 273.90625 136.050781 272.339844 136.109375 270.421875 C 136.171875 268.507812 136.121094 266.78125 136 266.582031 C 135.878906 266.386719 135.980469 265.253906 136.230469 264.070312 C 136.683594 261.882812 136.558594 256.402344 136.054688 256.402344 C 135.699219 256.402344 135.277344 260.980469 135.167969 266.046875 C 135.121094 268.308594 134.957031 275.714844 134.808594 282.511719 C 134.5625 293.464844 134.695312 298.609375 135.207031 298.097656 C 135.296875 298.007812 135.507812 295.984375 135.671875 293.601562 C 135.835938 291.214844 136.164062 289.039062 136.394531 288.757812 C 136.625 288.480469 136.976562 286.679688 137.171875 284.757812 C 137.367188 282.835938 137.828125 280.375 138.191406 279.28125 C 138.867188 277.269531 140 269.402344 139.945312 267.121094 C 139.929688 266.433594 140.035156 261.648438 140.183594 256.492188 C 140.457031 247.101562 140.375 246.328125 139.261719 247.667969 M 103.589844 251.402344 C 102.527344 254.269531 102.328125 255.550781 103.027344 254.964844 C 103.804688 254.320312 104.691406 251.628906 104.5625 250.296875 C 104.453125 249.132812 104.410156 249.179688 103.589844 251.402344 M 190.71875 251.136719 C 190.722656 251.183594 191.261719 253.796875 191.917969 256.9375 C 192.574219 260.082031 193.875 266.511719 194.808594 271.226562 C 195.746094 275.941406 197.128906 281.808594 197.882812 284.265625 C 198.636719 286.722656 199.726562 290.953125 200.304688 293.664062 C 200.882812 296.378906 201.433594 298.679688 201.527344 298.773438 C 201.625 298.867188 201.960938 298.683594 202.277344 298.367188 C 203.039062 297.605469 203.011719 295.878906 202.164062 291.355469 C 201.78125 289.324219 201.046875 285.421875 200.53125 282.6875 C 200.015625 279.9375 198.65625 274.828125 197.496094 271.257812 C 196.335938 267.703125 194.980469 263.03125 194.480469 260.867188 C 193.511719 256.679688 191.527344 251.046875 191.019531 251.046875 C 190.851562 251.046875 190.714844 251.085938 190.71875 251.132812 M 70.277344 253.179688 C 69.753906 253.339844 67.902344 254.480469 66.167969 255.71875 C 63.527344 257.605469 59.886719 259.492188 57.035156 260.453125 C 56.199219 260.734375 56.59375 261.640625 57.667969 261.910156 C 58.238281 262.054688 58.453125 262.304688 58.316406 262.660156 C 57.957031 263.597656 61.8125 263.359375 63.828125 262.316406 C 69.027344 259.625 73.90625 255.457031 73.90625 253.710938 C 73.90625 252.925781 72.027344 252.652344 70.277344 253.179688 M 252.867188 272.621094 C 252.867188 272.894531 253.535156 273.738281 254.351562 274.496094 C 259.097656 278.886719 265.171875 285.414062 270.753906 292.125 C 275.457031 297.769531 276.71875 299.109375 277.042969 298.785156 C 277.488281 298.34375 273.070312 291.875 269.738281 288.089844 C 265.058594 282.773438 253.953125 272.121094 253.085938 272.121094 C 252.964844 272.121094 252.867188 272.34375 252.867188 272.621094 M 209.289062 276.140625 C 209.292969 279.375 209.960938 286.125 210.6875 290.234375 C 210.886719 291.371094 211.371094 294.492188 211.765625 297.164062 C 212.878906 304.777344 213.902344 308.457031 215.375 310.164062 C 215.714844 310.554688 216.09375 311.210938 216.214844 311.617188 C 216.589844 312.855469 217.757812 313.875 218.5625 313.664062 C 219.511719 313.414062 219.476562 313.078125 218.238281 310.539062 C 217.207031 308.425781 217.203125 308.414062 217.886719 307.546875 C 218.265625 307.066406 218.574219 306.472656 218.574219 306.226562 C 218.574219 305.980469 218.917969 305.691406 219.335938 305.582031 C 220.21875 305.351562 220.296875 305.867188 218.246094 298.195312 C 217.433594 295.152344 216.03125 290.890625 215.136719 288.730469 C 214.238281 286.570312 212.632812 282.109375 211.5625 278.816406 C 210.492188 275.527344 209.542969 272.835938 209.453125 272.835938 C 209.359375 272.835938 209.289062 274.320312 209.289062 276.140625 M 253.042969 296.957031 C 247.347656 297.84375 246.769531 298.269531 248.179688 300.554688 C 248.730469 301.445312 249.175781 301.703125 250.480469 301.882812 C 252.359375 302.140625 256.679688 301.132812 259.214844 299.84375 L 260.820312 299.027344 L 259.734375 298.253906 C 259.136719 297.828125 258.488281 297.480469 258.289062 297.480469 C 258.089844 297.480469 257.871094 297.347656 257.808594 297.179688 C 257.578125 296.59375 255.871094 296.515625 253.042969 296.957031 M 89.828125 313.179688 C 87.585938 314.960938 85.722656 315.640625 78.890625 317.164062 C 72.71875 318.546875 72.074219 318.625 68.726562 318.398438 C 65.558594 318.1875 64.125 317.976562 61.125 317.292969 C 60.675781 317.191406 60.15625 316.710938 59.972656 316.226562 C 59.789062 315.738281 59.429688 315.324219 59.179688 315.296875 C 56.53125 315.046875 55.839844 315.160156 55.214844 315.949219 C 54.859375 316.402344 54.25 316.769531 53.859375 316.769531 C 53.210938 316.769531 48.847656 317.824219 44.339844 319.070312 C 43.300781 319.359375 40.558594 319.769531 38.246094 319.980469 C 32.425781 320.515625 31.960938 320.667969 31.824219 322.058594 C 31.742188 322.886719 31.953125 323.429688 32.609375 324.085938 C 33.46875 324.945312 33.699219 324.988281 37.703125 324.988281 C 42.203125 324.988281 43.128906 324.765625 52.296875 321.527344 C 54.261719 320.835938 56.109375 320.273438 56.402344 320.28125 C 56.699219 320.289062 58.105469 320.699219 59.53125 321.199219 C 62.714844 322.304688 68.519531 323.199219 72.523438 323.199219 C 77.160156 323.199219 85.472656 321.40625 87.410156 319.988281 C 89.109375 318.746094 92.378906 317.871094 96.273438 317.621094 C 99.886719 317.386719 100.035156 317.34375 100.761719 316.324219 L 101.511719 315.273438 L 100.121094 313.921875 C 98.539062 312.386719 97.546875 312.226562 94.878906 313.078125 C 93.027344 313.667969 92.125 313.535156 92.125 312.675781 C 92.125 311.835938 91.285156 312.019531 89.828125 313.179688 " fill-opacity="1" fill-rule="evenodd"/></g></svg>